<svg width="16" height="17" viewBox="0 0 16 17" fill="none" xmlns="http://www.w3.org/2000/svg">
<path d="M7.9364 16.2579C12.1343 16.2579 15.5374 12.6756 15.5374 8.25667C15.5374 3.83774 12.1343 0.255493 7.9364 0.255493C3.73851 0.255493 0.335449 3.83774 0.335449 8.25667C0.335449 12.6756 3.73851 16.2579 7.9364 16.2579Z" fill="#218428"/>
<path opacity="0.25" d="M8.97234 4.4109C11.3262 4.8489 13.0503 5.94682 13.2537 4.8535C13.4572 3.76019 11.828 2.18978 9.47416 1.75178C7.12033 1.31379 4.93322 2.17405 4.72977 3.26737C4.52633 4.36068 6.61851 3.9729 8.97234 4.4109Z" fill="#A7F582"/>
<path opacity="0.25" d="M8.97234 4.4109C11.3262 4.8489 13.0503 5.94682 13.2537 4.8535C13.4572 3.76019 11.828 2.18978 9.47416 1.75178C7.12033 1.31379 4.93322 2.17405 4.72977 3.26737C4.52633 4.36068 6.61851 3.9729 8.97234 4.4109Z" fill="#A7F582"/>
</svg>
