<svg width="85" height="134" viewBox="0 0 85 134" fill="none" xmlns="http://www.w3.org/2000/svg">
<g clip-path="url(#clip0_15_8175)">
<path d="M73.4225 69.2704C73.1025 70.3886 73.6597 71.3073 74.5595 72.0452V128.514C74.5595 133.25 67.2817 133.973 42.5001 133.973C17.7184 133.973 10.4443 133.25 10.4443 128.514V72.0414C11.3442 71.3073 11.9014 70.3848 11.5776 69.2704C11.5776 69.2704 11.5701 69.2628 11.5588 69.2515C11.2199 69.2704 10.8472 69.2892 10.4443 69.308V40.5693C10.4443 39.2515 15.6476 20.7274 17.3833 19.6092C20.2034 17.7907 31.5588 16.1152 42.5001 16.1152C53.4413 16.1152 64.8005 17.7907 67.6205 19.6092C69.3562 20.7274 74.5595 39.2515 74.5595 40.5693V69.308C74.1567 69.2892 73.7802 69.2704 73.4413 69.2515L73.4225 69.2704Z" fill="#080808"/>
<path d="M74.5595 31.4189V69.3067C74.1567 69.2879 73.7802 69.2691 73.4413 69.2502L73.4225 69.2691C73.1025 70.3873 73.6597 71.306 74.5595 72.0439V119.928C74.5595 124.664 67.2817 124.823 42.5001 124.823C17.7184 124.823 10.4443 124.664 10.4443 119.928V72.0401C11.3442 71.306 11.9014 70.3835 11.5776 69.2691C11.5776 69.2691 11.5701 69.2615 11.5588 69.2502C11.2199 69.2691 10.8472 69.2879 10.4443 69.3067V31.4189C10.4443 30.1011 15.6476 11.577 17.3833 10.4588C20.2034 8.6403 31.5588 6.96484 42.5001 6.96484C53.4413 6.96484 64.8005 8.6403 67.6205 10.4588C69.3562 11.577 74.5595 30.1011 74.5595 31.4189Z" fill="#262626"/>
<path d="M73.4224 69.2691C73.1024 70.3873 73.6596 71.306 74.5594 72.044C75.0489 72.4431 75.6362 72.7857 76.2349 73.0718V113.298C76.2349 116.016 75.8772 117.127 74.5594 117.846C74.134 118.079 73.6069 118.271 72.9555 118.463C70.2221 119.273 68.5768 119.928 42.5 119.928C16.4231 119.928 14.7778 119.273 12.0444 118.463C11.3968 118.271 10.8697 118.079 10.4442 117.85C9.1227 117.127 8.76501 116.016 8.76501 113.298V73.0718C9.36742 72.7857 9.95477 72.4393 10.4442 72.0402C11.3441 71.306 11.9013 70.3836 11.5775 69.2691C11.5775 69.2691 11.57 69.2616 11.5587 69.2503C11.2198 69.2691 10.8471 69.2879 10.4442 69.3068C9.92465 69.3294 9.35613 69.3482 8.76501 69.3519V26.5244C8.76501 25.2066 14.2394 6.68251 16.0655 5.56429C19.0361 3.74576 30.9864 2.07031 42.5 2.07031C54.0135 2.07031 65.9638 3.74576 68.9344 5.56429C70.7605 6.68251 76.2349 25.2066 76.2349 26.5244V69.3519C75.6475 69.3482 75.079 69.3294 74.5594 69.3068C74.1566 69.2879 73.7801 69.2691 73.4412 69.2503L73.4224 69.2691Z" fill="#191919"/>
<path d="M81.476 68.9684C81.2576 69.0136 81.0279 69.055 80.7945 69.0926C79.3901 69.3148 77.741 69.3712 76.235 69.3524C75.6477 69.3487 75.0791 69.3298 74.5596 69.3072C74.1567 69.2884 73.7802 69.2696 73.4413 69.2508L73.4225 69.2696C73.1025 70.3878 73.6597 71.3065 74.5596 72.0444C75.049 72.4435 75.6364 72.7862 76.235 73.0723V111.227C76.235 113.946 75.8773 115.056 74.5596 115.776C74.1341 116.009 73.607 116.201 72.9557 116.393C70.2222 117.203 68.5769 117.858 42.5001 117.858C16.4233 117.858 14.7779 117.203 12.0445 116.393C11.3969 116.201 10.8698 116.009 10.4444 115.779C9.12282 115.056 8.76513 113.946 8.76513 111.227V73.0723C9.36754 72.7862 9.95489 72.4398 10.4444 72.0407C11.3442 71.3065 11.9014 70.384 11.5776 69.2696C11.5776 69.2696 11.5701 69.2621 11.5588 69.2508C11.22 69.2696 10.8472 69.2884 10.4444 69.3072C9.92477 69.3298 9.35625 69.3487 8.76513 69.3524C7.25911 69.3712 5.61001 69.3148 4.20941 69.0926C3.97598 69.055 3.74631 69.0136 3.52794 68.9684C0.677784 68.3622 -0.282306 66.2274 0.0716098 64.1303C0.357754 62.4247 3.71242 60.6099 8.76513 60.497V24.4541C8.76513 23.1363 14.2395 4.6122 16.0656 3.49398C19.0362 1.67545 30.9865 0 42.5001 0C54.0136 0 65.9639 1.67545 68.9346 3.49398C70.7606 4.6122 76.235 23.1363 76.235 24.4541V60.497C81.2915 60.6062 84.6424 62.4247 84.9323 64.1303C85.2862 66.2274 84.3261 68.3622 81.476 68.9684Z" fill="#C483FF"/>
<mask id="mask0_15_8175" style="mask-type:alpha" maskUnits="userSpaceOnUse" x="0" y="0" width="86" height="118">
<path d="M81.476 68.9684C81.2576 69.0136 81.0279 69.055 80.7945 69.0926C79.3901 69.3148 77.741 69.3712 76.235 69.3524C75.6477 69.3487 75.0791 69.3298 74.5596 69.3072C74.1567 69.2884 73.7802 69.2696 73.4413 69.2508L73.4225 69.2696C73.1025 70.3878 73.6597 71.3065 74.5596 72.0444C75.049 72.4435 75.6364 72.7862 76.235 73.0723V111.227C76.235 113.946 75.8773 115.056 74.5596 115.776C74.1341 116.009 73.607 116.201 72.9557 116.393C70.2222 117.203 68.5769 117.858 42.5001 117.858C16.4233 117.858 14.7779 117.203 12.0445 116.393C11.3969 116.201 10.8698 116.009 10.4444 115.779C9.12282 115.056 8.76513 113.946 8.76513 111.227V73.0723C9.36754 72.7862 9.95489 72.4398 10.4444 72.0407C11.3442 71.3065 11.9014 70.384 11.5776 69.2696C11.5776 69.2696 11.5701 69.2621 11.5588 69.2508C11.22 69.2696 10.8472 69.2884 10.4444 69.3072C9.92477 69.3298 9.35625 69.3487 8.76513 69.3524C7.25911 69.3712 5.61001 69.3148 4.20941 69.0926C3.97598 69.055 3.74631 69.0136 3.52794 68.9684C0.677784 68.3622 -0.282306 66.2274 0.0716098 64.1303C0.357754 62.4247 3.71242 60.6099 8.76513 60.497V24.4541C8.76513 23.1363 14.2395 4.6122 16.0656 3.49398C19.0362 1.67545 30.9865 0 42.5001 0C54.0136 0 65.9639 1.67545 68.9346 3.49398C70.7606 4.6122 76.235 23.1363 76.235 24.4541V60.497C81.2915 60.6062 84.6424 62.4247 84.9323 64.1303C85.2862 66.2274 84.3261 68.3622 81.476 68.9684Z" fill="#952DF5"/>
</mask>
<g mask="url(#mask0_15_8175)">
<path d="M66.5 67.4863L73.5 69.4863L81.5 76.4863V122.986H42.5H2.5V76.4863L10.5 69.4863L17.5 67.4863H42.5H66.5Z" fill="#923AE3"/>
<path d="M66.5 -34.0137L73.5 -32.0137L77 -23.5137C73.1269 -7.7386 70.4063 0.915413 64.5 15.9863L42.5 21.4863L20.5 15.9863C14.5937 0.915413 11.8731 -7.7386 8 -23.5137L11.5 -32.0137L18.5 -34.0137H42.5H66.5Z" fill="#923AE3"/>
</g>
<path d="M72.5452 95.3379C66.4985 95.3379 60.8698 98.2558 60.8698 102.864C60.8698 103.233 60.9639 104.005 61.506 104.205C64.1077 105.161 72.6393 103.267 73.5768 102.33C74.3298 101.577 73.9082 97.1865 73.8065 96.4523C73.6973 95.6504 73.3283 95.3417 72.5414 95.3417L72.5452 95.3379Z" fill="white"/>
<path d="M12.4548 95.3379C18.5015 95.3379 24.1302 98.2558 24.1302 102.864C24.1302 103.233 24.0361 104.005 23.4939 104.205C20.8923 105.161 12.3607 103.267 11.4232 102.33C10.6701 101.577 11.0918 97.1865 11.1935 96.4523C11.3027 95.6504 11.6717 95.3417 12.4585 95.3417L12.4548 95.3379Z" fill="white"/>
<path d="M67.6958 69.3563C65.7266 76.0844 59.7553 93.7011 58.9759 95.9564C58.4337 97.5189 57.3117 97.805 55.1769 97.805H29.823C27.6882 97.805 26.5662 97.5189 26.0241 95.9564C25.2447 93.7011 19.2733 76.0844 17.3042 69.3563C17.3042 69.3563 33.942 61.9956 34.5331 61.7433C35.1205 61.491 42.5 65.7079 42.5 65.7079C42.5 65.7079 49.8795 61.491 50.4706 61.7433C51.058 61.9956 67.6958 69.3563 67.6958 69.3563Z" fill="#C483FF"/>
<path d="M68.5543 67.2759C68.0912 63.9551 65.8585 48.8723 65.3916 46.5756C64.7892 43.6012 55.5987 43.1758 42.5 43.1758C29.4014 43.1758 20.2109 43.6012 19.6085 46.5756C19.1416 48.8761 16.9089 63.9551 16.4458 67.2759C15.93 70.9695 24.1341 72.6863 42.5 72.6863C60.866 72.6863 69.0701 70.9657 68.5543 67.2759Z" fill="#F0DFFD"/>
<path d="M67.9594 63.1496C67.116 57.4079 65.7455 48.3228 65.3954 46.5795C64.793 43.6051 55.6025 43.1797 42.5038 43.1797C29.4052 43.1797 20.2147 43.6051 19.6123 46.5795C19.4504 47.374 19.0776 49.7008 18.6409 52.5359C32.4172 51.508 55.1243 51.0185 67.9632 63.1496H67.9594Z" fill="#FFFEFF"/>
<path d="M30.7907 100.008H54.2132C55.0377 100.008 55.7079 100.678 55.7079 101.503C55.7079 105.117 52.7749 108.05 49.1605 108.05H35.8397C32.2252 108.05 29.2922 105.117 29.2922 101.503C29.2922 100.678 29.9624 100.008 30.787 100.008H30.7907Z" fill="black"/>
<path d="M42.5 12.7148C24.3072 12.7148 19.8945 14.507 19.8945 16.6682V33.1855C19.8945 36.7435 22.7259 38.5846 42.5 38.5846C62.274 38.5846 65.1054 36.7435 65.1054 33.1855V16.6682C65.1054 14.5032 60.6927 12.7148 42.5 12.7148Z" fill="#EFD7FF"/>
<path d="M83.2793 63.5059C83.7914 63.8485 83.765 64.7069 83.7575 65.0232C83.7123 66.5556 82.3682 67.4968 82.1498 67.6437C80.5647 68.7129 78.268 68.4908 77.8125 67.7378C77.515 67.2446 79.3863 65.4524 80.2673 64.7295C81.7357 63.5134 82.1988 62.7867 83.2831 63.5059H83.2793Z" fill="#EFD7FF"/>
<path d="M1.72057 63.5059C1.20852 63.8485 1.23488 64.7069 1.24241 65.0232C1.28759 66.5556 2.63171 67.4968 2.85009 67.6437C4.43518 68.7129 6.73187 68.4908 7.18744 67.7378C7.48488 67.2446 5.61364 65.4524 4.73262 64.7295C3.26424 63.5134 2.80114 62.7867 1.7168 63.5059H1.72057Z" fill="#EFD7FF"/>
<path d="M49.8945 113.154H35.1016C33.935 113.154 32.9894 114.1 32.9894 115.266V120.447C32.9894 121.614 33.935 122.559 35.1016 122.559H49.8945C51.061 122.559 52.0067 121.614 52.0067 120.447V115.266C52.0067 114.1 51.061 113.154 49.8945 113.154Z" fill="white"/>
<path d="M52.0105 115.266V116.562C52.0105 115.395 51.0617 114.446 49.8945 114.446H35.1053C33.9382 114.446 32.9894 115.395 32.9894 116.562V115.266C32.9894 114.099 33.9382 113.154 35.1053 113.154H49.8945C51.0617 113.154 52.0105 114.099 52.0105 115.266Z" fill="#D3AABA"/>
<path d="M23.0083 10.5506C35.9714 9.27426 49.0287 9.27426 61.9918 10.5506C63.2681 10.6749 64.4202 9.75995 64.5633 8.4836C64.7064 7.21101 63.7614 6.0589 62.4473 5.92712C49.183 4.62065 35.8208 4.62065 22.5528 5.92712C21.2388 6.05513 20.2937 7.20724 20.4368 8.4836C20.5799 9.75619 21.732 10.6749 23.0083 10.5506Z" fill="#D39AF9"/>
</g>
<defs>
<clipPath id="clip0_15_8175">
<rect width="85" height="133.972" fill="white"/>
</clipPath>
</defs>
</svg>
