<svg width="85" height="172" viewBox="0 0 85 172" fill="none" xmlns="http://www.w3.org/2000/svg">
<rect x="8" y="11" width="69" height="161" rx="10" fill="#080808"/>
<rect x="8" y="5" width="69" height="161" rx="10" fill="#262626"/>
<rect x="8" width="69" height="161" rx="10" fill="white"/>
<mask id="mask0_15_8174" style="mask-type:alpha" maskUnits="userSpaceOnUse" x="8" y="0" width="69" height="161">
<rect x="8" width="69" height="161" rx="10" fill="white"/>
</mask>
<g mask="url(#mask0_15_8174)">
<path d="M8 102.385C8 100.492 9.01098 98.8957 10.8671 98.5246C14.6825 97.7619 23.3371 96.7631 42.5 96.7631C61.6629 96.7631 70.3175 97.7619 74.1329 98.5246C75.989 98.8957 77 100.492 77 102.385V165.002H8V102.385Z" fill="#B1BDCE"/>
<g filter="url(#filter0_d_15_8174)">
<rect x="22" y="64" width="41" height="22" rx="2" fill="#D5DEEB"/>
</g>
<path d="M12 105.852C12 104.807 12.801 103.94 13.8439 103.873C18.0197 103.604 28.9012 103 42.5 103C56.0988 103 66.9803 103.604 71.1561 103.873C72.199 103.94 73 104.807 73 105.852V139.148C73 140.193 72.199 141.06 71.1561 141.127C66.9803 141.396 56.0988 142 42.5 142C28.9012 142 18.0197 141.396 13.8439 141.127C12.801 141.06 12 140.193 12 139.148V105.852Z" fill="#2F4551"/>
<mask id="mask1_15_8174" style="mask-type:alpha" maskUnits="userSpaceOnUse" x="12" y="103" width="61" height="39">
<path d="M12 105.852C12 104.807 12.801 103.94 13.8439 103.873C18.0197 103.604 28.9012 103 42.5 103C56.0988 103 66.9803 103.604 71.1561 103.873C72.199 103.94 73 104.807 73 105.852V139.148C73 140.193 72.199 141.06 71.1561 141.127C66.9803 141.396 56.0988 142 42.5 142C28.9012 142 18.0197 141.396 13.8439 141.127C12.801 141.06 12 140.193 12 139.148V105.852Z" fill="#2F4551"/>
</mask>
<g mask="url(#mask1_15_8174)">
<path d="M74.1387 138.54C75.2773 129.079 37 104.5 6.5 115.502C7.5 109.001 9.6 95.4 10 93C10.5 90 21.5 89.0002 30.5 87.0002C39.5 85.0002 77.5 90.5002 85.5 94.0002C91.9 96.8002 92.5 99.5002 92 100.5L74.1387 138.54Z" fill="#577084"/>
</g>
</g>
<path d="M85 111.8V113.586C85 116.576 82.5763 119 79.5864 119C78.7539 119 78.1166 118.255 78.2227 117.43C78.3561 116.392 78.5 115.055 78.5 114.116C78.5 112.366 78 109.5 78 109.5H74V107H80.2C82.851 107 85 109.149 85 111.8Z" fill="#B2BBD1"/>
<path d="M0 111.8V113.586C0 116.576 2.42374 119 5.41357 119C6.24608 119 6.88342 118.255 6.77729 117.43C6.64389 116.392 6.5 115.055 6.5 114.116C6.5 112.366 7 109.5 7 109.5H11V107H4.8C2.14903 107 0 109.149 0 111.8Z" fill="#B2BBD1"/>
<path d="M29.7612 151.5H56.7612V152.5C56.7612 154.709 54.9704 156.5 52.7612 156.5H33.7612C31.5521 156.5 29.7612 154.709 29.7612 152.5V151.5Z" fill="black"/>
<path d="M64.7567 148.487C64.9084 148.183 65.2036 147.977 65.5407 147.94L72.8896 147.123C73.4819 147.058 74 147.521 74 148.117V151.617C74 152.122 73.6245 152.547 73.124 152.609L63.8541 153.768C63.0616 153.867 62.4784 153.043 62.8356 152.329L64.7567 148.487Z" fill="white"/>
<path d="M22.2433 148.487C22.0916 148.183 21.7964 147.977 21.4593 147.94L14.1104 147.123C13.5181 147.058 13 147.521 13 148.117V151.617C13 152.122 13.3755 152.547 13.876 152.609L23.1459 153.768C23.9384 153.867 24.5216 153.043 24.1644 152.329L22.2433 148.487Z" fill="white"/>
<defs>
<filter id="filter0_d_15_8174" x="22" y="64" width="41" height="24" filterUnits="userSpaceOnUse" color-interpolation-filters="sRGB">
<feFlood flood-opacity="0" result="BackgroundImageFix"/>
<feColorMatrix in="SourceAlpha" type="matrix" values="0 0 0 0 0 0 0 0 0 0 0 0 0 0 0 0 0 0 127 0" result="hardAlpha"/>
<feOffset dy="2"/>
<feComposite in2="hardAlpha" operator="out"/>
<feColorMatrix type="matrix" values="0 0 0 0 0 0 0 0 0 0 0 0 0 0 0 0 0 0 0.25 0"/>
<feBlend mode="normal" in2="BackgroundImageFix" result="effect1_dropShadow_15_8174"/>
<feBlend mode="normal" in="SourceGraphic" in2="effect1_dropShadow_15_8174" result="shape"/>
</filter>
</defs>
</svg>
