<svg width="68" height="164" viewBox="0 0 68 164" fill="none" xmlns="http://www.w3.org/2000/svg">
<g clip-path="url(#clip0_15_8171)">
<path d="M10.2099 142.67C8.51995 143.49 7.81995 144.65 7.81995 147.29V160.91C7.81995 162.96 14.6199 163.85 33.8699 163.85C53.1199 163.85 59.9199 162.96 59.9199 160.91V147.29C59.9199 144.65 59.2299 143.49 57.5299 142.67H10.2099Z" fill="#080808"/>
<path d="M64.66 6.12V63.93H3.07996V6.12C3.07996 4.95 4.05996 3.04 6.30996 2.17C11.29 0.24 21.49 0 33.87 0C46.25 0 56.45 0.24 61.43 2.17C63.68 3.04 64.66 4.95 64.66 6.12Z" fill="white"/>
<path d="M64.66 13.9501C64.66 12.7801 63.68 10.8701 61.43 10.0001C56.45 8.07008 46.25 7.83008 33.87 7.83008C21.49 7.83008 11.29 8.07008 6.30996 10.0001C4.05996 10.8701 3.07996 12.7801 3.07996 13.9501V19.5201C3.07996 18.3501 4.05996 16.4401 6.30996 15.5701C11.29 13.6401 21.49 13.4001 33.87 13.4001C46.25 13.4001 56.45 13.6401 61.43 15.5701C63.68 16.4401 64.66 18.3501 64.66 19.5201V13.9501Z" fill="#C5E9D9"/>
<path d="M64.66 40.2997C64.66 39.1297 63.68 37.2197 61.43 36.3497C56.45 34.4197 46.25 34.1797 33.87 34.1797C21.49 34.1797 11.29 34.4197 6.30996 36.3497C4.05996 37.2197 3.07996 39.1297 3.07996 40.2997V45.8697C3.07996 44.6997 4.05996 42.7897 6.30996 41.9197C11.29 39.9897 21.49 39.7497 33.87 39.7497C46.25 39.7497 56.45 39.9897 61.43 41.9197C63.68 42.7897 64.66 44.6997 64.66 45.8697V40.2997Z" fill="#C5E9D9"/>
<path d="M64.66 51.9891V109.799H3.07996V51.9891C3.07996 50.8191 4.05996 48.9091 6.30996 48.0391C11.29 46.1091 21.49 45.8691 33.87 45.8691C46.25 45.8691 56.45 46.1091 61.43 48.0391C63.68 48.9091 64.66 50.8191 64.66 51.9891Z" fill="#2D473C"/>
<path d="M65.2799 100.311C62.4999 100.311 61.9099 101.331 61.9099 102.761V108.051C61.9099 108.331 59.7699 108.491 58.2599 108.491C56.7499 108.491 57.1499 111.431 58.6999 111.431H64.0199C66.2799 111.431 67.7499 109.601 67.7499 106.981V101.861C67.7499 101.301 67.7499 100.311 65.2899 100.311H65.2799Z" fill="#01FE91"/>
<path d="M2.46 100.311C5.24 100.311 5.83 101.331 5.83 102.761V108.051C5.83 108.331 7.97 108.491 9.48 108.491C10.99 108.491 10.59 111.431 9.04 111.431H3.73C1.47 111.431 0 109.601 0 106.981V101.861C0 101.301 0 100.311 2.46 100.311Z" fill="#01FE91"/>
<path d="M10.2099 136.08C8.51995 136.9 7.81995 138.06 7.81995 140.7V154.32C7.81995 156.37 14.6199 157.26 33.8699 157.26C53.1199 157.26 59.9199 156.37 59.9199 154.32V140.7C59.9199 138.06 59.2299 136.9 57.5299 136.08H10.2099Z" fill="#262626"/>
<path d="M61.71 126.96V148.67C61.71 150.72 54.44 152.6 33.87 152.6C13.3 152.6 6.03003 150.72 6.03003 148.67V126.96C6.03003 124.32 6.77003 123.16 8.58003 122.34V61.5C8.58003 60.34 8.77003 59.3 10.82 58.86C14.77 57.89 23.47 56.9102 33.87 56.9102C44.27 56.9102 52.97 57.89 56.92 58.86C58.97 59.3 59.16 60.34 59.16 61.5V122.34C60.97 123.16 61.71 124.32 61.71 126.96Z" fill="#00A15B"/>
<path d="M59.16 79.3402C59.16 78.1802 58.97 77.1402 56.92 76.7002C52.97 75.7302 44.28 75.2502 33.87 75.2502C23.46 75.2502 14.77 75.7302 10.82 76.7002C8.76996 77.1402 8.57996 78.1802 8.57996 79.3402V61.5C8.57996 60.34 8.76996 59.3 10.82 58.86C14.77 57.89 23.47 56.9102 33.87 56.9102C44.27 56.9102 52.97 57.89 56.92 58.86C58.97 59.3 59.16 60.34 59.16 61.5V79.3402Z" fill="#01FE91"/>
<path d="M40.4101 147.109H27.3401C26.3847 147.109 25.6101 147.884 25.6101 148.839V152.589C25.6101 153.545 26.3847 154.319 27.3401 154.319H40.4101C41.3656 154.319 42.1401 153.545 42.1401 152.589V148.839C42.1401 147.884 41.3656 147.109 40.4101 147.109Z" fill="white"/>
<path d="M42.1301 148.729V149.719C42.1301 148.829 41.3101 148.099 40.2901 148.099H27.4401C26.4301 148.099 25.6001 148.829 25.6001 149.719V148.729C25.6001 147.839 26.4201 147.109 27.4401 147.109H40.2901C41.3001 147.109 42.1301 147.829 42.1301 148.729Z" fill="#D3AABA"/>
<path d="M48.9699 146.95C48.6299 146.03 50.6599 143.2 53.8299 142.69C56.7099 142.22 59.0899 142.28 59.6099 143.18C60.1499 144.12 59.8799 145.91 59.4799 146.39C59.0799 146.87 52.1599 147.33 50.7699 147.33C49.6899 147.33 49.1099 147.33 48.9699 146.95Z" fill="#FCFFF3"/>
<path d="M18.76 146.95C19.1 146.03 17.07 143.2 13.9 142.69C11.02 142.22 8.63998 142.28 8.11998 143.18C7.57998 144.12 7.84998 145.91 8.24998 146.39C8.64998 146.87 15.57 147.33 16.96 147.33C18.04 147.33 18.62 147.33 18.76 146.95Z" fill="#FCFFF3"/>
<path d="M55.01 88.9706V108.921C55.01 110.211 53.97 111.261 52.68 111.261H15.06C13.77 111.261 12.73 110.211 12.73 108.921V88.9706C12.73 87.6906 13.77 86.6406 15.06 86.6406H52.68C53.97 86.6406 55.01 87.6906 55.01 88.9706Z" fill="#BBD99C"/>
<path d="M46.5799 133.591C47.8799 132.751 53.7799 114.611 54.4099 113.521C54.5599 113.261 55.0099 113.031 55.0099 114.121C55.0099 118.581 55.2699 129.041 55.0099 129.931C54.4599 131.761 44.3999 144.791 44.3999 144.791C44.3999 144.791 45.2099 134.901 45.4399 134.601C45.6699 134.301 46.5899 133.611 46.5899 133.611L46.5799 133.591Z" fill="#01FE91"/>
<path d="M21.1601 133.591C19.8601 132.751 13.9601 114.611 13.3301 113.521C13.1801 113.261 12.7301 113.031 12.7301 114.121C12.7301 118.581 12.4701 129.041 12.7301 129.931C13.2801 131.761 23.3401 144.791 23.3401 144.791C23.3401 144.791 22.5301 134.901 22.3001 134.601C22.0701 134.301 21.1501 133.611 21.1501 133.611L21.1601 133.591Z" fill="#01FE91"/>
<path d="M47.1201 133.831C47.1201 135.631 46.3301 140.371 45.1701 143.431C44.7901 144.411 44.2401 145.231 43.3101 145.441C42.1301 145.701 37.9901 145.711 33.8701 145.711C29.7501 145.711 25.6101 145.701 24.4301 145.441C23.5001 145.231 22.9501 144.411 22.5701 143.431C21.4101 140.371 20.6201 135.631 20.6201 133.831C20.6201 132.781 20.8801 131.631 22.3901 131.291C24.1901 130.881 29.5301 130.471 33.8701 130.471C38.2101 130.471 43.5501 130.881 45.3501 131.291C46.8601 131.631 47.1201 132.781 47.1201 133.831Z" fill="#FCFFF3"/>
<path d="M41.84 142.669C41.32 142.669 40.89 142.249 40.88 141.729L40.78 135.089C40.78 134.559 41.2 134.119 41.74 134.119H42.77C43.35 134.119 43.8 134.639 43.72 135.209L42.78 141.849C42.71 142.319 42.31 142.669 41.83 142.669H41.84Z" fill="black"/>
<path d="M38.5099 135.669C38.5099 134.808 37.8137 134.109 36.9549 134.109C36.0961 134.109 35.3999 134.808 35.3999 135.669V141.099C35.3999 141.961 36.0961 142.659 36.9549 142.659C37.8137 142.659 38.5099 141.961 38.5099 141.099V135.669Z" fill="black"/>
<path d="M25.9 142.669C26.42 142.669 26.85 142.249 26.86 141.729L26.96 135.089C26.96 134.559 26.54 134.119 26 134.119H24.97C24.39 134.119 23.94 134.639 24.02 135.209L24.96 141.849C25.03 142.319 25.43 142.669 25.91 142.669H25.9Z" fill="black"/>
<path d="M29.2301 141.11C29.2301 141.971 29.9263 142.67 30.7851 142.67C31.6439 142.67 32.3401 141.971 32.3401 141.11V135.68C32.3401 134.818 31.6439 134.12 30.7851 134.12C29.9263 134.12 29.2301 134.818 29.2301 135.68V141.11Z" fill="black"/>
<path d="M52.68 86.6406H15.06C13.77 86.6406 12.73 87.6906 12.73 88.9706V92.4806C26.97 91.2206 45.73 97.9706 55.01 106.011V88.9706C55.01 87.6906 53.97 86.6406 52.68 86.6406Z" fill="#EBECEA"/>
</g>
<defs>
<clipPath id="clip0_15_8171">
<rect width="67.74" height="163.85" fill="white"/>
</clipPath>
</defs>
</svg>
