<svg width="68" height="108" viewBox="0 0 68 108" fill="none" xmlns="http://www.w3.org/2000/svg">
<g clip-path="url(#clip0_18_354)">
<path d="M63.1534 14.6213H56.4761C54.3688 14.6213 52.6605 16.3296 52.6605 18.4369V37.0968C52.6605 39.2041 54.3688 40.9124 56.4761 40.9124H63.1534C65.2607 40.9124 66.969 39.2041 66.969 37.0968V18.4369C66.969 16.3296 65.2607 14.6213 63.1534 14.6213Z" fill="#262626"/>
<path d="M39.9461 94.999L66.7207 89.3801C66.7207 89.3801 66.8121 96.9852 66.8121 98.8669C66.8121 100.749 66.0412 101.65 65.2963 101.951C63.3232 102.774 45.0554 107.387 33.9614 107.387C22.8674 107.387 4.59952 102.774 2.62638 101.951C1.88156 101.65 1.1106 100.762 1.1106 98.8669C1.1106 96.9721 1.20207 89.3801 1.20207 89.3801L27.9766 94.999H39.9461Z" fill="#080808"/>
<path d="M11.2637 14.6213H4.58635C2.47906 14.6213 0.770752 16.3296 0.770752 18.4369V37.0968C0.770752 39.2041 2.47906 40.9124 4.58635 40.9124H11.2637C13.371 40.9124 15.0793 39.2041 15.0793 37.0968V18.4369C15.0793 16.3296 13.371 14.6213 11.2637 14.6213Z" fill="#262626"/>
<path d="M33.9612 64.5537H34.1834C34.1834 64.5537 35.2026 71.2572 41.0436 68.6437C46.8716 66.0303 60.0171 54.5966 62.6175 49.8401C65.2178 45.0837 64.2116 33.2057 55.8618 33.2057C52.9739 33.2057 40.2596 34.9698 34.0788 34.9698" fill="#191919"/>
<path d="M34.1836 64.5537H33.9614C33.9614 64.5537 32.9422 71.2572 27.1012 68.6437C21.2602 66.0303 8.12773 54.5966 5.52737 49.8401C2.92701 45.0837 3.93318 33.2057 12.2831 33.2057C15.1709 33.2057 27.8852 34.9698 34.066 34.9698" fill="#191919"/>
<path d="M39.3973 58.8413C52.0855 58.8413 54.4768 51.2363 54.4768 47.1332C54.4768 45.0947 53.536 44.559 50.7265 44.559C41.6187 44.559 38.561 45.9179 38.561 45.9179L39.4104 58.8413H39.3973Z" fill="black"/>
<path d="M55.0517 73.2812H13.4851V80.5074H55.0517V73.2812Z" fill="#262626"/>
<path d="M28.5254 58.8413C15.8372 58.8413 13.4459 51.2363 13.4459 47.1332C13.4459 45.0947 14.3868 44.559 17.1962 44.559C26.304 44.559 29.3617 45.9179 29.3617 45.9179L28.5123 58.8413H28.5254Z" fill="black"/>
<path d="M63.1534 63.7412H56.4761C54.3688 63.7412 52.6605 65.4495 52.6605 67.5568V86.2167C52.6605 88.324 54.3688 90.0323 56.4761 90.0323H63.1534C65.2607 90.0323 66.969 88.324 66.969 86.2167V67.5568C66.969 65.4495 65.2607 63.7412 63.1534 63.7412Z" fill="#262626"/>
<path d="M11.2637 63.7412H4.58635C2.47906 63.7412 0.770752 65.4495 0.770752 67.5568V86.2167C0.770752 88.324 2.47906 90.0323 4.58635 90.0323H11.2637C13.371 90.0323 15.0793 88.324 15.0793 86.2167V67.5568C15.0793 65.4495 13.371 63.7412 11.2637 63.7412Z" fill="#262626"/>
<path d="M54.6728 5.56709C54.137 8.12824 51.7327 17.7849 50.831 19.5097C49.9163 21.2607 44.2321 21.9402 33.9614 21.9402C23.6906 21.9402 18.0195 21.2607 17.1048 19.5097C16.2031 17.7849 13.7988 8.12824 13.25 5.56709C12.479 1.93442 12.6619 0.000488281 16.177 0.000488281C21.2601 0.000488281 25.0626 0.941322 33.9614 0.941322C42.8601 0.941322 46.6626 0.000488281 51.7457 0.000488281C55.2738 0.000488281 55.4437 1.93442 54.6728 5.56709Z" fill="#EAFF00"/>
<path d="M43.8923 8.85852H23.9127C22.058 8.85852 20.5544 10.3621 20.5544 12.2168V21.2984C20.5544 23.1531 22.058 24.6567 23.9127 24.6567H43.8923C45.747 24.6567 47.2506 23.1531 47.2506 21.2984V12.2168C47.2506 10.3621 45.747 8.85852 43.8923 8.85852Z" fill="#262626"/>
<path d="M66.8121 93.3393C66.8121 95.234 66.0412 96.1226 65.2963 96.4231C63.3232 97.2464 45.0554 101.859 33.9614 101.859C22.8674 101.859 4.59952 97.2464 2.62638 96.4231C1.88156 96.1226 1.1106 95.234 1.1106 93.3393C1.1106 91.4446 1.20207 83.8526 1.20207 83.8526L27.9766 89.4714C27.1665 80.821 24.3178 50.453 24.3178 49.5775C24.3178 48.5582 25.2325 47.7219 25.2325 47.1601C25.2325 46.5982 20.5545 36.1183 20.5545 34.9162C20.5545 33.714 27.1665 18.6476 28.447 18.6476H39.4757C40.7563 18.6476 47.3682 33.7009 47.3682 34.9162C47.3682 36.1314 42.6902 46.5982 42.6902 47.1601C42.6902 47.7219 43.6049 48.5582 43.6049 49.5775C43.6049 50.453 40.7563 80.821 39.9461 89.4714L66.7207 83.8526C66.7207 83.8526 66.8121 91.4576 66.8121 93.3393Z" fill="#EAFF00"/>
<path d="M67.7399 77.2002C67.7399 75.9517 66.7278 74.9396 65.4793 74.9396C64.2308 74.9396 63.2187 75.9517 63.2187 77.2002V92.3973C63.2187 93.6458 64.2308 94.6579 65.4793 94.6579C66.7278 94.6579 67.7399 93.6458 67.7399 92.3973V77.2002Z" fill="white"/>
<path d="M-0.000170231 92.3845C-0.000170231 93.633 1.01194 94.6451 2.26044 94.6451C3.50895 94.6451 4.52106 93.633 4.52106 92.3845L4.52106 77.1875C4.52106 75.939 3.50895 74.9268 2.26044 74.9268C1.01194 74.9268 -0.000170231 75.939 -0.000170231 77.1875L-0.000170231 92.3845Z" fill="white"/>
<path d="M38.5478 56.9347L35.9605 88.8185C35.8951 89.5111 35.8037 89.6548 35.3071 89.6548H32.6153C32.1187 89.6548 32.0273 89.5111 31.9619 88.8185L29.3746 56.9347C29.3093 56.0984 29.8581 55.7718 30.4069 55.6019C30.9558 55.4451 32.4585 55.3928 33.9612 55.3928C35.4639 55.3928 36.9666 55.4451 37.5155 55.6019C38.0643 55.7718 38.6131 56.0984 38.5478 56.9347Z" fill="#C7D52C"/>
<path d="M37.6985 23.2206H30.8121C29.7729 23.2206 28.9305 24.063 28.9305 25.1022V35.6344C28.9305 36.6736 29.7729 37.516 30.8121 37.516H37.6985C38.7377 37.516 39.5802 36.6736 39.5802 35.6344V25.1022C39.5802 24.063 38.7377 23.2206 37.6985 23.2206Z" fill="#377A1F"/>
<path d="M33.9093 45.1082H38.4436L41.3314 39.3978H26.4872L29.375 45.1082H33.9093Z" fill="#377A1F"/>
<path d="M43.1346 33.5326C43.1346 38.6027 43.3829 39.9094 33.9615 39.9094C24.5401 39.9094 24.7883 38.6027 24.7883 33.5326C24.7883 28.4626 28.8914 24.3595 33.9615 24.3595C39.0315 24.3595 43.1346 28.4626 43.1346 33.5326Z" fill="white"/>
<path d="M33.9613 38.2084C39.358 38.2084 40.3642 32.7725 39.1751 32.7725C37.986 32.7725 36.9014 33.5696 33.9613 33.5696C31.0212 33.5696 29.9366 32.7725 28.7475 32.7725C27.5584 32.7725 28.5646 38.2084 33.9613 38.2084Z" fill="#262626"/>
<path d="M32.0406 41.9854H35.8823C37.8293 41.9854 39.3974 43.5665 39.3974 45.5004V46.3367C39.3974 46.781 39.0446 47.1338 38.6003 47.1338H29.3226C28.8783 47.1338 28.5255 46.781 28.5255 46.3367V45.5004C28.5255 43.5534 30.1066 41.9854 32.0406 41.9854Z" fill="white"/>
<path d="M44.5456 35.4109C44.5456 35.4109 44.415 37.2142 44.0491 37.8544C43.1997 39.2918 40.129 39.3964 33.9613 39.3964C27.8066 39.3964 24.7228 39.2918 23.8734 37.8544C23.4945 37.2142 23.3769 35.4109 23.3769 35.4109" stroke="#191919" stroke-width="3.39745" stroke-miterlimit="10" stroke-linecap="round"/>
<path d="M33.9612 39.3978V48.6232" stroke="#191919" stroke-width="3.39745" stroke-miterlimit="10" stroke-linecap="round"/>
</g>
<defs>
<clipPath id="clip0_18_354">
<rect width="67.74" height="107.386" fill="white"/>
</clipPath>
</defs>
</svg>
