<svg width="85" height="137" viewBox="0 0 85 137" fill="none" xmlns="http://www.w3.org/2000/svg">
<g clip-path="url(#clip0_15_8176)">
<path d="M77.7386 47.3856V64.0655C76.6484 64.4627 75.5815 64.7547 74.6432 64.9104C75.3908 65.7592 76.4576 66.7404 77.7386 67.4607V116.885C77.7386 124.676 60.2176 136.162 42.502 136.162C24.7863 136.162 7.26147 124.676 7.26147 116.885V67.4646C8.54634 66.7443 9.61318 65.7592 10.3607 64.9104C9.42239 64.7547 8.35167 64.4626 7.26147 64.0616V47.3856C7.26147 32.0022 8.04018 13.5078 42.502 13.5078C76.9637 13.5078 77.7386 32.0022 77.7386 47.3856Z" fill="#080808"/>
<path d="M77.7386 39.6297V64.0656C76.6484 64.4627 75.5815 64.7548 74.6432 64.9105C75.3908 65.7593 76.4576 66.7405 77.7386 67.4608V109.133C77.7386 116.92 60.2176 128.406 42.502 128.406C24.7863 128.406 7.26147 116.92 7.26147 109.133V67.4647C8.54634 66.7444 9.61318 65.7593 10.3607 64.9105C9.42239 64.7548 8.35167 64.4627 7.26147 64.0617V39.6297C7.26147 24.2502 8.04018 5.75586 42.502 5.75586C76.9637 5.75586 77.7386 24.2502 77.7386 39.6297Z" fill="#262626"/>
<path d="M84.7818 56.9976C83.8357 54.9418 80.6196 53.7738 77.7384 54.6187V33.8738C77.7384 18.4943 76.9597 0 42.5018 0C8.0439 0 7.2613 18.4943 7.2613 33.8738V54.6148C4.38007 53.7738 1.16401 54.9418 0.217874 56.9976C-0.611451 58.8042 1.03163 60.7082 3.41448 62.2033C4.58643 62.9431 5.93749 63.5855 7.2613 64.0644C8.35149 64.4654 9.42222 64.7575 10.3606 64.9132C9.613 65.762 8.54617 66.7471 7.2613 67.4674V103.378C7.2613 111.165 24.7823 122.651 42.5018 122.651C60.2213 122.651 77.7384 111.165 77.7384 103.378V67.4635C76.4574 66.7432 75.3906 65.762 74.643 64.9132C75.5813 64.7575 76.6482 64.4654 77.7384 64.0683C79.0622 63.5855 80.4132 62.9431 81.5852 62.2033C83.968 60.7082 85.6111 58.8042 84.7818 56.9976Z" fill="#E90567"/>
<path d="M68.9623 62.7073C68.9623 62.7073 67.3621 83.9272 54.93 117.945C54.1513 120.071 52.2863 121.605 50.0592 121.99C47.579 122.419 45.0404 122.656 42.5018 122.656C39.9632 122.656 37.4285 122.419 34.9483 121.994C32.7173 121.609 30.8523 120.075 30.0775 117.953C17.6376 83.9349 16.0413 62.7151 16.0413 62.7151L23.2794 49.0332C23.2794 49.0332 18.3307 45.128 19.8453 38.871C21.3598 32.618 28.0723 11.2853 28.9133 7.92904C29.7504 4.5728 35.9684 4.93101 42.5057 4.93101C49.043 4.93101 55.261 4.5728 56.102 7.92904C56.9391 11.2853 63.6515 32.618 65.1661 38.871C66.6807 45.128 61.7359 49.0332 61.7359 49.0332L68.9701 62.7151L68.9623 62.7073Z" fill="#F862A2"/>
<path d="M66.7664 41.9487C66.4354 39.3673 64.6911 37.6035 60.5912 37.6035H24.4124C20.3125 37.6035 18.5643 39.3673 18.2372 41.9487C17.404 48.4743 15.9323 60.2328 15.9323 62.016C15.9323 64.504 19.5844 65.3411 21.0172 65.4541C24.72 65.7461 32.7251 66.2678 42.5018 66.2678C52.2785 66.2678 60.2836 65.7461 63.9864 65.4541C65.4153 65.3411 69.0714 64.504 69.0714 62.016C69.0714 60.2328 67.5996 48.4743 66.7664 41.9487Z" fill="#FFB1D2"/>
<mask id="mask0_15_8176" style="mask-type:alpha" maskUnits="userSpaceOnUse" x="15" y="37" width="55" height="30">
<path d="M66.7664 41.9487C66.4354 39.3673 64.6911 37.6035 60.5912 37.6035H24.4124C20.3125 37.6035 18.5643 39.3673 18.2372 41.9487C17.404 48.4743 15.9323 60.2328 15.9323 62.016C15.9323 64.504 19.5844 65.3411 21.0172 65.4541C24.72 65.7461 32.7251 66.2678 42.5018 66.2678C52.2785 66.2678 60.2836 65.7461 63.9864 65.4541C65.4153 65.3411 69.0714 64.504 69.0714 62.016C69.0714 60.2328 67.5996 48.4743 66.7664 41.9487Z" fill="white"/>
</mask>
<g mask="url(#mask0_15_8176)">
<path d="M11.5 50.0009C32 39.5 70.5 52.9992 77 67.5C76 61.6664 72.9 42.3 70.5 31.5C67.5 18 66.5 26.0001 57.5 22.0001C48.5 18.0001 51.5 19.5001 46.5 19.5001C42.5 19.5001 21.5 26.5001 11.5 30.0001V50.0009Z" fill="white"/>
</g>
<path d="M13.199 93.3861C12.5488 93.9896 12.7045 103.272 13.0822 104.899C13.7168 107.636 19.6311 110.502 21.7414 110.354C23.8517 110.206 23.3261 108.213 22.1035 105.261C21.0873 102.808 18.2684 97.1044 16.1659 94.2154C15.3366 93.0746 13.9933 92.6463 13.199 93.3822V93.3861Z" fill="white"/>
<path opacity="0.64" d="M71.8007 93.3861C72.451 93.9896 72.2952 103.272 71.9175 104.899C71.2829 107.636 65.3686 110.502 63.2583 110.354C61.148 110.206 61.6736 108.213 62.8962 105.261C63.9124 102.808 66.7313 97.1044 68.8338 94.2154C69.6632 93.0746 71.0064 92.6463 71.8007 93.3822V93.3861Z" fill="white"/>
<path opacity="0.1" d="M19.3002 13.041C14.3204 13.041 14.1919 16.4518 14.0985 18.4102C13.9194 22.2181 13.8259 36.9435 14.5462 37.3056C15.2665 37.6677 21.1146 18.9631 21.613 16.0663C21.9011 14.396 21.7298 13.041 19.2964 13.041H19.3002Z" fill="black"/>
<path opacity="0.64" d="M71.8007 93.3861C72.451 93.9896 72.2952 103.272 71.9175 104.899C71.2829 107.636 65.3686 110.502 63.2583 110.354C61.148 110.206 61.6736 108.213 62.8962 105.261C63.9124 102.808 66.7313 97.1044 68.8338 94.2154C69.6632 93.0746 71.0064 92.6463 71.8007 93.3822V93.3861Z" fill="white"/>
<path opacity="0.1" d="M65.6996 13.041C70.6795 13.041 70.8079 16.4518 70.9014 18.4102C71.0805 22.2181 71.1739 36.9435 70.4536 37.3056C69.7333 37.6677 63.8852 18.9631 63.3868 16.0663C63.0987 14.396 63.27 13.041 65.7035 13.041H65.6996Z" fill="black"/>
</g>
<defs>
<clipPath id="clip0_15_8176">
<rect width="85" height="136.165" fill="white"/>
</clipPath>
</defs>
</svg>
