<svg width="85" height="134" viewBox="0 0 85 134" fill="none" xmlns="http://www.w3.org/2000/svg">
<g clip-path="url(#clip0_15_8173)">
<path d="M73.4215 69.2654C73.1044 70.3795 73.6615 71.3051 74.5614 72.0421V128.503C74.5614 133.242 67.2852 133.962 42.5085 133.962C17.7319 133.962 10.4557 133.242 10.4557 128.503V72.0336C11.3556 71.2965 11.9126 70.3795 11.587 69.2654C11.587 69.2654 11.587 69.2654 11.5698 69.2482C11.227 69.2654 10.8585 69.2825 10.4557 69.3082V40.5721C10.4557 39.2523 15.6578 20.7319 17.3976 19.6178C20.2172 17.8009 31.5728 16.1211 42.5085 16.1211C53.4442 16.1211 64.8084 17.7923 67.628 19.6178C69.3592 20.7319 74.5699 39.2608 74.5699 40.5721V69.3082C74.1671 69.2911 73.79 69.274 73.4558 69.2482L73.4387 69.2654H73.4215Z" fill="#080808"/>
<path d="M74.5528 31.419V69.2996C74.15 69.2825 73.7729 69.2653 73.4387 69.2396L73.4215 69.2568C73.1044 70.3709 73.6615 71.2965 74.5614 72.0335V119.916C74.5614 124.655 67.2852 124.809 42.5085 124.809C17.7319 124.809 10.4557 124.655 10.4557 119.916V72.0335C11.3556 71.2965 11.9126 70.3795 11.587 69.2653C11.587 69.2653 11.587 69.2653 11.5698 69.2482C11.227 69.2653 10.8585 69.2825 10.4557 69.3082V31.4276C10.4557 30.1077 15.6578 11.5874 17.3976 10.4732C20.2172 8.65634 31.5728 6.97656 42.5085 6.97656C53.4442 6.97656 64.8084 8.64777 67.628 10.4732C69.3592 11.5874 74.5699 30.1163 74.5699 31.4276L74.5528 31.419Z" fill="#262626"/>
<path d="M73.4216 69.2652C73.1045 70.3793 73.6616 71.3049 74.5614 72.042C75.05 72.4448 75.6413 72.7876 76.2326 73.0704V113.291C76.2326 116.007 75.8727 117.122 74.5614 117.842C74.1329 118.073 73.6101 118.27 72.9588 118.459C70.2249 119.264 68.5794 119.924 42.5086 119.924C16.4378 119.924 14.7923 119.273 12.0584 118.459C11.4071 118.27 10.8843 118.073 10.4558 117.842C9.13595 117.122 8.776 116.007 8.776 113.291V73.0704C9.37592 72.7876 9.96727 72.4362 10.4558 72.042C11.3557 71.3049 11.9127 70.3879 11.5871 69.2738C11.5871 69.2738 11.5871 69.2738 11.5699 69.2566C11.2271 69.2738 10.8586 69.2909 10.4558 69.3166C9.93299 69.3423 9.36735 69.3595 8.776 69.3595V26.5252C8.776 25.2054 14.2524 6.68503 16.0779 5.57089C19.0518 3.75399 30.9987 2.07422 42.5086 2.07422C54.0185 2.07422 65.974 3.74542 68.9393 5.57089C70.7648 6.68503 76.2412 25.214 76.2412 26.5252V69.3509C75.6499 69.3509 75.0842 69.3252 74.57 69.308C74.1672 69.2909 73.7901 69.2738 73.4559 69.248L73.4387 69.2652H73.4216Z" fill="#191919"/>
<path d="M81.4691 68.965C81.2549 69.0079 81.0235 69.0507 80.7835 69.085C79.378 69.3078 77.7325 69.3592 76.2241 69.3421C75.6328 69.3421 75.0671 69.3164 74.5529 69.2993C74.1501 69.2821 73.773 69.265 73.4388 69.2393L73.4217 69.2564C73.1046 70.3705 73.6616 71.2961 74.5615 72.0332C75.05 72.436 75.6414 72.7788 76.2327 73.0616V111.216C76.2327 113.933 75.8728 115.047 74.5615 115.767C74.133 115.999 73.6102 116.196 72.9589 116.384C70.2249 117.19 68.5795 117.85 42.5087 117.85C16.4379 117.85 14.7924 117.199 12.0585 116.384C11.4071 116.196 10.8844 115.999 10.4558 115.767C9.13602 115.047 8.77607 113.933 8.77607 111.216V73.0616C9.37599 72.7788 9.96733 72.4274 10.4558 72.0332C11.3557 71.2961 11.9128 70.3791 11.5871 69.265C11.5871 69.265 11.5871 69.265 11.57 69.2478C11.2272 69.265 10.8586 69.2821 10.4558 69.3078C9.93305 69.3335 9.36742 69.3507 8.77607 69.3507C7.2677 69.3678 5.62221 69.3164 4.21668 69.0936C3.98528 69.0593 3.75388 69.0164 3.53106 68.9736C0.677156 68.3651 -0.282715 66.2311 0.0772365 64.1399C0.360056 62.4345 3.7196 60.6176 8.7675 60.5061V24.451C8.7675 23.1312 14.2439 4.61081 16.0694 3.49667C19.0347 1.67977 30.9817 0 42.5001 0C54.0186 0 65.9655 1.6712 68.9308 3.49667C70.7563 4.61081 76.2327 23.1397 76.2327 24.451V60.489C81.2892 60.6004 84.6401 62.4173 84.9315 64.1228C85.2829 66.2225 84.323 68.3565 81.4777 68.9564L81.4691 68.965Z" fill="#F6CB0B"/>
<path d="M76.2326 73.0705V111.217C76.2326 113.934 75.8726 115.048 74.5614 115.768C74.1328 115.999 73.6015 116.196 72.9501 116.385C70.2248 117.19 68.5793 117.85 42.4999 117.85C16.4206 117.85 14.7751 117.19 12.0498 116.385C11.3984 116.196 10.8671 115.999 10.4385 115.768C9.12729 115.048 8.76733 113.934 8.76733 111.217V73.0705C9.36725 72.7791 9.95003 72.4363 10.4385 72.0421C11.3384 71.305 11.8955 70.3794 11.5784 69.2653C11.5784 69.2653 11.5698 69.2653 11.5612 69.2481L16.4206 68.1426L42.4999 68.6482L68.5793 68.1426L73.4386 69.2481L73.4215 69.2653C73.1044 70.3794 73.6615 71.305 74.5614 72.0421C75.0499 72.4363 75.6326 72.7791 76.2326 73.0705Z" fill="#EDA614"/>
<path d="M72.5388 95.3367C66.4882 95.3367 60.8661 98.2592 60.8661 102.861C60.8661 103.23 60.9604 104.001 61.5003 104.198C64.1057 105.158 72.6331 103.264 73.5758 102.321C74.33 101.567 73.9101 97.1793 73.8072 96.4423C73.6958 95.6367 73.3273 95.3281 72.5474 95.3281L72.5388 95.3367Z" fill="white"/>
<path d="M12.4612 95.3367C18.5118 95.3367 24.1339 98.2592 24.1339 102.861C24.1339 103.23 24.0396 104.001 23.4997 104.198C20.8943 105.158 12.3669 103.264 11.4242 102.321C10.67 101.567 11.0899 97.1793 11.1928 96.4423C11.3042 95.6367 11.6727 95.3281 12.4526 95.3281L12.4612 95.3367Z" fill="white"/>
<path d="M67.6966 69.3495C65.7255 76.0772 59.7606 93.6891 58.9807 95.9431C58.4407 97.5028 57.318 97.7942 55.184 97.7942H29.8332C27.6992 97.7942 26.5765 97.5114 26.0365 95.9431C25.2566 93.6891 19.2831 76.0772 17.3206 69.3495C17.3206 69.3495 33.9555 61.9876 34.5468 61.7391C35.1382 61.4905 42.5172 65.7071 42.5172 65.7071C42.5172 65.7071 49.8962 61.4905 50.4875 61.7391C51.0789 61.9876 67.7138 69.3495 67.7138 69.3495H67.6966Z" fill="#F5DB81"/>
<path d="M68.5536 67.2676C68.0908 63.9423 65.8539 48.8672 65.3912 46.5704C64.7912 43.5965 55.5953 43.168 42.4999 43.168C29.4046 43.168 20.2172 43.5879 19.6087 46.5704C19.1459 48.8672 16.9091 63.9509 16.4463 67.2676C15.9321 70.9614 24.1338 72.6754 42.4999 72.6754C60.866 72.6754 69.0678 70.9528 68.5536 67.2676Z" fill="#E6D7AE"/>
<path d="M67.9537 63.1465C67.1139 57.4044 65.7426 48.3199 65.3912 46.5801C64.7913 43.6062 55.5954 43.1777 42.5 43.1777C29.4046 43.1777 20.2173 43.5977 19.6088 46.5801C19.446 47.3772 19.0775 49.6997 18.6404 52.5365C32.4128 51.508 55.124 51.0195 67.9537 63.1465Z" fill="#ECECEA"/>
<path d="M30.793 99.998H54.2156C55.0383 99.998 55.7154 100.667 55.7154 101.498C55.7154 105.115 52.7843 108.046 49.1677 108.046H35.8495C32.2328 108.046 29.3018 105.115 29.3018 101.498C29.3018 100.675 29.9702 99.998 30.8016 99.998H30.793Z" fill="black"/>
<path d="M68.6565 3.34241C67.8852 7.04477 66.711 11.1499 64.6713 16.1121C64.6713 16.1121 40.7517 18.3233 39.269 18.3233C37.7863 18.3233 20.003 16.1121 20.003 16.1121C17.9976 11.2271 16.8149 7.16475 16.0521 3.50524H16.0607C19.0346 1.67977 30.9815 0 42.5 0C54.0184 0 65.2798 1.5855 68.6565 3.34241Z" fill="#EDA614"/>
<path d="M42.5 12.7188C24.3053 12.7188 19.9001 14.5099 19.9001 16.6696V33.1846C19.9001 36.7412 22.7283 38.5838 42.5 38.5838C62.2716 38.5838 65.0998 36.7412 65.0998 33.1846V16.6696C65.0998 14.5099 60.6861 12.7188 42.5 12.7188Z" fill="#F5DB81"/>
<path d="M73.4388 69.2475C73.7816 69.2646 74.1501 69.2818 74.5529 69.3075C75.0757 69.3332 75.6413 69.3503 76.2241 69.3503C77.7325 69.3675 79.378 69.316 80.7835 69.0932C81.0149 69.0589 81.2463 69.0161 81.4605 68.9647C84.3144 68.3562 85.2743 66.2222 84.9144 64.131C84.623 62.4255 81.272 60.6086 76.2155 60.4972C73.3531 60.2915 71.1762 66.7707 73.4216 69.2475H73.4388Z" fill="#EDA614"/>
<path d="M83.2774 63.4961C83.7916 63.8389 83.7659 64.696 83.7574 65.0131C83.7145 66.5471 82.369 67.4813 82.1462 67.6356C80.5606 68.7068 78.2638 68.484 77.8096 67.7298C77.5096 67.2328 79.3865 65.4501 80.2607 64.7217C81.7348 63.5047 82.189 62.7762 83.2774 63.4961Z" fill="#F6CB0B"/>
<path d="M11.5613 69.2475C11.2185 69.2646 10.85 69.2818 10.4472 69.3075C9.9244 69.3332 9.35876 69.3503 8.77598 69.3503C7.26761 69.3675 5.62212 69.316 4.21659 69.0932C3.9852 69.0589 3.7538 69.0161 3.53954 68.9647C0.68564 68.3562 -0.274231 66.2222 0.0857204 64.131C0.37711 62.4255 3.72809 60.6086 8.78455 60.4972C11.647 60.2915 13.8239 66.7707 11.5785 69.2475H11.5613Z" fill="#EDA614"/>
<path d="M1.72271 63.4961C1.20849 63.8389 1.2342 64.696 1.24277 65.0131C1.28562 66.5471 2.63116 67.4813 2.85398 67.6356C4.43949 68.7068 6.73632 68.484 7.19055 67.7298C7.4905 67.2328 5.61361 65.4501 4.73945 64.7217C3.26536 63.5047 2.81113 62.7762 1.72271 63.4961Z" fill="#F6CB0B"/>
<path d="M49.8962 113.144H35.1124C33.9433 113.144 32.9956 114.092 32.9956 115.261V120.429C32.9956 121.598 33.9433 122.546 35.1124 122.546H49.8962C51.0653 122.546 52.013 121.598 52.013 120.429V115.261C52.013 114.092 51.0653 113.144 49.8962 113.144Z" fill="white"/>
<path d="M52.013 115.261V116.555C52.013 115.39 51.0617 114.438 49.8962 114.438H35.1124C33.9469 114.438 32.9956 115.39 32.9956 116.555V115.261C32.9956 114.095 33.9469 113.153 35.1124 113.153H49.8962C51.0617 113.153 52.013 114.095 52.013 115.261Z" fill="#D3AABA"/>
<path d="M23.0111 10.5501C35.9694 9.27311 49.0305 9.27311 61.9887 10.5501C63.2657 10.6786 64.4141 9.76162 64.5598 8.48465C64.7055 7.20768 63.7542 6.05926 62.443 5.9307C49.1762 4.61945 35.8151 4.61945 22.5569 5.9307C21.2456 6.05926 20.2943 7.20768 20.44 8.48465C20.5857 9.76162 21.7341 10.6786 23.0111 10.5501Z" fill="#EFD16F"/>
<path d="M38.1548 88.6609H33.5354C33.029 88.6609 32.6184 89.0715 32.6184 89.5779V94.5915C32.6184 95.098 33.029 95.5085 33.5354 95.5085H38.1548C38.6613 95.5085 39.0718 95.098 39.0718 94.5915V89.5779C39.0718 89.0715 38.6613 88.6609 38.1548 88.6609Z" fill="black"/>
<path d="M51.8244 88.6609H47.205C46.6985 88.6609 46.288 89.0715 46.288 89.5779V94.5915C46.288 95.098 46.6985 95.5085 47.205 95.5085H51.8244C52.3308 95.5085 52.7414 95.098 52.7414 94.5915V89.5779C52.7414 89.0715 52.3308 88.6609 51.8244 88.6609Z" fill="black"/>
<path d="M31.3243 81.8127H26.7049C26.1985 81.8127 25.7879 82.2233 25.7879 82.7298V87.7434C25.7879 88.2498 26.1985 88.6604 26.7049 88.6604H31.3243C31.8308 88.6604 32.2413 88.2498 32.2413 87.7434V82.7298C32.2413 82.2233 31.8308 81.8127 31.3243 81.8127Z" fill="black"/>
<path d="M44.9853 81.8127H40.3659C39.8594 81.8127 39.4489 82.2233 39.4489 82.7298V87.7434C39.4489 88.2498 39.8594 88.6604 40.3659 88.6604H44.9853C45.4917 88.6604 45.9023 88.2498 45.9023 87.7434V82.7298C45.9023 82.2233 45.4917 81.8127 44.9853 81.8127Z" fill="black"/>
<path d="M58.6549 81.8127H54.0355C53.5291 81.8127 53.1185 82.2233 53.1185 82.7298V87.7434C53.1185 88.2498 53.5291 88.6604 54.0355 88.6604H58.6549C59.1614 88.6604 59.572 88.2498 59.572 87.7434V82.7298C59.572 82.2233 59.1614 81.8127 58.6549 81.8127Z" fill="black"/>
<path d="M52.3301 21.7246H32.3357C30.9725 21.7246 29.8674 22.8297 29.8674 24.1928V30.9377C29.8674 32.3008 30.9725 33.4059 32.3357 33.4059H52.3301C53.6933 33.4059 54.7984 32.3008 54.7984 30.9377V24.1928C54.7984 22.8297 53.6933 21.7246 52.3301 21.7246Z" fill="#EDE0B7"/>
<path d="M54.8069 30.9388V28.6934C54.7727 26.208 52.7158 24.7168 47.7536 24.7168H29.8674V30.9388C29.8674 32.3015 30.973 33.4071 32.3357 33.4071H52.3301C53.6928 33.4071 54.7984 32.3015 54.7984 30.9388H54.8069Z" fill="#F0F0F0"/>
<path d="M54.8069 28.7441V30.9381C54.8069 32.3008 53.7014 33.4064 52.3387 33.4064H32.3357C30.973 33.4064 29.8674 32.3008 29.8674 30.9381V28.7441C29.8674 30.1068 30.973 31.2124 32.3357 31.2124H52.3387C53.7014 31.2124 54.8069 30.1068 54.8069 28.7441Z" fill="#1E2120"/>
</g>
<defs>
<clipPath id="clip0_15_8173">
<rect width="85" height="133.962" fill="white"/>
</clipPath>
</defs>
</svg>
