<svg width="85" height="134" viewBox="0 0 85 134" fill="none" xmlns="http://www.w3.org/2000/svg">
<g clip-path="url(#clip0_15_8172)">
<path d="M73.4227 69.2699C73.1031 70.3833 73.6598 71.3111 74.5567 72.0431V128.507C74.5567 133.239 67.2784 133.971 42.5052 133.971C17.732 133.971 10.4536 133.249 10.4536 128.507V72.0431C11.3505 71.3111 11.9072 70.3833 11.5876 69.2699C11.5876 69.2699 11.5876 69.2699 11.567 69.2493C11.2268 69.2699 10.8557 69.2905 10.4536 69.3008V40.5688C10.4536 39.2493 15.6598 20.7338 17.3918 19.6101C20.2165 17.7956 31.567 16.1152 42.5052 16.1152C53.4433 16.1152 64.8041 17.7956 67.6186 19.6101C69.3505 20.7235 74.5567 39.2493 74.5567 40.5688V69.3008C74.1546 69.2802 73.7732 69.2596 73.4433 69.2493L73.4227 69.2699Z" fill="#080808"/>
<path d="M74.5567 31.4224V69.309C74.1546 69.2883 73.7732 69.2677 73.4433 69.2574L73.4227 69.278C73.1031 70.3914 73.6598 71.3193 74.5567 72.0512V119.928C74.5567 124.659 67.2784 124.824 42.5052 124.824C17.732 124.824 10.4536 124.67 10.4536 119.928V72.0409C11.3505 71.309 11.9072 70.3811 11.5876 69.2677C11.5876 69.2677 11.5876 69.2677 11.567 69.2471C11.2268 69.2677 10.8557 69.2883 10.4536 69.2986V31.4224C10.4536 30.1028 15.6598 11.5873 17.3918 10.4636C20.2165 8.64916 31.567 6.96875 42.5052 6.96875C53.4433 6.96875 64.8041 8.64916 67.6186 10.4636C69.3505 11.577 74.5567 30.1028 74.5567 31.4224Z" fill="#262626"/>
<path d="M73.4227 69.2681C73.1032 70.3815 73.6599 71.3094 74.5568 72.0413C75.0413 72.4434 75.6289 72.7836 76.2372 73.0723V113.299C76.2372 116.021 75.8763 117.124 74.5568 117.845C74.1341 118.083 73.6083 118.268 72.9485 118.464C70.2166 119.278 68.5671 119.928 42.4949 119.928C16.4227 119.928 14.7732 119.268 12.0413 118.464C11.3918 118.268 10.866 118.083 10.4434 117.845C9.12376 117.124 8.76294 116.01 8.76294 113.289V73.062C9.36088 72.7733 9.94851 72.4331 10.4434 72.031C11.3403 71.2991 11.897 70.3712 11.5774 69.2578C11.5774 69.2578 11.5774 69.2578 11.5568 69.2372C11.2165 69.2578 10.8454 69.2785 10.4434 69.2888C9.92789 69.3094 9.35057 69.33 8.76294 69.33V26.5259C8.76294 25.2063 14.2372 6.69082 16.0619 5.56711C19.031 3.75268 30.9794 2.07227 42.4949 2.07227C54.0104 2.07227 65.9588 3.75268 68.9279 5.56711C70.7526 6.68051 76.2269 25.2063 76.2269 26.5259V69.3506C75.6392 69.3506 75.0722 69.33 74.5464 69.3094C74.1444 69.2888 73.7629 69.2681 73.433 69.2578L73.4124 69.2784L73.4227 69.2681Z" fill="#191919"/>
<path d="M42.495 6.28886C54.0104 6.28886 65.9589 1.6703 68.9279 3.49504C70.7527 4.60844 76.2269 23.1342 76.2269 24.4538V60.495C76.3919 60.495 76.5362 60.5157 76.6908 60.526L73.4331 69.2476L73.4125 69.2682C73.1754 70.0827 73.4125 70.794 73.9073 71.4023C72.4125 71.9487 70.8764 72.5054 69.2991 73.0621H15.6908C14.1135 72.5054 12.5774 71.9487 11.0826 71.4023C11.5774 70.794 11.8145 70.0827 11.5774 69.2682L11.5568 69.2476L8.29907 60.526C8.45371 60.526 8.59804 60.5054 8.76299 60.495V24.4538C8.76299 23.1342 14.2372 4.60844 16.062 3.49504C19.031 1.68061 42.495 6.28886 42.495 6.28886Z" fill="#FCFEFF"/>
<path d="M74.5566 72.0415C74.3195 71.8456 74.103 71.6291 73.9174 71.4023C72.4226 71.9487 70.8865 72.5054 69.3092 73.0621H76.2267C75.6288 72.7735 75.0412 72.4333 74.5463 72.0312L74.5566 72.0415Z" fill="#FCFEFF"/>
<path d="M76.2269 73.0724V111.217C76.2269 113.938 75.866 115.052 74.5568 115.763C74.1238 115.99 73.598 116.196 72.9485 116.382C70.2269 117.186 68.5774 117.846 42.4949 117.846C16.4124 117.846 14.7732 117.186 12.0413 116.382C11.3918 116.196 10.8557 116 10.433 115.763C9.12376 115.041 8.76294 113.928 8.76294 111.217V73.0724C9.36088 72.7837 9.94851 72.4332 10.433 72.0414C11.3299 71.2992 11.8867 70.3816 11.5774 69.2682C11.5774 69.2682 11.5774 69.2682 11.5568 69.2476L16.4124 68.1445L42.4949 68.6497L68.5774 68.1445L73.4331 69.2476L73.4124 69.2682C73.0928 70.3816 73.6495 71.3095 74.5568 72.0414C75.0413 72.4332 75.6289 72.7734 76.2269 73.0724Z" fill="#398FDB"/>
<path d="M72.67 98.1133C67.7009 98.1133 60.6288 98.8452 60.6288 103.453C60.6288 103.825 60.5566 104.309 61.103 104.567C62.5566 105.216 72.4226 104.546 73.371 103.618C73.9174 103.093 74.237 100.103 73.8968 99.1442C73.6597 98.4741 73.4535 98.1133 72.67 98.1133Z" fill="#FCFEFF"/>
<path d="M12.3298 98.1133C17.2989 98.1133 24.3711 98.8452 24.3711 103.453C24.3711 103.825 24.4432 104.309 23.8968 104.567C22.4432 105.216 12.5772 104.546 11.6288 103.618C11.0824 103.093 10.7628 100.103 11.103 99.1442C11.3401 98.4741 11.5463 98.1133 12.3298 98.1133Z" fill="#FCFEFF"/>
<path d="M42.5052 65.7003C42.5052 65.7003 35.1238 61.4838 34.5361 61.7312C33.9485 61.9786 17.3093 69.3394 17.3093 69.3394C17.3093 69.3394 17.6701 90.1186 17.6701 92.5C17.6701 96.7518 31.5 96.7518 42.5 96.7518C53.5001 96.7518 67.3299 96.7518 67.3299 92.5C67.3299 90.1186 67.6908 69.3394 67.6908 69.3394C67.6908 69.3394 51.0516 61.9786 50.464 61.7312C49.8763 61.4838 42.4949 65.7003 42.4949 65.7003" fill="#55A7F0"/>
<path d="M68.5567 67.2672C68.0928 63.9476 65.8557 48.8651 65.3917 46.5661C64.7835 43.5867 55.5979 43.1641 42.5051 43.1641C29.4124 43.1641 20.2165 43.5867 19.6185 46.5661C19.1546 48.8651 16.9175 63.9476 16.4536 67.2672C15.9381 70.9579 24.1443 72.6795 42.5051 72.6795C60.866 72.6795 69.0722 70.9579 68.5567 67.2672Z" fill="#B3BACE"/>
<path d="M67.9587 63.1449C67.1133 57.4026 65.7422 48.3201 65.3917 46.5778C64.7834 43.5985 55.5979 43.1758 42.5051 43.1758C29.4123 43.1758 20.2164 43.5985 19.6185 46.5778C19.4535 47.3717 19.0824 49.7016 18.6494 52.5366C32.4226 51.5057 55.1339 51.0211 67.969 63.1449H67.9587Z" fill="#D8DCE9"/>
<path d="M68.6598 3.33966C67.8866 7.04069 66.7113 11.1438 64.6701 16.1129C64.6701 16.1129 40.7525 18.319 39.268 18.319C37.7835 18.319 20 16.1129 20 16.1129C17.9897 11.2263 16.8144 7.1644 16.0515 3.50461C19.0206 1.69018 30.969 0.00976562 42.4948 0.00976562C54.0206 0.00976562 65.2783 1.59739 68.6495 3.34997L68.6598 3.33966Z" fill="#398FDB"/>
<path d="M42.5052 12.7227C24.3093 12.7227 19.897 14.5165 19.897 16.6711V33.1866C19.897 36.7433 22.732 38.5886 42.5052 38.5886C62.2784 38.5886 65.1135 36.7433 65.1135 33.1866V16.6711C65.1135 14.5062 60.7011 12.7227 42.5052 12.7227Z" fill="#55A7F0"/>
<path d="M73.433 69.2482C73.7732 69.2688 74.1443 69.2895 74.5464 69.2998C75.0619 69.3204 75.6392 69.341 76.2165 69.341C77.7217 69.3616 79.3711 69.2998 80.7732 69.0833C81.0103 69.042 81.2371 69.0008 81.4536 68.9596C84.299 68.3513 85.268 66.2173 84.9072 64.1245C84.6186 62.4235 81.268 60.5987 76.2062 60.4957C73.3402 60.2895 71.1649 66.774 73.4124 69.2482H73.433Z" fill="#398FDB"/>
<path d="M83.2784 63.5052C83.7939 63.8454 83.763 64.701 83.7527 65.0206C83.7114 66.5567 82.3609 67.4948 82.1444 67.6392C80.5568 68.7113 78.2681 68.4845 77.8042 67.732C77.5052 67.2371 79.3815 65.4433 80.2578 64.7216C81.732 63.5052 82.1857 62.7732 83.2681 63.4948L83.2784 63.5052Z" fill="#55A7F0"/>
<path d="M11.5567 69.2482C11.2164 69.2688 10.8453 69.2895 10.4433 69.2998C9.92779 69.3204 9.35047 69.341 8.77315 69.341C7.268 69.3616 5.61851 69.2998 4.21645 69.0833C3.97934 69.042 3.75253 69.0008 3.53604 68.9596C0.690676 68.3513 -0.278396 66.2173 0.0824285 64.1245C0.371088 62.4235 3.7216 60.5987 8.78346 60.4957C11.6494 60.2895 13.8247 66.774 11.5773 69.2482H11.5567Z" fill="#398FDB"/>
<g opacity="0.44">
<path d="M1.7216 63.5052C1.20613 63.8454 1.23706 64.701 1.24737 65.0206C1.28861 66.5567 2.63912 67.4948 2.85562 67.6392C4.44325 68.7113 6.73191 68.4845 7.19582 67.732C7.49479 67.2371 5.6185 65.4433 4.74222 64.7216C3.26799 63.5052 2.81438 62.7732 1.73191 63.4948L1.7216 63.5052Z" fill="#55A7F0"/>
</g>
<path d="M49.9794 112.927H35.0206C33.899 112.927 32.9897 113.837 32.9897 114.958V119.597C32.9897 120.719 33.899 121.628 35.0206 121.628H49.9794C51.101 121.628 52.0103 120.719 52.0103 119.597V114.958C52.0103 113.837 51.101 112.927 49.9794 112.927Z" fill="white"/>
<path d="M52.0103 114.886V116.082C52.0103 114.999 51.0619 114.123 49.8969 114.123H35.1134C33.9485 114.123 33 114.999 33 116.082V114.886C33 113.804 33.9485 112.927 35.1134 112.927H49.8969C51.0619 112.927 52.0103 113.804 52.0103 114.886Z" fill="#D3AABA"/>
<path d="M23.0104 10.5556C35.9691 9.27724 49.031 9.27724 61.9897 10.5556C63.2681 10.6793 64.4227 9.76178 64.5568 8.49374C64.7011 7.21539 63.7526 6.07106 62.4433 5.93704C49.1753 4.62776 35.8145 4.62776 22.5567 5.93704C21.2475 6.06075 20.299 7.21539 20.4433 8.49374C20.5877 9.77209 21.732 10.6896 23.0104 10.5556Z" fill="#55A7F0"/>
<path d="M55.3918 26.8246H27.9279C25.7733 26.8246 24.0207 27.5669 24.0207 28.4947C24.0207 29.4225 25.7733 30.1648 27.9279 30.1648H55.3918C57.5465 30.1648 59.299 29.4225 59.299 28.4947C59.299 27.5669 57.5465 26.8246 55.3918 26.8246Z" fill="#243042"/>
<path d="M47.8041 20.3914H56.0206C58.2681 20.3914 60.1031 22.2161 60.1031 24.4738C60.1031 26.7213 58.2784 28.5563 56.0206 28.5563H47.8041V20.3914Z" fill="#CC3C4D"/>
<path d="M47.8145 20.3914H35.5156V28.5563H47.8145V20.3914Z" fill="#FCFFFF"/>
<path d="M27.3093 20.3914H35.5258V28.5563H27.3093C25.0619 28.5563 23.2268 26.7316 23.2268 24.4738C23.2268 22.2264 25.0515 20.3914 27.3093 20.3914Z" fill="#3577ED"/>
<path d="M56.2784 26.8254C56.9279 26.8254 57.4536 26.2996 57.4536 25.6501C57.4536 25.0006 56.9279 24.4749 56.2784 24.4749H47.8145V26.8254H56.2784Z" fill="#DB6980"/>
<path d="M47.8042 24.4749H35.5156V26.8254H47.8042V24.4749Z" fill="#99A2A9"/>
<path d="M27.1856 24.4749C26.5361 24.4749 26.0103 25.0006 26.0103 25.6501C26.0103 26.2996 26.5361 26.8254 27.1856 26.8254H35.5258V24.4749H27.1856Z" fill="#5DA1F4"/>
<path d="M53.1856 99.5151H31.8145C31.3533 99.5151 30.9794 99.889 30.9794 100.35V100.36C30.9794 100.822 31.3533 101.196 31.8145 101.196H53.1856C53.6468 101.196 54.0207 100.822 54.0207 100.36V100.35C54.0207 99.889 53.6468 99.5151 53.1856 99.5151Z" fill="black"/>
<path d="M50.2062 107.732H34.7939C34.3953 107.732 34.0722 108.055 34.0722 108.454V108.691C34.0722 109.09 34.3953 109.413 34.7939 109.413H50.2062C50.6048 109.413 50.9279 109.09 50.9279 108.691V108.454C50.9279 108.055 50.6048 107.732 50.2062 107.732Z" fill="black"/>
<path d="M55.268 103.619H29.7216C29.2605 103.619 28.8866 103.993 28.8866 104.454V104.464C28.8866 104.925 29.2605 105.299 29.7216 105.299H55.268C55.7292 105.299 56.1031 104.925 56.1031 104.464V104.454C56.1031 103.993 55.7292 103.619 55.268 103.619Z" fill="black"/>
</g>
<defs>
<clipPath id="clip0_15_8172">
<rect width="85" height="133.959" fill="white"/>
</clipPath>
</defs>
</svg>
