<svg width="78" height="40" viewBox="0 0 78 40" fill="none" xmlns="http://www.w3.org/2000/svg">
<rect x="57.0809" y="19.7255" width="13.5137" height="10" fill="black"/>
<rect x="6.4054" y="19.7255" width="13.5137" height="10" fill="black"/>
<path d="M5.60429 34.036C6.07159 31.8552 7.99879 30.2972 10.229 30.2972H66.771C69.0013 30.2972 70.9285 31.8552 71.3958 34.036C72.0267 36.9803 69.7822 39.7567 66.771 39.7567H10.229C7.21788 39.7567 4.97337 36.9803 5.60429 34.036Z" fill="#080808"/>
<path d="M28.7028 10.9828L36.3892 7.89441C36.7984 8.68733 38.9576 9.28052 38.9576 9.81703C38.9576 10.171 35.9857 16.4419 35.9857 16.4419C36.6879 18.7654 41.2048 18.6123 41.2048 18.6123C41.2048 18.6123 39.3797 23.7623 39.6977 24.8146L31.3268 26.1645L20.9873 19.8225L28.7028 21.3814L28.7028 10.9828Z" fill="black"/>
<mask id="mask0_62_716" style="mask-type:alpha" maskUnits="userSpaceOnUse" x="-14" y="-7" width="56" height="37">
<path d="M38.5001 22.8647C38.5504 22.6883 41.3529 17.2798 41.3529 17.2798C39.1709 14.8817 37.8798 14.4726 35.6978 12.0745L36.3667 10.8804L39.0854 9.71096L38.2288 8.1945C38.2288 8.1945 -8.65382 -7.86864 -6.01987 -5.97686C-2.70075 -3.59296 -9.3267 12.2143 -13.0546 19.82L23.2733 29.2923C23.2733 29.2923 36.0151 27.8439 36.6399 27.6181C37.2647 27.3922 38.7825 24.9917 38.7825 24.9917C38.7825 24.9917 35.1153 25.4758 32.243 25.4758C31.0177 25.4758 23.6943 20.8295 23.6943 20.8295L31.8166 23.3477C31.8166 23.3477 38.473 22.9595 38.5001 22.8647Z" fill="black"/>
</mask>
<g mask="url(#mask0_62_716)">
<path d="M1.51844 7.42783C2.68813 2.71981 7.45296 -0.148582 12.161 1.02111L67.899 14.869C72.607 16.0387 75.4754 20.8035 74.3057 25.5115L73.654 28.1345C72.4843 32.8425 67.7195 35.7109 63.0115 34.5412L7.2735 20.6933C2.56548 19.5236 -0.302906 14.7588 0.866782 10.0508L1.51844 7.42783Z" fill="#262626"/>
<path d="M5.81552 5.45969C6.44535 2.9246 9.01103 1.38009 11.5461 2.00992L65.3169 15.369C67.852 15.9989 69.3965 18.5645 68.7666 21.0996C68.1368 23.6347 65.5711 25.1792 63.036 24.5494L9.2653 11.1903C6.73021 10.5605 5.18569 7.99478 5.81552 5.45969Z" fill="white"/>
<path d="M5.81552 5.45969C6.44535 2.9246 9.01103 1.38009 11.5461 2.00992L65.3169 15.369C67.852 15.9989 69.3965 18.5645 68.7666 21.0996C68.1368 23.6347 65.5711 25.1792 63.036 24.5494L9.2653 11.1903C6.73021 10.5605 5.18569 7.99478 5.81552 5.45969Z" fill="#5ADDF8"/>
<mask id="mask1_62_716" style="mask-type:alpha" maskUnits="userSpaceOnUse" x="5" y="1" width="64" height="24">
<path d="M5.81552 5.45969C6.44535 2.9246 9.01103 1.38009 11.5461 2.00992L65.3169 15.369C67.852 15.9989 69.3965 18.5645 68.7666 21.0996C68.1368 23.6347 65.5711 25.1792 63.036 24.5494L9.2653 11.1903C6.73021 10.5605 5.18569 7.99478 5.81552 5.45969Z" fill="#0051E6"/>
</mask>
<g mask="url(#mask1_62_716)">
<path d="M35.6866 -16.6919L42.7871 -9.82999L14.5636 19.445L7.46312 12.5831L35.6866 -16.6919Z" fill="white"/>
<path d="M49.6053 -3.27307L56.0262 2.9172L27.7945 32.2007L21.3736 26.0104L49.6053 -3.27307Z" fill="white"/>
<path d="M62.8362 9.48267L67.3836 13.8668L39.1518 43.1502L34.6044 38.7662L62.8362 9.48267Z" fill="white"/>
</g>
<path d="M63.2804 23.5658L63.036 24.5494L9.2653 11.1903L9.50967 10.2067L63.2804 23.5658ZM67.783 20.8553C68.2779 18.8634 67.0643 16.8475 65.0725 16.3526L11.3017 2.99353C9.30989 2.49866 7.294 3.71221 6.79913 5.70407C6.30426 7.69592 7.51781 9.71181 9.50967 10.2067L9.2653 11.1903C6.73021 10.5605 5.18569 7.99478 5.81552 5.45969C6.44535 2.9246 9.01103 1.38009 11.5461 2.00992L65.3169 15.369L65.5517 15.4335C67.9465 16.159 69.3768 18.6438 68.7666 21.0996C68.1565 23.5555 65.7296 25.0819 63.2738 24.6023L63.036 24.5494L63.2804 23.5658C65.2723 24.0607 67.2882 22.8471 67.783 20.8553Z" fill="white"/>
</g>
<path d="M19.9189 34.179C19.9189 35.5186 19.1332 36.7339 17.9117 37.2836C14.8912 38.6428 11.4331 38.6428 8.41263 37.2836C7.19106 36.7339 6.4054 35.5186 6.4054 34.179V23.9126C6.72886 24.1 7.07493 24.2564 7.44068 24.3758C11.1582 25.5897 15.1661 25.5897 18.8836 24.3758C19.2494 24.2564 19.5954 24.1 19.9189 23.9126V34.179Z" fill="#262626"/>
<path d="M70.5946 34.179C70.5946 35.5186 69.8089 36.7339 68.5873 37.2836C65.5669 38.6428 62.1088 38.6428 59.0883 37.2836C57.8667 36.7339 57.0811 35.5186 57.0811 34.179V23.9126C57.4045 24.1 57.7506 24.2564 58.1163 24.3758C61.8339 25.5897 65.8418 25.5897 69.5593 24.3758C69.925 24.2564 70.2711 24.1 70.5946 23.9126V34.179Z" fill="#262626"/>
<path d="M40.4063 10.9831L45.34 7.24915C45.7493 8.04206 46.5679 9.76202 46.5679 10.2985C46.5679 10.6525 47.3343 19.7354 47.3343 19.7354L64.3398 18.5857L56.4359 22.3701C56.4359 22.3701 47.7644 24.2343 47.3343 24.7173L41.2027 28.1663L38.9297 26.1433L39.8465 21.1059L40.4063 10.9831Z" fill="black"/>
<mask id="mask2_62_716" style="mask-type:alpha" maskUnits="userSpaceOnUse" x="41" y="-7" width="51" height="37">
<path d="M84.3476 -5.97649C81.0284 -3.5926 87.6544 12.2147 91.3823 19.8204L55.0543 29.2926L41.0024 28.2648L41.6011 26.3577L41.0024 23.2262L44.0876 23.2262L44.4514 22.4371C45.5082 22.2765 53.9803 22.1237 53.9803 22.1237L61.0817 19.4834L53.6517 20.9647L44.8635 20.9647L45.3498 19.1912L41.1913 14.2116L41.1913 13.2308L44.6266 10.0191L45.0297 7.15335C45.0297 7.15335 86.9815 -7.86828 84.3476 -5.97649Z" fill="black"/>
</mask>
<g mask="url(#mask2_62_716)">
<path d="M76.8091 7.4282C75.6394 2.72017 70.8746 -0.148216 66.1665 1.02147L10.4286 14.8693C5.72054 16.039 2.85215 20.8038 4.02184 25.5119L4.6735 28.1348C5.84319 32.8429 10.608 35.7112 15.316 34.5416L71.054 20.6937C75.762 19.524 78.6304 14.7592 77.4607 10.0512L76.8091 7.4282Z" fill="#262626"/>
<path d="M72.512 5.46006C71.8822 2.92497 69.3165 1.38045 66.7814 2.01028L13.0106 15.3694C10.4756 15.9992 8.93104 18.5649 9.56087 21.1C10.1907 23.6351 12.7564 25.1796 15.2915 24.5498L69.0622 11.1907C71.5973 10.5608 73.1418 7.99515 72.512 5.46006Z" fill="white"/>
<path d="M72.512 5.46006C71.8822 2.92497 69.3165 1.38045 66.7814 2.01028L13.0106 15.3694C10.4756 15.9992 8.93104 18.5649 9.56087 21.1C10.1907 23.6351 12.7564 25.1796 15.2915 24.5498L69.0622 11.1907C71.5973 10.5608 73.1418 7.99515 72.512 5.46006Z" fill="#5ADDF8"/>
<mask id="mask3_62_716" style="mask-type:alpha" maskUnits="userSpaceOnUse" x="9" y="1" width="64" height="24">
<path d="M72.512 5.46006C71.8822 2.92497 69.3165 1.38045 66.7814 2.01028L13.0106 15.3694C10.4756 15.9992 8.93104 18.5649 9.56087 21.1C10.1907 23.6351 12.7564 25.1796 15.2915 24.5498L69.0622 11.1907C71.5973 10.5608 73.1418 7.99515 72.512 5.46006Z" fill="#0051E6"/>
</mask>
<g mask="url(#mask3_62_716)">
<path d="M60.8309 -5.88583L69.4459 -3.57744L53.8748 34.3614L45.2598 32.053L60.8309 -5.88583Z" fill="white"/>
<path d="M41.978 -5.88559L50.593 -3.5772L35.0219 34.3617L26.4069 32.0533L41.978 -5.88559Z" fill="white"/>
</g>
<path d="M15.0471 23.5662L15.2915 24.5498L69.0622 11.1907L68.8178 10.207L15.0471 23.5662ZM10.5445 20.8556C10.0496 18.8638 11.2632 16.8479 13.255 16.353L67.0258 2.9939C69.0176 2.49903 71.0335 3.71258 71.5284 5.70443C72.0233 7.69629 70.8097 9.71218 68.8178 10.207L69.0622 11.1907C71.5973 10.5608 73.1418 7.99515 72.512 5.46006C71.8822 2.92497 69.3165 1.38045 66.7814 2.01028L13.0106 15.3694L12.7758 15.4339C10.3811 16.1594 8.95073 18.6441 9.56087 21.1C10.171 23.5558 12.5979 25.0823 15.0537 24.6027L15.2915 24.5498L15.0471 23.5662C13.0552 24.061 11.0394 22.8475 10.5445 20.8556Z" fill="white"/>
</g>
</svg>
