<svg width="78" height="40" viewBox="0 0 78 40" fill="none" xmlns="http://www.w3.org/2000/svg">
<rect x="6.4054" y="18.6025" width="13.5137" height="11.9495" fill="black"/>
<rect x="57.0811" y="18.6025" width="13.5137" height="11.9495" fill="black"/>
<path d="M5.60429 34.0358C6.07159 31.8551 7.99879 30.2971 10.229 30.2971H66.771C69.0013 30.2971 70.9285 31.8551 71.3958 34.0358C72.0267 36.9801 69.7822 39.7566 66.771 39.7566H10.229C7.21788 39.7566 4.97337 36.9801 5.60429 34.0358Z" fill="#080808"/>
<path d="M28.7028 10.9827L36.3892 7.89429C36.7984 8.6872 38.9576 9.28039 38.9576 9.81691C38.9576 10.1709 35.9857 16.4418 35.9857 16.4418C36.6879 18.7652 41.2048 18.6122 41.2048 18.6122C41.2048 18.6122 39.3797 23.7622 39.6977 24.8145L31.3268 26.1644L20.9873 19.8224L28.7028 21.3813L28.7028 10.9827Z" fill="black"/>
<mask id="mask0_62_605" style="mask-type:alpha" maskUnits="userSpaceOnUse" x="-14" y="-7" width="56" height="37">
<path d="M38.5001 22.8646C38.5504 22.6882 41.3529 17.2797 41.3529 17.2797C39.1709 14.8816 37.8798 14.4725 35.6978 12.0743L36.3667 10.8803L39.0854 9.71083L38.2288 8.19438C38.2288 8.19438 -8.65382 -7.86877 -6.01987 -5.97698C-2.70075 -3.59308 -9.3267 12.2142 -13.0546 19.8199L23.2733 29.2922C23.2733 29.2922 36.0151 27.8438 36.6399 27.6179C37.2647 27.3921 38.7825 24.9916 38.7825 24.9916C38.7825 24.9916 35.1153 25.4757 32.243 25.4757C31.0177 25.4757 23.6943 20.8293 23.6943 20.8293L31.8166 23.3476C31.8166 23.3476 38.473 22.9593 38.5001 22.8646Z" fill="black"/>
</mask>
<g mask="url(#mask0_62_605)">
<path d="M1.51844 7.42771C2.68813 2.71969 7.45296 -0.148704 12.161 1.02098L67.899 14.8688C72.607 16.0385 75.4754 20.8034 74.3057 25.5114L73.654 28.1343C72.4843 32.8424 67.7195 35.7108 63.0115 34.5411L7.2735 20.6932C2.56548 19.5235 -0.302906 14.7587 0.866782 10.0507L1.51844 7.42771Z" fill="#262626"/>
<path d="M5.81552 5.45957C6.44535 2.92448 9.01103 1.37996 11.5461 2.0098L65.3169 15.3689C67.852 15.9987 69.3965 18.5644 68.7666 21.0995C68.1368 23.6346 65.5711 25.1791 63.036 24.5493L9.2653 11.1902C6.73021 10.5603 5.18569 7.99466 5.81552 5.45957Z" fill="white"/>
<path d="M5.81552 5.45957C6.44535 2.92448 9.01103 1.37996 11.5461 2.0098L65.3169 15.3689C67.852 15.9987 69.3965 18.5644 68.7666 21.0995C68.1368 23.6346 65.5711 25.1791 63.036 24.5493L9.2653 11.1902C6.73021 10.5603 5.18569 7.99466 5.81552 5.45957Z" fill="#FEC414"/>
<mask id="mask1_62_605" style="mask-type:alpha" maskUnits="userSpaceOnUse" x="5" y="1" width="64" height="24">
<path d="M5.81552 5.45957C6.44535 2.92448 9.01103 1.37996 11.5461 2.0098L65.3169 15.3689C67.852 15.9987 69.3965 18.5644 68.7666 21.0995C68.1368 23.6346 65.5711 25.1791 63.036 24.5493L9.2653 11.1902C6.73021 10.5603 5.18569 7.99466 5.81552 5.45957Z" fill="#0051E6"/>
</mask>
<g mask="url(#mask1_62_605)">
<path d="M35.6866 -16.692L42.7871 -9.83011L14.5636 19.4448L7.46312 12.5829L35.6866 -16.692Z" fill="white"/>
<path d="M49.6053 -3.27319L56.0262 2.91708L27.7945 32.2006L21.3736 26.0103L49.6053 -3.27319Z" fill="white"/>
<path d="M62.8362 9.48254L67.3836 13.8666L39.1518 43.1501L34.6044 38.766L62.8362 9.48254Z" fill="white"/>
</g>
<path d="M63.2804 23.5657L63.036 24.5493L9.2653 11.1902L9.50967 10.2066L63.2804 23.5657ZM67.783 20.8551C68.2779 18.8633 67.0643 16.8474 65.0725 16.3525L11.3017 2.99341C9.30989 2.49854 7.294 3.71209 6.79913 5.70394C6.30426 7.6958 7.51781 9.71169 9.50967 10.2066L9.2653 11.1902C6.73021 10.5603 5.18569 7.99466 5.81552 5.45957C6.44535 2.92448 9.01103 1.37996 11.5461 2.0098L65.3169 15.3689L65.5517 15.4334C67.9465 16.1589 69.3768 18.6437 68.7666 21.0995C68.1565 23.5553 65.7296 25.0818 63.2738 24.6022L63.036 24.5493L63.2804 23.5657C65.2723 24.0605 67.2882 22.847 67.783 20.8551Z" fill="white"/>
</g>
<path d="M19.9189 34.1789C19.9189 35.5185 19.1332 36.7338 17.9117 37.2835C14.8912 38.6427 11.4331 38.6427 8.41263 37.2835C7.19106 36.7338 6.4054 35.5185 6.4054 34.1789V23.9125C6.72886 24.0999 7.07493 24.2562 7.44068 24.3757C11.1582 25.5896 15.1661 25.5896 18.8836 24.3757C19.2494 24.2562 19.5954 24.0999 19.9189 23.9125V34.1789Z" fill="#262626"/>
<path d="M70.5946 34.1789C70.5946 35.5185 69.8089 36.7338 68.5873 37.2835C65.5669 38.6427 62.1088 38.6427 59.0883 37.2835C57.8667 36.7338 57.0811 35.5185 57.0811 34.1789V23.9125C57.4045 24.0999 57.7506 24.2562 58.1163 24.3757C61.8339 25.5896 65.8418 25.5896 69.5593 24.3757C69.925 24.2562 70.2711 24.0999 70.5946 23.9125V34.1789Z" fill="#262626"/>
<path d="M40.4063 10.983L45.34 7.24902C45.7493 8.04194 46.5679 9.7619 46.5679 10.2984C46.5679 10.6524 47.3343 19.7353 47.3343 19.7353L64.3398 18.5856L56.4359 22.37C56.4359 22.37 47.7644 24.2341 47.3343 24.7172L41.2027 28.1662L38.9297 26.1431L39.8465 21.1058L40.4063 10.983Z" fill="black"/>
<mask id="mask2_62_605" style="mask-type:alpha" maskUnits="userSpaceOnUse" x="41" y="-7" width="51" height="37">
<path d="M84.3476 -5.97662C81.0284 -3.59272 87.6544 12.2146 91.3823 19.8202L55.0543 29.2925L41.0024 28.2647L41.6011 26.3576L41.0024 23.2261L44.0876 23.2261L44.4514 22.4369C45.5082 22.2764 53.9803 22.1235 53.9803 22.1235L61.0817 19.4832L53.6517 20.9646L44.8635 20.9646L45.3498 19.1911L41.1913 14.2115L41.1913 13.2306L44.6266 10.019L45.0297 7.15323C45.0297 7.15323 86.9815 -7.8684 84.3476 -5.97662Z" fill="black"/>
</mask>
<g mask="url(#mask2_62_605)">
<path d="M76.8091 7.42808C75.6394 2.72005 70.8746 -0.148338 66.1665 1.02135L10.4286 14.8692C5.72054 16.0389 2.85215 20.8037 4.02184 25.5117L4.6735 28.1347C5.84319 32.8427 10.608 35.7111 15.316 34.5414L71.054 20.6936C75.762 19.5239 78.6304 14.7591 77.4607 10.051L76.8091 7.42808Z" fill="#262626"/>
<path d="M72.512 5.45994C71.8822 2.92485 69.3165 1.38033 66.7814 2.01016L13.0106 15.3693C10.4756 15.9991 8.93104 18.5648 9.56087 21.0999C10.1907 23.635 12.7564 25.1795 15.2915 24.5496L69.0622 11.1905C71.5973 10.5607 73.1418 7.99503 72.512 5.45994Z" fill="white"/>
<path d="M72.512 5.45994C71.8822 2.92485 69.3165 1.38033 66.7814 2.01016L13.0106 15.3693C10.4756 15.9991 8.93104 18.5648 9.56087 21.0999C10.1907 23.635 12.7564 25.1795 15.2915 24.5496L69.0622 11.1905C71.5973 10.5607 73.1418 7.99503 72.512 5.45994Z" fill="#FEC414"/>
<mask id="mask3_62_605" style="mask-type:alpha" maskUnits="userSpaceOnUse" x="9" y="1" width="64" height="24">
<path d="M72.512 5.45994C71.8822 2.92485 69.3165 1.38033 66.7814 2.01016L13.0106 15.3693C10.4756 15.9991 8.93104 18.5648 9.56087 21.0999C10.1907 23.635 12.7564 25.1795 15.2915 24.5496L69.0622 11.1905C71.5973 10.5607 73.1418 7.99503 72.512 5.45994Z" fill="#0051E6"/>
</mask>
<g mask="url(#mask3_62_605)">
<path d="M60.8309 -5.88595L69.4459 -3.57757L53.8748 34.3613L45.2598 32.0529L60.8309 -5.88595Z" fill="white"/>
<path d="M41.978 -5.88571L50.593 -3.57732L35.0219 34.3615L26.4069 32.0532L41.978 -5.88571Z" fill="white"/>
</g>
<path d="M15.0471 23.566L15.2915 24.5496L69.0622 11.1905L68.8178 10.2069L15.0471 23.566ZM10.5445 20.8555C10.0496 18.8636 11.2632 16.8478 13.255 16.3529L67.0258 2.99377C69.0176 2.49891 71.0335 3.71245 71.5284 5.70431C72.0233 7.69617 70.8097 9.71205 68.8178 10.2069L69.0622 11.1905C71.5973 10.5607 73.1418 7.99503 72.512 5.45994C71.8822 2.92485 69.3165 1.38033 66.7814 2.01016L13.0106 15.3693L12.7758 15.4337C10.3811 16.1593 8.95073 18.644 9.56087 21.0999C10.171 23.5557 12.5979 25.0822 15.0537 24.6026L15.2915 24.5496L15.0471 23.566C13.0552 24.0609 11.0394 22.8474 10.5445 20.8555Z" fill="white"/>
</g>
</svg>
