<svg width="45" height="66" viewBox="0 0 45 66" fill="none" xmlns="http://www.w3.org/2000/svg">
<path d="M13.3244 0C2.96521 0 -15.2566 65.5514 24.312 65.5514C39.9516 65.5514 44.5171 57.0999 44.5171 48.4905C44.5171 35.1936 37.6294 29.4205 29.4493 23.2678C16.407 13.4579 21.1098 0 13.3244 0Z" fill="#E8123A"/>
<path d="M23.8356 57.3518C40.1588 57.3518 37.3616 41.9595 31.248 33.83C30.7416 33.1566 29.7162 33.3192 29.2412 34.0151C25.1438 40.018 15.604 38.7351 13.8205 23.8882C13.6905 22.806 12.3378 22.414 11.805 23.365C5.07 35.3874 5.02131 57.3518 23.8356 57.3518Z" fill="#FFC20D"/>
</svg>
