<svg width="83" height="75" viewBox="0 0 83 75" fill="none" xmlns="http://www.w3.org/2000/svg">
<path d="M68.6199 57.9434C71.1529 58.5669 75.7932 58.911 77.3542 58.5067C78.9153 58.1025 82.6825 59.3023 80.915 61.0354C79.5776 62.3471 70.0004 58.5712 68.5339 60.1323L68.6199 57.9477V57.9434Z" fill="#1D5F30"/>
<path d="M65.5666 29.1255C66.5858 34.7009 64.2334 39.3292 63.7948 43.5651C63.5368 46.0723 67.5362 56.0108 69.3811 57.8471C69.9961 58.462 71.7894 59.6662 74.6621 60.6424C78.0595 61.7992 82.5922 62.5647 82.5922 63.9065C82.5922 65.9965 79.8786 65.8933 78.653 64.9859C77.4273 64.0785 73.1742 63.0378 72.4302 63.2141C74.718 64.5085 75.462 66.6889 73.974 66.8996C72.4861 67.1103 70.8863 67.3253 70.0907 65.7299C69.2951 64.1344 68.3877 63.356 66.8997 62.8958C65.4118 62.4357 56.5786 64.0828 56.3635 62.3282C56.1485 60.5736 59.3438 61.4767 61.15 60.8918C62.9562 60.3069 62.6939 59.9328 61.2016 58.2857C59.7093 56.6386 53.0608 46.5798 54.9788 37.7509C56.8968 28.922 65.5666 26.4707 65.5666 26.4707L66.5858 30.1691L65.5666 29.1255Z" fill="#26853E"/>
<path d="M5.86292 56.4366C9.32051 13.9219 43.4449 16.5366 49.7623 6.5767C51.4223 3.9577 54.5444 1.59243 56.6431 1.12368C63.0164 0.216276 64.6893 3.48895 68.9941 5.88862C71.626 7.35509 83.2029 10.6794 82.5148 16.7603C81.6332 24.5398 74.946 20.936 67.605 30.0273C54.3853 46.3906 54.2219 57.6837 30.5563 62.754C16.8894 65.6826 5.86722 56.4366 5.86722 56.4366H5.86292Z" fill="url(#paint0_linear_16_8639)"/>
<path d="M5.86292 56.4366C9.32051 13.9219 43.4449 16.5366 49.7623 6.5767C51.4223 3.9577 54.5444 1.59243 56.6431 1.12368C63.0164 0.216276 64.6893 3.48895 68.9941 5.88862C71.626 7.35509 83.2029 10.6794 82.5148 16.7603C81.6332 24.5398 74.946 20.936 67.605 30.0273C54.3853 46.3906 54.2219 57.6837 30.5563 62.754C16.8894 65.6826 5.86722 56.4366 5.86722 56.4366H5.86292Z" fill="url(#paint1_linear_16_8639)"/>
<mask id="mask0_16_8639" style="mask-type:alpha" maskUnits="userSpaceOnUse" x="6" y="0" width="77" height="64">
<path d="M6 56.4366C9.45759 13.9219 43.582 16.5366 49.8994 6.5767C51.5594 3.9577 54.6815 1.59243 56.7802 1.12368C63.1535 0.216276 64.8264 3.48895 69.1312 5.88862C71.7631 7.35509 83.34 10.6794 82.6519 16.7603C81.7703 24.5398 75.083 20.936 67.7421 30.0273C54.5224 46.3906 54.359 57.6837 30.6934 62.754C17.0265 65.6826 6.0043 56.4366 6.0043 56.4366H6Z" fill="black"/>
</mask>
<g mask="url(#mask0_16_8639)">
<g style="mix-blend-mode:multiply">
<path d="M8.45939 48.3547C19.6351 15.375 41.4652 19.3441 52.4775 8.88203C56.2974 6.80987 58.3744 4.80748 60.4487 4.72078C62.5229 4.63409 85.77 12.7255 87.7692 14.5195C83.8305 23.2192 75.4344 38.4084 74.8111 39.6549C74.1879 40.9014 52.1312 59.3051 41.1808 68.351C29.5378 67.5287 3.92318 61.7411 8.45939 48.3547Z" fill="url(#paint2_linear_16_8639)" fill-opacity="0.46"/>
</g>
<g style="mix-blend-mode:multiply">
<path d="M8.45943 48.3546C10.6668 30.8254 55.1427 42.0922 52.4775 8.88191C56.2279 6.98347 58.1721 4.7589 60.4487 4.72067C62.7253 4.68243 85.6153 12.6271 87.7692 14.5194C83.8306 23.2191 75.4344 38.4082 74.8112 39.6548C74.1879 40.9013 52.1312 59.3049 41.1808 68.3509C29.5379 67.5286 6.69351 62.378 8.45943 48.3546Z" fill="url(#paint3_linear_16_8639)" fill-opacity="0.46"/>
</g>
<g style="mix-blend-mode:screen">
<path d="M85.832 18.1307C89.1177 10.8161 65.8105 7.67069 63.6972 4.625C63.9337 4.98942 64.7388 7.09392 66.067 12.5965C67.0226 16.5555 63.3454 19.3563 59.7663 20.5146C56.1871 21.6729 51.1788 20.555 51.4465 24.1838C51.5637 25.7733 53.4162 27.5111 56.9502 27.2557C61.4842 26.9279 68.2395 24.2125 71.8383 23.1906C78.2422 21.3722 83.3812 23.5867 85.832 18.1307Z" fill="url(#paint4_linear_16_8639)"/>
</g>
<g style="mix-blend-mode:screen">
<path d="M55.447 24.2164C60.447 27.2156 66.8536 17.5566 88.3535 18.0559C90.0202 22.389 92.447 31.9158 92.447 32.7158C92.447 33.7158 58.947 69.7158 58.447 69.7158C57.947 69.7158 26.4469 76.2158 -4.03992 63.7739C46.9733 65.8319 50.4471 21.2171 55.447 24.2164Z" fill="url(#paint5_linear_16_8639)"/>
<path d="M55.447 24.2164C60.447 27.2156 66.8536 17.5566 88.3535 18.0559C90.0202 22.389 92.447 31.9158 92.447 32.7158C92.447 33.7158 58.947 69.7158 58.447 69.7158C57.947 69.7158 26.4469 76.2158 -4.03992 63.7739C46.9733 65.8319 50.4471 21.2171 55.447 24.2164Z" fill="url(#paint6_linear_16_8639)"/>
</g>
<g style="mix-blend-mode:screen">
<path d="M9.39929 66.6536C54.0405 63.2048 53.7152 24.9324 75.7253 32.739C97.7354 40.5455 86.9809 35.8364 88.0927 42.5071C89.4825 50.8455 84.4447 57.7942 80.4492 61.4422C76.4538 65.0903 64.4673 71.1703 47.9643 76.5555C34.7619 80.8637 16.7533 71.7493 9.39929 66.6536Z" fill="url(#paint7_linear_16_8639)"/>
</g>
</g>
<path d="M0.0701892 56.5907C1.055 64.7229 19.7406 65.1143 22.9531 69.0492C26.1655 72.9842 30.2983 72.395 31.2143 70.4254C32.1303 68.4558 25.4431 67.6731 25.314 65.7035C31.0853 67.4753 34.6525 69.4008 37.2479 69.3761C39.8433 69.3513 40.978 68.925 39.1417 67.2865C38.4962 66.7106 37.2096 66.7932 35.9236 66.416C33.5512 65.7201 30.8269 64.7948 29.636 64.7084C29.3425 64.6871 37.4908 65.0855 37.4908 63.8979C37.7296 62.493 28.8612 63.6702 28.0035 63.3887C23.8558 62.0272 19.9193 60.9244 19.0869 60.5472C30.7757 58.2077 31.8293 52.4752 29.636 47.8908C25.1248 38.4599 -1.54249 43.2463 0.0701892 56.5907Z" fill="url(#paint8_linear_16_8639)"/>
<path d="M0.0701892 56.5907C1.055 64.7229 19.7406 65.1143 22.9531 69.0492C26.1655 72.9842 30.2983 72.395 31.2143 70.4254C32.1303 68.4558 25.4431 67.6731 25.314 65.7035C31.0853 67.4753 34.6525 69.4008 37.2479 69.3761C39.8433 69.3513 40.978 68.925 39.1417 67.2865C38.4962 66.7106 37.2096 66.7932 35.9236 66.416C33.5512 65.7201 30.8269 64.7948 29.636 64.7084C29.3425 64.6871 37.4908 65.0855 37.4908 63.8979C37.7296 62.493 28.8612 63.6702 28.0035 63.3887C23.8558 62.0272 19.9193 60.9244 19.0869 60.5472C30.7757 58.2077 31.8293 52.4752 29.636 47.8908C25.1248 38.4599 -1.54249 43.2463 0.0701892 56.5907Z" fill="url(#paint9_linear_16_8639)"/>
<mask id="mask1_16_8639" style="mask-type:alpha" maskUnits="userSpaceOnUse" x="0" y="42" width="41" height="30">
<path d="M0.0701892 56.5907C1.055 64.7229 19.7406 65.1143 22.9531 69.0492C26.1655 72.9842 30.2983 72.395 31.2143 70.4254C32.1303 68.4558 25.4431 67.6731 25.3141 65.7035C31.0853 67.4753 34.0354 69.7029 37.2479 69.3761C40.4604 69.0492 40.985 68.2622 39.1487 66.6238C37.3124 64.9853 35.6739 65.7078 33.8376 65.5744C32.0013 65.4411 20.2825 61.089 19.0869 60.5472C30.7757 58.2077 31.8293 52.4752 29.636 47.8908C25.1248 38.4599 -1.54249 43.2463 0.0701892 56.5907Z" fill="url(#paint10_linear_16_8639)"/>
</mask>
<g mask="url(#mask1_16_8639)">
<g style="mix-blend-mode:multiply">
<path d="M18.5887 63.3281C18.9698 63.4031 19.3669 63.5127 19.7739 63.652C26.4873 65.5251 31.9576 67.7496 34.958 71.3L42.2572 69.3679C42.2652 69.3643 42.272 69.3625 42.2776 69.3625L42.2572 69.3679C41.7897 69.5769 37.2153 75.7764 26.5968 73.4168C32.1535 72.4333 25.1181 65.4811 19.7739 63.652C19.383 63.5429 18.9878 63.435 18.5887 63.3281Z" fill="url(#paint11_linear_16_8639)" fill-opacity="0.47"/>
</g>
<g style="mix-blend-mode:multiply">
<path d="M6.323 56.2899C11.7079 57.3495 26.4959 60.9684 33.8906 50.334C42.4384 52.2335 33.8702 59.0395 30.0901 61.7956C34.3242 62.2437 37.4554 62.5283 37.8929 62.9658C39.0929 64.1658 49.3739 66.2478 50.8739 69.7478L28.5 62.9669C28.4304 62.9669 29.0941 62.5218 30.0901 61.7956C22.711 61.0148 11.982 59.7376 6.323 56.2899Z" fill="url(#paint12_linear_16_8639)" fill-opacity="0.47"/>
</g>
<g style="mix-blend-mode:screen">
<path d="M11 58.4681C31.7817 57.1607 14.2739 44.4532 -0.51062 54.3931C5.32786 33.7701 28.8 39.2672 30 40.4672C31.2 41.6672 34.5 48.9672 36 52.4672L28.5 62.9672C28.1667 62.9672 21.8 60.8681 11 58.4681Z" fill="url(#paint13_linear_16_8639)" fill-opacity="0.47"/>
</g>
<g style="mix-blend-mode:color-dodge">
<path d="M11 58.4687C31.7818 57.1614 24.9233 41.9804 11.8214 43.8818C17.4354 39.8818 28.8 39.2679 30 40.4679C31.2 41.6679 34.5 48.9679 36 52.4679L28.5 62.9679C28.1667 62.9679 21.8 60.8687 11 58.4687Z" fill="url(#paint14_linear_16_8639)" fill-opacity="0.65"/>
</g>
</g>
<mask id="mask2_16_8639" style="mask-type:luminance" maskUnits="userSpaceOnUse" x="6" y="0" width="77" height="64">
<path d="M5.99994 56.4366C9.45753 13.9219 43.5819 16.5366 49.8993 6.5767C51.5593 3.9577 54.6815 1.59243 56.7801 1.12368C63.1534 0.216276 64.8263 3.48895 69.1311 5.88862C71.763 7.35509 83.3399 10.6794 82.6518 16.7603C81.7702 24.5398 75.083 20.936 67.742 30.0273C54.5223 46.3906 54.3589 57.6837 30.6933 62.754C17.0264 65.6826 6.00424 56.4366 6.00424 56.4366H5.99994Z" fill="white"/>
</mask>
<g mask="url(#mask2_16_8639)">
<path d="M83.2415 18.3964C69.2736 17.2224 59.7738 26.0986 54.6648 24.4902" stroke="url(#paint15_linear_16_8639)" stroke-width="1.29015" stroke-miterlimit="10" stroke-linecap="round"/>
</g>
<path d="M74.658 12.9164C75.4721 12.5497 77.1883 13.6503 77.0539 15.2913C77.0465 15.3824 76.9254 15.4088 76.8653 15.34C76.7277 15.1823 76.5488 15.039 76.3664 14.9883C74.2324 14.6175 73.8022 13.3018 74.658 12.9164Z" fill="#0E6A19"/>
<path d="M47.2292 33.275C52.4285 36.2381 50.7384 42.964 41.7547 49.2341C41.5225 51.7155 47.8829 63.3268 50.4589 63.6494C53.6886 64.0536 61.4551 63.6494 61.4551 66.173C61.4164 66.8998 57.1935 66.4447 57.1935 66.4447C57.1935 66.4447 58.3976 67.064 60.1694 67.5284C62.7626 68.2079 66.133 69.1597 65.9278 70.7839C65.3774 72.3263 61.5284 71.3903 59.4641 70.1259C57.3999 68.8616 55.1292 68.9777 55.1292 68.9777C55.1292 68.9777 55.6539 69.4894 56.5484 70.3409C57.6235 71.3645 58.0708 73.107 57.6321 73.8458C57.1935 74.5846 55.336 73.2304 54.6822 71.9228C54.0284 70.6152 51.9813 69.5625 48.7817 68.896C48.0119 68.7369 45.4402 68.0402 43.8878 66.664C39.0067 62.3248 31.2056 50.735 33.287 46.069C34.6202 43.0758 43.376 31.0861 47.2206 33.275H47.2292Z" fill="url(#paint16_linear_16_8639)"/>
<path d="M47.2292 33.275C52.4285 36.2381 50.7384 42.964 41.7547 49.2341C41.5225 51.7155 47.8829 63.3268 50.4589 63.6494C53.6886 64.0536 61.4551 63.6494 61.4551 66.173C61.4164 66.8998 57.1935 66.4447 57.1935 66.4447C57.1935 66.4447 58.3976 67.064 60.1694 67.5284C62.7626 68.2079 66.133 69.1597 65.9278 70.7839C65.3774 72.3263 61.5284 71.3903 59.4641 70.1259C57.3999 68.8616 55.1292 68.9777 55.1292 68.9777C55.1292 68.9777 55.6539 69.4894 56.5484 70.3409C57.6235 71.3645 58.0708 73.107 57.6321 73.8458C57.1935 74.5846 55.336 73.2304 54.6822 71.9228C54.0284 70.6152 51.9813 69.5625 48.7817 68.896C48.0119 68.7369 45.4402 68.0402 43.8878 66.664C39.0067 62.3248 31.2056 50.735 33.287 46.069C34.6202 43.0758 43.376 31.0861 47.2206 33.275H47.2292Z" fill="url(#paint17_linear_16_8639)"/>
<mask id="mask3_16_8639" style="mask-type:alpha" maskUnits="userSpaceOnUse" x="32" y="33" width="34" height="42">
<path d="M47.2292 33.275C52.4285 36.2381 50.7384 42.964 41.7547 49.2341C41.5225 51.7155 47.8829 63.3268 50.4589 63.6494C53.6886 64.0536 61.4551 63.6494 61.4551 66.173C61.4164 66.8998 57.1935 66.4447 57.1935 66.4447C57.1935 66.4447 58.3976 67.064 60.1694 67.5284C62.7626 68.2079 66.133 69.1597 65.9278 70.7839C65.3774 72.3263 61.5284 71.3903 59.4641 70.1259C57.3999 68.8616 55.1292 68.9777 55.1292 68.9777C55.1292 68.9777 55.6539 69.4894 56.5484 70.3409C57.6235 71.3645 58.0708 73.107 57.6321 73.8458C57.1935 74.5846 55.336 73.2304 54.6822 71.9228C54.0284 70.6152 51.9813 69.5625 48.7817 68.896C48.0119 68.7369 45.4402 68.0402 43.8878 66.664C39.0067 62.3248 31.2056 50.735 33.287 46.069C34.6202 43.0758 43.376 31.0861 47.2206 33.275H47.2292Z" fill="url(#paint18_linear_16_8639)"/>
<path d="M47.2292 33.275C52.4285 36.2381 50.7384 42.964 41.7547 49.2341C41.5225 51.7155 47.8829 63.3268 50.4589 63.6494C53.6886 64.0536 61.4551 63.6494 61.4551 66.173C61.4164 66.8998 57.1935 66.4447 57.1935 66.4447C57.1935 66.4447 58.3976 67.064 60.1694 67.5284C62.7626 68.2079 66.133 69.1597 65.9278 70.7839C65.3774 72.3263 61.5284 71.3903 59.4641 70.1259C57.3999 68.8616 55.1292 68.9777 55.1292 68.9777C55.1292 68.9777 55.6539 69.4894 56.5484 70.3409C57.6235 71.3645 58.0708 73.107 57.6321 73.8458C57.1935 74.5846 55.336 73.2304 54.6822 71.9228C54.0284 70.6152 51.9813 69.5625 48.7817 68.896C48.0119 68.7369 45.4402 68.0402 43.8878 66.664C39.0067 62.3248 31.2056 50.735 33.287 46.069C34.6202 43.0758 43.376 31.0861 47.2206 33.275H47.2292Z" fill="url(#paint19_linear_16_8639)"/>
</mask>
<g mask="url(#mask3_16_8639)">
<g style="mix-blend-mode:multiply">
<path d="M49.8469 66.6094C51.3209 67.1227 56.5103 71.1578 56.8947 74.3613C57.7276 75.0662 59.5601 76.053 60.2265 74.3613C61.0594 72.2468 55.7414 68.4667 49.8469 66.6094Z" fill="url(#paint20_linear_16_8639)" fill-opacity="0.47"/>
</g>
<g style="mix-blend-mode:screen">
<path d="M33.5144 55.5105C33.7701 49.9717 50.4264 45.5252 49.9934 39.2969C50.5331 38.8986 51.6978 37.6589 52.0387 35.8862C52.4649 33.6703 49.5672 31.7118 48.4593 30.9431C47.3513 30.1744 41.8969 30.1761 40.8742 30.9431C39.8515 31.7101 30.7324 41.9372 30.5619 42.3633C30.4256 42.7042 32.6337 52.1862 33.5144 55.5105Z" fill="url(#paint21_linear_16_8639)" fill-opacity="0.47"/>
</g>
<g style="mix-blend-mode:color-dodge">
<path d="M33.0335 52.7624C33.2892 47.2237 50.4264 45.5252 49.9934 39.2969C50.5331 38.8986 51.6978 37.6589 52.0387 35.8862C52.4649 33.6703 49.5672 31.7118 48.4593 30.9431C47.3513 30.1744 41.8969 30.1761 40.8742 30.9431C39.8515 31.7101 30.7324 41.9372 30.5619 42.3633C30.4256 42.7042 32.1528 49.4381 33.0335 52.7624Z" fill="url(#paint22_linear_16_8639)" fill-opacity="0.65"/>
</g>
</g>
<path d="M58.8359 3.48828C63.1734 3.48828 66.6903 7.00439 66.6904 11.3418C66.6904 15.6793 63.1735 19.1963 58.8359 19.1963C54.4985 19.1961 50.9824 15.6792 50.9824 11.3418C50.9826 7.0045 54.4986 3.48845 58.8359 3.48828Z" fill="url(#paint23_linear_16_8639)" stroke="url(#paint24_linear_16_8639)"/>
<g filter="url(#filter0_i_16_8639)">
<path d="M58.8362 16.5365C61.7053 16.5365 64.0312 14.2106 64.0312 11.3415C64.0312 8.47236 61.7053 6.14648 58.8362 6.14648C55.9671 6.14648 53.6412 8.47236 53.6412 11.3415C53.6412 14.2106 55.9671 16.5365 58.8362 16.5365Z" fill="url(#paint25_linear_16_8639)"/>
</g>
<path d="M58.8364 14.1974C60.4134 14.1974 61.6919 12.9189 61.6919 11.3419C61.6919 9.76479 60.4134 8.48633 58.8364 8.48633C57.2593 8.48633 55.9808 9.76479 55.9808 11.3419C55.9808 12.9189 57.2593 14.1974 58.8364 14.1974Z" fill="#060003"/>
<path d="M61.7144 10.2828C62.1779 9.81923 61.9628 8.85259 61.2339 8.12372C60.505 7.39484 59.5384 7.17972 59.0749 7.64325C58.6113 8.10678 58.8264 9.07342 59.5553 9.8023C60.2842 10.5312 61.2508 10.7463 61.7144 10.2828Z" fill="white"/>
<defs>
<filter id="filter0_i_16_8639" x="53.6412" y="4.14648" width="10.39" height="12.39" filterUnits="userSpaceOnUse" color-interpolation-filters="sRGB">
<feFlood flood-opacity="0" result="BackgroundImageFix"/>
<feBlend mode="normal" in="SourceGraphic" in2="BackgroundImageFix" result="shape"/>
<feColorMatrix in="SourceAlpha" type="matrix" values="0 0 0 0 0 0 0 0 0 0 0 0 0 0 0 0 0 0 127 0" result="hardAlpha"/>
<feOffset dy="-2"/>
<feGaussianBlur stdDeviation="1.5"/>
<feComposite in2="hardAlpha" operator="arithmetic" k2="-1" k3="1"/>
<feColorMatrix type="matrix" values="0 0 0 0 1 0 0 0 0 1 0 0 0 0 1 0 0 0 1 0"/>
<feBlend mode="normal" in2="shape" result="effect1_innerShadow_16_8639"/>
</filter>
<linearGradient id="paint0_linear_16_8639" x1="5.86292" y1="32.1474" x2="82.5406" y2="32.1474" gradientUnits="userSpaceOnUse">
<stop stop-color="#217A3A"/>
<stop offset="1" stop-color="#50E342"/>
</linearGradient>
<linearGradient id="paint1_linear_16_8639" x1="-15.3864" y1="11.7561" x2="27.5734" y2="25.4145" gradientUnits="userSpaceOnUse">
<stop stop-color="#86FF7B"/>
<stop offset="1" stop-color="#86FF7B" stop-opacity="0"/>
</linearGradient>
<linearGradient id="paint2_linear_16_8639" x1="30.2757" y1="28.3117" x2="58.6023" y2="51.5271" gradientUnits="userSpaceOnUse">
<stop stop-color="#10672B"/>
<stop offset="1" stop-color="#54E37F"/>
</linearGradient>
<linearGradient id="paint3_linear_16_8639" x1="30.2757" y1="28.312" x2="58.6023" y2="51.5275" gradientUnits="userSpaceOnUse">
<stop stop-color="#10672B"/>
<stop offset="1" stop-color="#54E37F"/>
</linearGradient>
<linearGradient id="paint4_linear_16_8639" x1="62.3488" y1="32.4215" x2="57.1422" y2="5.09226" gradientUnits="userSpaceOnUse">
<stop stop-color="#C5F3BB" stop-opacity="0.82"/>
<stop offset="1" stop-color="#54DF66" stop-opacity="0.67"/>
</linearGradient>
<linearGradient id="paint5_linear_16_8639" x1="71.2757" y1="62.0861" x2="71.0935" y2="19.4463" gradientUnits="userSpaceOnUse">
<stop stop-color="#06FF26" stop-opacity="0.18"/>
<stop offset="1" stop-color="#45FF5D" stop-opacity="0.67"/>
</linearGradient>
<linearGradient id="paint6_linear_16_8639" x1="59.2259" y1="39.6112" x2="81.6019" y2="12.5905" gradientUnits="userSpaceOnUse">
<stop stop-color="#06FF26" stop-opacity="0.18"/>
<stop offset="1" stop-color="#DAFFDF" stop-opacity="0.67"/>
</linearGradient>
<linearGradient id="paint7_linear_16_8639" x1="72.1255" y1="69.6433" x2="71.9631" y2="32.9056" gradientUnits="userSpaceOnUse">
<stop stop-color="#06FF26" stop-opacity="0.18"/>
<stop offset="1" stop-color="#45FF5D" stop-opacity="0.67"/>
</linearGradient>
<linearGradient id="paint8_linear_16_8639" x1="23.0166" y1="75.6341" x2="35.936" y2="42.9688" gradientUnits="userSpaceOnUse">
<stop stop-color="#207338"/>
<stop offset="1" stop-color="#218E42"/>
</linearGradient>
<linearGradient id="paint9_linear_16_8639" x1="26.004" y1="70.0668" x2="33.85" y2="59.5907" gradientUnits="userSpaceOnUse">
<stop stop-color="#3AA95A" stop-opacity="0"/>
<stop offset="1" stop-color="#3AA75B"/>
</linearGradient>
<linearGradient id="paint10_linear_16_8639" x1="0.00138141" y1="57.4637" x2="40.2023" y2="57.4637" gradientUnits="userSpaceOnUse">
<stop stop-color="#217A3A"/>
<stop offset="1" stop-color="#50E342"/>
</linearGradient>
<linearGradient id="paint11_linear_16_8639" x1="38.7777" y1="46.4961" x2="38.7777" y2="69.3625" gradientUnits="userSpaceOnUse">
<stop stop-color="#5AD55F"/>
<stop offset="1" stop-color="#3EB25B"/>
</linearGradient>
<linearGradient id="paint12_linear_16_8639" x1="25" y1="40.1016" x2="25" y2="62.9679" gradientUnits="userSpaceOnUse">
<stop stop-color="#5AD55F"/>
<stop offset="1" stop-color="#3EB25B"/>
</linearGradient>
<linearGradient id="paint13_linear_16_8639" x1="25" y1="40.1016" x2="25" y2="62.9679" gradientUnits="userSpaceOnUse">
<stop stop-color="#5AD55F"/>
<stop offset="1" stop-color="#3EB25B"/>
</linearGradient>
<linearGradient id="paint14_linear_16_8639" x1="25.5289" y1="42.0503" x2="25" y2="62.9678" gradientUnits="userSpaceOnUse">
<stop stop-color="#5AD55F"/>
<stop offset="1" stop-color="#3EB25B"/>
</linearGradient>
<linearGradient id="paint15_linear_16_8639" x1="54.4713" y1="21.4885" x2="109.001" y2="17.9707" gradientUnits="userSpaceOnUse">
<stop stop-color="#0E5923"/>
<stop offset="1" stop-color="#1C990F"/>
</linearGradient>
<linearGradient id="paint16_linear_16_8639" x1="51.8324" y1="79.2546" x2="76.729" y2="42.7607" gradientUnits="userSpaceOnUse">
<stop stop-color="#207338"/>
<stop offset="1" stop-color="#218E42"/>
</linearGradient>
<linearGradient id="paint17_linear_16_8639" x1="46.9706" y1="72.3864" x2="62.5832" y2="55.8886" gradientUnits="userSpaceOnUse">
<stop stop-color="#3AA95A" stop-opacity="0"/>
<stop offset="1" stop-color="#3AA75B"/>
</linearGradient>
<linearGradient id="paint18_linear_16_8639" x1="51.8324" y1="79.2546" x2="76.729" y2="42.7607" gradientUnits="userSpaceOnUse">
<stop stop-color="#207338"/>
<stop offset="1" stop-color="#218E42"/>
</linearGradient>
<linearGradient id="paint19_linear_16_8639" x1="54.2842" y1="71.3727" x2="65.4898" y2="62.6987" gradientUnits="userSpaceOnUse">
<stop stop-color="#3AA95A" stop-opacity="0"/>
<stop offset="1" stop-color="#3AA75B"/>
</linearGradient>
<linearGradient id="paint20_linear_16_8639" x1="58.7666" y1="52.8472" x2="58.7666" y2="71.5431" gradientUnits="userSpaceOnUse">
<stop stop-color="#5AD55F"/>
<stop offset="1" stop-color="#3EB25B"/>
</linearGradient>
<linearGradient id="paint21_linear_16_8639" x1="45.5955" y1="31.4797" x2="45.5955" y2="52.7631" gradientUnits="userSpaceOnUse">
<stop stop-color="#5AD55F"/>
<stop offset="1" stop-color="#3EB25B"/>
</linearGradient>
<linearGradient id="paint22_linear_16_8639" x1="55.4687" y1="37.8367" x2="30.4783" y2="50.2597" gradientUnits="userSpaceOnUse">
<stop stop-color="#5AD55F"/>
<stop offset="1" stop-color="#3EB25B" stop-opacity="0.85"/>
</linearGradient>
<linearGradient id="paint23_linear_16_8639" x1="62" y1="0.388672" x2="56.0013" y2="17.9688" gradientUnits="userSpaceOnUse">
<stop stop-color="#177332"/>
<stop offset="1" stop-color="#001C08"/>
</linearGradient>
<linearGradient id="paint24_linear_16_8639" x1="61.5013" y1="3.96875" x2="56.0013" y2="17.9688" gradientUnits="userSpaceOnUse">
<stop stop-color="#A7F582"/>
<stop offset="1" stop-color="#54DF66"/>
</linearGradient>
<linearGradient id="paint25_linear_16_8639" x1="58.8362" y1="6.14648" x2="56.5013" y2="15.4687" gradientUnits="userSpaceOnUse">
<stop stop-color="#0057C7"/>
<stop offset="1" stop-color="#003E8D"/>
</linearGradient>
</defs>
</svg>
