<svg width="197" height="92" viewBox="0 0 197 92" fill="none" xmlns="http://www.w3.org/2000/svg">
<path d="M88.3179 52.0951C90.4532 56.9677 80.3322 59.5304 70.079 59.4039C59.8259 59.2774 47.6258 56.9663 42.1801 50.9877C40.6806 48.855 38.0653 48.7021 35.785 48.7465C33.5048 48.7909 25.1556 48.8597 23.649 48.894C22.1425 48.9284 17.8982 48.875 17.9936 48.5491C18.0969 48.1965 21.0808 47.8148 23.818 47.8744C27.6743 47.9585 33.3268 47.9139 33.1798 47.6268C33.0328 47.3396 27.0272 47.3257 24.0418 47.0259C21.0564 46.726 16.069 46.0895 16.4047 45.2644C16.7403 44.4393 20.2866 45.5485 23.7627 45.8216C27.2388 46.0947 32.2568 46.2678 32.1446 45.9462C32.0323 45.6245 20.6767 43.6852 21.6241 42.7635C22.5716 41.8417 33.5602 44.8789 38.8623 45.3937C46.7019 46.1548 49.1527 47.5668 55.6065 49.6173C60.1698 51.0671 68.4115 48.7177 74.1525 48.4707C79.8935 48.2237 86.9671 49.0162 88.3179 52.0951Z" fill="#115F1A"/>
<mask id="mask0_31_948" style="mask-type:alpha" maskUnits="userSpaceOnUse" x="16" y="42" width="73" height="18">
<path d="M88.3178 52.0951C90.4531 56.9677 80.3321 59.5304 70.079 59.4039C59.8258 59.2774 47.6257 56.9663 42.18 50.9877C40.6805 48.855 38.0652 48.7021 35.785 48.7465C33.5047 48.7909 25.1555 48.8597 23.649 48.894C22.1424 48.9284 17.8982 48.875 17.9936 48.5491C18.0969 48.1965 21.0807 47.8148 23.8179 47.8744C27.6742 47.9585 33.3267 47.9139 33.1797 47.6268C33.0327 47.3396 27.0271 47.3257 24.0417 47.0259C21.0563 46.726 16.069 46.0895 16.4046 45.2644C16.7403 44.4393 20.2865 45.5485 23.7626 45.8216C27.2387 46.0947 32.2567 46.2678 32.1445 45.9462C32.0323 45.6245 20.6766 43.6852 21.6241 42.7635C22.5715 41.8417 33.5602 44.8789 38.8622 45.3937C46.7018 46.1548 49.1526 47.5668 55.6065 49.6173C60.1698 51.0671 68.4114 48.7177 74.1524 48.4707C79.8934 48.2237 86.967 49.0162 88.3178 52.0951Z" fill="#115F1A"/>
</mask>
<g mask="url(#mask0_31_948)">
<path d="M51.6095 61.6887C54.8892 76.267 64.1661 75.4001 99.5026 53.9166C101.968 50.6913 105.061 41.9999 103.604 41.8384C101.783 41.6366 94.0391 44.5045 93.1442 44.9133C92.2493 45.3221 48.3298 47.1105 51.6095 61.6887Z" fill="black" fill-opacity="0.15"/>
</g>
<path d="M97.3314 49.0413C99.9707 48.8591 105.722 46.7034 107.49 46.0331C109.258 45.3628 110.484 42.2347 111.068 39.9869C111.652 37.7391 112.916 37.0582 114.1 37.4338C115.285 37.8094 113.631 39.3402 112.97 40.592C112.309 41.8439 111.418 42.5308 112.252 42.5734C113.086 42.616 117.996 38.4523 118.913 38.9988C119.83 39.5452 117.214 41.1353 116.061 42.3453C114.907 43.5553 114.541 44.2369 114.802 44.904C115.063 45.5711 122.817 44.8728 122.973 46.1903C123.129 47.5077 116.608 47.7871 115.09 47.4399C113.571 47.0927 112.243 48.5941 110.711 50.0844C109.179 51.5747 107.153 55.1947 97.2258 55.0496C87.299 54.9046 79.5674 50.9061 79.5674 50.9061C85.4216 50.0004 91.1006 49.4684 97.3314 49.0413Z" fill="#26853E"/>
<path d="M40.2274 62.2817C76.9973 40.606 105.219 55.6267 118.834 52.4821C122.474 51.6405 127.241 51.5497 129.534 52.1421C136.077 54.2417 134.941 56.8387 136.913 60.0125C138.119 61.9524 145.964 68.6641 140.395 71.9239C133.27 76.0938 130.107 71.2358 116.031 73.5062C90.6902 77.5899 81.364 84.1035 55.6842 77.2983C45.2214 74.5259 40.8822 68.7652 39.2337 65.6125C38.6423 64.4813 39.0467 62.9812 40.2274 62.2817Z" fill="url(#paint0_linear_31_948)"/>
<path d="M40.2274 62.2817C76.9973 40.606 105.219 55.6267 118.834 52.4821C122.474 51.6405 127.241 51.5497 129.534 52.1421C136.077 54.2417 134.941 56.8387 136.913 60.0125C138.119 61.9524 145.964 68.6641 140.395 71.9239C133.27 76.0938 130.107 71.2358 116.031 73.5062C90.6902 77.5899 81.364 84.1035 55.6842 77.2983C45.2214 74.5259 40.8822 68.7652 39.2337 65.6125C38.6423 64.4813 39.0467 62.9812 40.2274 62.2817Z" fill="url(#paint1_linear_31_948)"/>
<mask id="mask1_31_948" style="mask-type:alpha" maskUnits="userSpaceOnUse" x="38" y="50" width="105" height="31">
<path d="M38.4474 63.4896C76.1471 40.1405 105.109 55.7374 118.959 52.5386C122.599 51.697 127.366 51.6063 129.658 52.1986C136.202 54.2983 135.066 56.8953 137.038 60.069C138.244 62.009 146.089 68.7207 140.52 71.9805C133.395 76.1504 130.232 71.2924 116.156 73.5628C90.8152 77.6465 81.4889 84.1601 55.8092 77.3549C40.9786 73.4251 38.4513 63.4914 38.4513 63.4914L38.4474 63.4896Z" fill="black"/>
</mask>
<g mask="url(#mask1_31_948)">
<g style="mix-blend-mode:multiply">
<path d="M47.2557 59.7942C84.2379 45.1845 100.9 56.5004 119.434 54.9452C124.598 55.313 128.117 55.0028 130.077 55.8077C132.037 56.6126 146.64 70.9151 147.003 72.785C136.345 76.2304 116.353 81.6191 114.772 82.0885C113.191 82.5579 78.1418 84.1861 60.8147 84.9415C50.8763 79.6607 32.2447 65.7243 47.2557 59.7942Z" fill="url(#paint2_linear_31_948)" fill-opacity="0.46"/>
</g>
<g style="mix-blend-mode:multiply">
<path d="M47.2558 59.7942C63.512 50.4895 94.8734 75.3974 119.434 54.9452C124.393 55.3856 127.972 54.8911 130.077 55.8077C132.182 56.7243 146.579 70.7941 147.003 72.785C136.345 76.2304 116.353 81.6191 114.772 82.0885C113.191 82.5579 78.1419 84.1861 60.8148 84.9415C50.8764 79.6606 34.2509 67.2379 47.2558 59.7942Z" fill="url(#paint3_linear_31_948)" fill-opacity="0.46"/>
</g>
<g style="mix-blend-mode:screen">
<path d="M142.304 74.0906C151.241 71.1831 132.565 59.738 133.115 57.0916C133.034 57.4015 132.057 58.9599 128.795 62.7143C126.449 65.4155 120.823 65.5311 116.621 64.73C112.419 63.9289 108.765 61.212 106.06 63.437C104.875 64.4117 105.15 66.1883 108.577 67.497C112.974 69.1758 121.335 70.3794 125.444 71.2681C132.755 72.8494 135.637 76.2593 142.304 74.0906Z" fill="url(#paint4_linear_31_948)"/>
</g>
<g style="mix-blend-mode:screen">
<path d="M109.678 65.1059C111.795 68.9158 125.481 65.9292 144.662 75.0869C142.659 78.2994 137.127 84.8519 136.477 85.3181C135.665 85.9008 75.8906 93.0639 75.4351 92.8577C74.9796 92.6515 41.0008 83.4484 23.3383 63.6249C68.1387 85.8625 107.56 61.2961 109.678 65.1059Z" fill="url(#paint5_linear_31_948)"/>
<path d="M109.678 65.1059C111.795 68.9158 125.481 65.9292 144.662 75.0869C142.659 78.2994 137.127 84.8519 136.477 85.3181C135.665 85.9008 75.8906 93.0639 75.4351 92.8577C74.9796 92.6515 41.0008 83.4484 23.3383 63.6249C68.1387 85.8625 107.56 61.2961 109.678 65.1059Z" fill="url(#paint6_linear_31_948)"/>
</g>
<g style="mix-blend-mode:screen">
<path d="M33.2412 70.8454C76.712 87.2461 107.518 64.809 121.225 78.4354C134.932 92.0618 128.962 84.8823 124.554 89.2281C119.043 94.6604 108.807 96.6321 102.203 97.1102C95.5982 97.5883 79.7376 96.1881 60.327 92.5203C44.7986 89.586 35.7996 76.8478 33.2412 70.8454Z" fill="url(#paint7_linear_31_948)"/>
</g>
</g>
<mask id="mask2_31_948" style="mask-type:luminance" maskUnits="userSpaceOnUse" x="38" y="50" width="105" height="31">
<path d="M38.4474 63.4896C76.147 40.1405 105.109 55.7374 118.959 52.5386C122.599 51.697 127.366 51.6063 129.658 52.1986C136.202 54.2983 135.066 56.8953 137.038 60.069C138.244 62.009 146.089 68.7207 140.52 71.9805C133.395 76.1504 130.232 71.2924 116.156 73.5628C90.8151 77.6465 81.4888 84.1601 55.8091 77.3549C40.9786 73.4251 38.4513 63.4914 38.4513 63.4914L38.4474 63.4896Z" fill="white"/>
</mask>
<g mask="url(#mask2_31_948)">
<path d="M139.728 73.1771C127.957 66.7324 112.09 67.9872 108.742 64.9429" stroke="url(#paint8_linear_31_948)" stroke-width="1.29015" stroke-miterlimit="10" stroke-linecap="round"/>
</g>
<path d="M136.361 66.4433C137.4 66.5653 138.07 67.9144 136.613 68.8154C136.533 68.8653 136.401 68.8308 136.402 68.7659C136.405 68.6173 136.358 68.46 136.233 68.3553C134.591 67.2591 135.268 66.315 136.361 66.4433Z" fill="#0E6A19"/>
<path d="M129.61 54.4244C133.561 56.2132 133.907 59.7126 130.383 62.2402C126.858 64.7679 120.796 65.367 116.844 63.5781C112.893 61.7892 112.548 58.2897 116.073 55.7621C119.598 53.2347 125.658 52.6357 129.61 54.4244Z" fill="url(#paint9_linear_31_948)" stroke="url(#paint10_linear_31_948)"/>
<g filter="url(#filter0_i_31_948)">
<path d="M119.006 62.0282C121.62 63.2115 125.629 62.8153 127.96 61.1433C130.292 59.4714 130.063 57.1568 127.45 55.9735C124.836 54.7903 120.827 55.1864 118.495 56.8584C116.164 58.5304 116.392 60.845 119.006 62.0282Z" fill="url(#paint11_linear_31_948)"/>
</g>
<path d="M120.907 60.6653C122.344 61.3157 124.547 61.0979 125.829 60.1789C127.111 59.2599 126.985 57.9876 125.548 57.3372C124.112 56.6868 121.908 56.9046 120.626 57.8236C119.345 58.7426 119.47 60.0149 120.907 60.6653Z" fill="#060003"/>
<path d="M126.71 59.5709C127.509 59.492 128.099 58.8399 128.027 58.1146C127.955 57.3892 127.25 56.8652 126.451 56.9442C125.652 57.0232 125.062 57.6752 125.134 58.4005C125.205 59.1259 125.911 59.6499 126.71 59.5709Z" fill="white"/>
<path d="M86.6147 70.4634C88.6694 68.1214 94.2518 68.4896 99.5803 73.3169C104.909 78.1441 116.185 80.1046 118.913 80.4028C121.641 80.7011 126.812 75.1134 128.049 77.3131C128.386 77.9798 123.205 80.1276 123.205 80.1276C123.205 80.1276 127.283 79.5993 128.424 78.9545C129.564 78.3098 131.692 76.971 132.383 78.5633C132.859 80.3812 130.285 80.1965 128.613 80.8704C126.941 81.5443 123.858 82.0309 123.858 82.0309C123.858 82.0309 126.114 82.4188 126.987 82.3914C128.037 82.3586 132.189 81.1507 132.327 82.1721C132.466 83.1934 132.007 84.0838 129.767 84.3555C127.528 84.6273 123.87 84.6195 121.012 84.6654C118.154 84.7113 110.836 84.989 104.334 82.9896C97.8315 80.9902 89.2403 80.5819 86.6146 78.5652C83.9889 76.5485 84.5599 72.8053 86.6147 70.4634Z" fill="url(#paint12_linear_31_948)"/>
<path d="M86.6147 70.4634C88.6694 68.1214 94.2518 68.4896 99.5803 73.3169C104.909 78.1441 116.185 80.1046 118.913 80.4028C121.641 80.7011 126.812 75.1134 128.049 77.3131C128.386 77.9798 123.205 80.1276 123.205 80.1276C123.205 80.1276 127.283 79.5993 128.424 78.9545C129.564 78.3098 131.692 76.971 132.383 78.5633C132.859 80.3812 130.285 80.1965 128.613 80.8704C126.941 81.5443 123.858 82.0309 123.858 82.0309C123.858 82.0309 126.114 82.4188 126.987 82.3914C128.037 82.3586 132.189 81.1507 132.327 82.1721C132.466 83.1934 132.007 84.0838 129.767 84.3555C127.528 84.6273 123.87 84.6195 121.012 84.6654C118.154 84.7113 110.836 84.989 104.334 82.9896C97.8315 80.9902 89.2403 80.5819 86.6146 78.5652C83.9889 76.5485 84.5599 72.8053 86.6147 70.4634Z" fill="url(#paint13_linear_31_948)"/>
<mask id="mask3_31_948" style="mask-type:alpha" maskUnits="userSpaceOnUse" x="84" y="69" width="49" height="16">
<path d="M86.6147 70.4632C88.6694 68.1213 94.2518 68.4895 99.5803 73.3168C104.909 78.144 116.185 80.1045 118.913 80.4027C121.641 80.701 126.812 75.1133 128.049 77.3129C128.386 77.9797 123.205 80.1275 123.205 80.1275C123.205 80.1275 127.283 79.5992 128.424 78.9544C129.564 78.3097 131.692 76.9708 132.383 78.5631C132.859 80.3811 130.285 80.1963 128.613 80.8702C126.941 81.5442 123.858 82.0308 123.858 82.0308C123.858 82.0308 126.114 82.4187 126.987 82.3913C128.037 82.3584 132.189 81.1506 132.327 82.1719C132.466 83.1933 132.007 84.0836 129.767 84.3554C127.528 84.6272 123.87 84.6194 121.012 84.6653C118.154 84.7112 110.836 84.9888 104.334 82.9895C97.8315 80.9901 89.2403 80.5818 86.6146 78.5651C83.9889 76.5484 84.5599 72.8052 86.6147 70.4632Z" fill="url(#paint14_linear_31_948)"/>
<path d="M86.6147 70.4632C88.6694 68.1213 94.2518 68.4895 99.5803 73.3168C104.909 78.144 116.185 80.1045 118.913 80.4027C121.641 80.701 126.812 75.1133 128.049 77.3129C128.386 77.9797 123.205 80.1275 123.205 80.1275C123.205 80.1275 127.283 79.5992 128.424 78.9544C129.564 78.3097 131.692 76.9708 132.383 78.5631C132.859 80.3811 130.285 80.1963 128.613 80.8702C126.941 81.5442 123.858 82.0308 123.858 82.0308C123.858 82.0308 126.114 82.4187 126.987 82.3913C128.037 82.3584 132.189 81.1506 132.327 82.1719C132.466 83.1933 132.007 84.0836 129.767 84.3554C127.528 84.6272 123.87 84.6194 121.012 84.6653C118.154 84.7112 110.836 84.9888 104.334 82.9895C97.8315 80.9901 89.2403 80.5818 86.6146 78.5651C83.9889 76.5484 84.5599 72.8052 86.6147 70.4632Z" fill="url(#paint15_linear_31_948)"/>
</mask>
<g mask="url(#mask3_31_948)">
<g style="mix-blend-mode:screen">
<path d="M106.833 84.0666C95.5918 83.5184 88.1938 71.2863 93.1899 68.404C98.1859 65.5217 91.3819 64.8137 90.7262 64.7861C89.9066 64.7515 85.1659 64.7908 84.0959 66.1529C83.0259 67.5149 80.9012 79.5344 81.7023 83.5184C82.5034 87.5024 91.7954 88.7037 92.2519 88.5539C92.6171 88.4342 102.544 87.1253 106.833 84.0666Z" fill="url(#paint16_linear_31_948)" fill-opacity="0.47"/>
</g>
<g style="mix-blend-mode:color-dodge">
<path d="M101.743 82.91C86.6588 80.4116 86.1763 71.7342 92.1336 69.076C98.091 66.4179 92.748 64.7899 92.1336 64.5593C91.3656 64.2711 86.8487 62.831 85.4076 63.7918C83.9664 64.7526 78.2018 75.5113 77.7214 79.5466C77.241 83.5818 85.6959 87.619 86.1763 87.619C86.5606 87.619 96.7143 84.4797 101.743 82.91Z" fill="url(#paint17_linear_31_948)" fill-opacity="0.65"/>
</g>
</g>
<path d="M69.098 72.392C68.5136 77.5483 59.8144 80.9267 50.8194 81.748C41.8243 82.5694 29.813 80.2199 28.0336 74.1577C27.6687 72.9147 26.4626 72.6458 24.4254 72.9081C22.3882 73.1705 14.0036 73.7914 12.655 73.9703C11.3064 74.1492 8.27588 74.3908 8.52543 74.0237C8.79553 73.6263 10.9332 73.0245 13.3214 72.8336C16.686 72.5648 21.7028 71.9864 21.7186 71.6845C21.7343 71.3826 16.4351 71.9298 13.9494 71.8799C11.4637 71.8299 7.37997 71.5974 8.09498 70.6589C8.81 69.7204 11.3808 70.6075 14.3136 70.5822C17.2464 70.5568 21.5923 70.2771 21.6562 69.934C21.7202 69.5909 12.6704 68.5228 13.975 67.4207C15.2796 66.3187 26.1655 68.5454 30.2845 69.0725C34.8634 69.6584 35.8619 70.1224 40.5243 71.772C43.8209 72.9383 52.2944 69.5836 57.4921 68.7744C62.6899 67.9651 69.5075 68.7766 69.098 72.392Z" fill="url(#paint18_linear_31_948)"/>
<path d="M69.098 72.392C68.5136 77.5483 59.8144 80.9267 50.8194 81.748C41.8243 82.5694 29.813 80.2199 28.0336 74.1577C27.6687 72.9147 26.4626 72.6458 24.4254 72.9081C22.3882 73.1705 14.0036 73.7914 12.655 73.9703C11.3064 74.1492 8.27588 74.3908 8.52543 74.0237C8.79553 73.6263 10.9332 73.0245 13.3214 72.8336C16.686 72.5648 21.7028 71.9864 21.7186 71.6845C21.7343 71.3826 16.4351 71.9298 13.9494 71.8799C11.4637 71.8299 7.37997 71.5974 8.09498 70.6589C8.81 69.7204 11.3808 70.6075 14.3136 70.5822C17.2464 70.5568 21.5923 70.2771 21.6562 69.934C21.7202 69.5909 12.6704 68.5228 13.975 67.4207C15.2796 66.3187 26.1655 68.5454 30.2845 69.0725C34.8634 69.6584 35.8619 70.1224 40.5243 71.772C43.8209 72.9383 52.2944 69.5836 57.4921 68.7744C62.6899 67.9651 69.5075 68.7766 69.098 72.392Z" fill="url(#paint19_linear_31_948)"/>
<mask id="mask4_31_948" style="mask-type:alpha" maskUnits="userSpaceOnUse" x="8" y="67" width="62" height="15">
<path d="M69.099 72.3915C68.5145 77.5478 59.8153 80.9262 50.8203 81.7475C41.8252 82.5689 29.814 80.2194 28.0345 74.1572C27.6697 72.9142 26.4635 72.6453 24.4263 72.9077C22.3891 73.1701 14.0045 73.7909 12.6559 73.9698C11.3074 74.1487 8.2768 74.3903 8.52635 74.0232C8.79645 73.6258 10.9341 73.024 13.3223 72.8332C16.6869 72.5643 21.7038 71.9859 21.7195 71.684C21.7352 71.3821 16.436 71.9294 13.9503 71.8794C11.4647 71.8294 7.38088 71.5969 8.0959 70.6584C8.81092 69.7199 11.3817 70.607 14.3145 70.5817C17.2473 70.5563 21.5932 70.2766 21.6572 69.9335C21.7211 69.5904 12.6713 68.5223 13.9759 67.4202C15.2805 66.3182 26.1664 68.5449 30.2855 69.072C34.8643 69.6579 35.8628 70.122 40.5252 71.7715C43.8219 72.9378 52.2953 69.5831 57.4931 68.7739C62.6908 67.9647 69.5084 68.7761 69.099 72.3915Z" fill="url(#paint20_linear_31_948)"/>
<path d="M69.099 72.3915C68.5145 77.5478 59.8153 80.9262 50.8203 81.7475C41.8252 82.5689 29.814 80.2194 28.0345 74.1572C27.6697 72.9142 26.4635 72.6453 24.4263 72.9077C22.3891 73.1701 14.0045 73.7909 12.6559 73.9698C11.3074 74.1487 8.2768 74.3903 8.52635 74.0232C8.79645 73.6258 10.9341 73.024 13.3223 72.8332C16.6869 72.5643 21.7038 71.9859 21.7195 71.684C21.7352 71.3821 16.436 71.9294 13.9503 71.8794C11.4647 71.8294 7.38088 71.5969 8.0959 70.6584C8.81092 69.7199 11.3817 70.607 14.3145 70.5817C17.2473 70.5563 21.5932 70.2766 21.6572 69.9335C21.7211 69.5904 12.6713 68.5223 13.9759 67.4202C15.2805 66.3182 26.1664 68.5449 30.2855 69.072C34.8643 69.6579 35.8628 70.122 40.5252 71.7715C43.8219 72.9378 52.2953 69.5831 57.4931 68.7739C62.6908 67.9647 69.5084 68.7761 69.099 72.3915Z" fill="url(#paint21_linear_31_948)"/>
</mask>
<g mask="url(#mask4_31_948)">
<g style="mix-blend-mode:screen">
<path d="M28.9543 79.5651C52.2538 80.081 68.7539 66.4886 36.7191 68.097C39.3553 66.4925 60.8488 61.4286 67.9625 61.6952C76.8547 62.0285 76.1906 62.8401 76.2957 64.4578C76.4008 66.0755 73.2433 72.0894 72.4911 72.7255C71.8894 73.2344 55.0756 83.7117 49.4145 85.738L28.9543 79.5651Z" fill="url(#paint22_linear_31_948)" fill-opacity="0.47"/>
</g>
<g style="mix-blend-mode:color-dodge">
<path d="M35.1048 80.4994C51.8629 83.7502 78.8231 69.7172 59.5886 68.2187C62.7825 67.111 70.2912 65.2569 74.9011 67.4519C80.6634 70.1956 79.5035 70.9341 78.1642 72.7867C76.8249 74.6392 69.4305 80.5813 68.3637 81.0985C67.5103 81.5122 56.0552 83.1714 50.4344 83.9494L35.1048 80.4994Z" fill="url(#paint23_linear_31_948)" fill-opacity="0.65"/>
</g>
</g>
<defs>
<filter id="filter0_i_31_948" x="116.886" y="53.2917" width="12.6841" height="9.41821" filterUnits="userSpaceOnUse" color-interpolation-filters="sRGB">
<feFlood flood-opacity="0" result="BackgroundImageFix"/>
<feBlend mode="normal" in="SourceGraphic" in2="BackgroundImageFix" result="shape"/>
<feColorMatrix in="SourceAlpha" type="matrix" values="0 0 0 0 0 0 0 0 0 0 0 0 0 0 0 0 0 0 127 0" result="hardAlpha"/>
<feOffset dy="-2"/>
<feGaussianBlur stdDeviation="1.5"/>
<feComposite in2="hardAlpha" operator="arithmetic" k2="-1" k3="1"/>
<feColorMatrix type="matrix" values="0 0 0 0 1 0 0 0 0 1 0 0 0 0 1 0 0 0 1 0"/>
<feBlend mode="normal" in2="shape" result="effect1_innerShadow_31_948"/>
</filter>
<linearGradient id="paint0_linear_31_948" x1="58.0613" y1="49.2769" x2="96.7583" y2="103.241" gradientUnits="userSpaceOnUse">
<stop stop-color="#217A3A"/>
<stop offset="1" stop-color="#50E342"/>
</linearGradient>
<linearGradient id="paint1_linear_31_948" x1="55.2744" y1="28.6306" x2="68.3121" y2="60.4522" gradientUnits="userSpaceOnUse">
<stop stop-color="#86FF7B"/>
<stop offset="1" stop-color="#86FF7B" stop-opacity="0"/>
</linearGradient>
<linearGradient id="paint2_linear_31_948" x1="83.4185" y1="57.1115" x2="87.4473" y2="82.7791" gradientUnits="userSpaceOnUse">
<stop stop-color="#10672B"/>
<stop offset="1" stop-color="#54E37F"/>
</linearGradient>
<linearGradient id="paint3_linear_31_948" x1="83.4181" y1="57.1118" x2="87.447" y2="82.7794" gradientUnits="userSpaceOnUse">
<stop stop-color="#10672B"/>
<stop offset="1" stop-color="#54E37F"/>
</linearGradient>
<linearGradient id="paint4_linear_31_948" x1="109.297" y1="72.7337" x2="115.323" y2="51.4254" gradientUnits="userSpaceOnUse">
<stop stop-color="#C5F3BB" stop-opacity="0.82"/>
<stop offset="1" stop-color="#54DF66" stop-opacity="0.67"/>
</linearGradient>
<linearGradient id="paint5_linear_31_948" x1="93.3224" y1="93.7022" x2="108.395" y2="60.077" gradientUnits="userSpaceOnUse">
<stop stop-color="#06FF26" stop-opacity="0.18"/>
<stop offset="1" stop-color="#45FF5D" stop-opacity="0.67"/>
</linearGradient>
<linearGradient id="paint6_linear_31_948" x1="100.609" y1="75.6356" x2="141.774" y2="64.6872" gradientUnits="userSpaceOnUse">
<stop stop-color="#06FF26" stop-opacity="0.18"/>
<stop offset="1" stop-color="#DAFFDF" stop-opacity="0.67"/>
</linearGradient>
<linearGradient id="paint7_linear_31_948" x1="87.9551" y1="98.4565" x2="100.937" y2="69.4861" gradientUnits="userSpaceOnUse">
<stop stop-color="#06FF26" stop-opacity="0.18"/>
<stop offset="1" stop-color="#45FF5D" stop-opacity="0.67"/>
</linearGradient>
<linearGradient id="paint8_linear_31_948" x1="111.005" y1="63.1139" x2="141.757" y2="101.16" gradientUnits="userSpaceOnUse">
<stop stop-color="#0E5923"/>
<stop offset="1" stop-color="#1C990F"/>
</linearGradient>
<linearGradient id="paint9_linear_31_948" x1="135.011" y1="53.923" x2="121.609" y2="67.8177" gradientUnits="userSpaceOnUse">
<stop stop-color="#177332"/>
<stop offset="1" stop-color="#001C08"/>
</linearGradient>
<linearGradient id="paint10_linear_31_948" x1="131.647" y1="55.8036" x2="119.86" y2="66.6795" gradientUnits="userSpaceOnUse">
<stop stop-color="#A7F582"/>
<stop offset="1" stop-color="#54DF66"/>
</linearGradient>
<linearGradient id="paint11_linear_31_948" x1="127.45" y1="55.9735" x2="121.552" y2="63.4462" gradientUnits="userSpaceOnUse">
<stop stop-color="#0057C7"/>
<stop offset="1" stop-color="#003E8D"/>
</linearGradient>
<linearGradient id="paint12_linear_31_948" x1="120.023" y1="95.6928" x2="104.313" y2="45.7737" gradientUnits="userSpaceOnUse">
<stop stop-color="#207338"/>
<stop offset="1" stop-color="#218E42"/>
</linearGradient>
<linearGradient id="paint13_linear_31_948" x1="114.178" y1="93.8889" x2="113.167" y2="66.1094" gradientUnits="userSpaceOnUse">
<stop stop-color="#3AA95A" stop-opacity="0"/>
<stop offset="1" stop-color="#3AA75B"/>
</linearGradient>
<linearGradient id="paint14_linear_31_948" x1="120.023" y1="95.6927" x2="104.313" y2="45.7736" gradientUnits="userSpaceOnUse">
<stop stop-color="#207338"/>
<stop offset="1" stop-color="#218E42"/>
</linearGradient>
<linearGradient id="paint15_linear_31_948" x1="114.178" y1="93.8888" x2="90.4857" y2="59.9972" gradientUnits="userSpaceOnUse">
<stop stop-color="#3AA95A" stop-opacity="0"/>
<stop offset="1" stop-color="#3AA75B"/>
</linearGradient>
<linearGradient id="paint16_linear_31_948" x1="92.7707" y1="64.1318" x2="99.3828" y2="84.2924" gradientUnits="userSpaceOnUse">
<stop stop-color="#5AD55F"/>
<stop offset="1" stop-color="#3EB25B"/>
</linearGradient>
<linearGradient id="paint17_linear_31_948" x1="105.526" y1="71.5216" x2="78.0109" y2="85.6857" gradientUnits="userSpaceOnUse">
<stop stop-color="#5AD55F"/>
<stop offset="1" stop-color="#3EB25B" stop-opacity="0.85"/>
</linearGradient>
<linearGradient id="paint18_linear_31_948" x1="7.41533" y1="71.7866" x2="10.6057" y2="82.427" gradientUnits="userSpaceOnUse">
<stop stop-color="#207338"/>
<stop offset="1" stop-color="#218E42"/>
</linearGradient>
<linearGradient id="paint19_linear_31_948" x1="34.1809" y1="80.2589" x2="56.641" y2="94.6586" gradientUnits="userSpaceOnUse">
<stop stop-color="#3AA95A" stop-opacity="0"/>
<stop offset="1" stop-color="#3AA75B"/>
</linearGradient>
<linearGradient id="paint20_linear_31_948" x1="8.78988" y1="86.8841" x2="59.7019" y2="103.945" gradientUnits="userSpaceOnUse">
<stop stop-color="#207338"/>
<stop offset="1" stop-color="#218E42"/>
</linearGradient>
<linearGradient id="paint21_linear_31_948" x1="19.5439" y1="84.9845" x2="59.5377" y2="97.1784" gradientUnits="userSpaceOnUse">
<stop stop-color="#3AA95A" stop-opacity="0"/>
<stop offset="1" stop-color="#3AA75B"/>
</linearGradient>
<linearGradient id="paint22_linear_31_948" x1="72.8436" y1="63.2004" x2="71.4981" y2="86.9906" gradientUnits="userSpaceOnUse">
<stop stop-color="#5AD55F"/>
<stop offset="1" stop-color="#3EB25B"/>
</linearGradient>
<linearGradient id="paint23_linear_31_948" x1="73.7577" y1="69.9527" x2="59.7576" y2="94.1916" gradientUnits="userSpaceOnUse">
<stop stop-color="#5AD55F"/>
<stop offset="1" stop-color="#3EB25B"/>
</linearGradient>
</defs>
</svg>
