<svg width="83" height="74" viewBox="0 0 83 74" fill="none" xmlns="http://www.w3.org/2000/svg">
<path d="M65.7238 28.7266C66.743 34.3019 64.3907 38.9302 63.952 43.1662C63.694 45.6734 67.6934 55.6118 69.5384 57.4481C70.1533 58.0631 71.9466 59.2672 74.8193 60.2435C78.2167 61.4003 82.7494 62.1658 82.7494 63.5075C82.7494 65.5976 80.0358 65.4943 78.8102 64.5869C77.5846 63.6795 73.3314 62.6388 72.5874 62.8151C74.8753 64.1096 75.6192 66.2899 74.1313 66.5007C72.6433 66.7114 71.0435 66.9264 70.2479 65.3309C69.4523 63.7354 68.5449 62.9571 67.057 62.4969C65.569 62.0368 56.7358 63.6838 56.5208 61.9292C56.3057 60.1746 59.501 61.0777 61.3072 60.4929C63.1134 59.908 62.8511 59.5339 61.3588 57.8868C59.8666 56.2397 53.218 46.1809 55.136 37.352C57.054 28.5231 65.7238 26.0718 65.7238 26.0718L66.743 29.7702L65.7238 28.7266Z" fill="#26853E"/>
<path d="M6.02002 56.0376C9.47761 13.523 43.602 16.1377 49.9194 6.17777C51.5794 3.55877 54.7015 1.19351 56.8002 0.724753C63.1735 -0.18265 64.8464 3.09002 69.1512 5.48969C71.7831 6.95616 83.36 10.2804 82.6719 16.3613C81.7903 24.1409 75.1031 20.5371 67.7621 29.6283C54.5424 45.9917 54.379 57.2848 30.7134 62.355C17.0465 65.2837 6.02432 56.0376 6.02432 56.0376H6.02002Z" fill="url(#paint0_linear_2030_12592)"/>
<path d="M6.02002 56.0376C9.47761 13.523 43.602 16.1377 49.9194 6.17777C51.5794 3.55877 54.7015 1.19351 56.8002 0.724753C63.1735 -0.18265 64.8464 3.09002 69.1512 5.48969C71.7831 6.95616 83.36 10.2804 82.6719 16.3613C81.7903 24.1409 75.1031 20.5371 67.7621 29.6283C54.5424 45.9917 54.379 57.2848 30.7134 62.355C17.0465 65.2837 6.02432 56.0376 6.02432 56.0376H6.02002Z" fill="url(#paint1_linear_2030_12592)"/>
<mask id="mask0_2030_12592" style="mask-type:alpha" maskUnits="userSpaceOnUse" x="6" y="0" width="77" height="63">
<path d="M6.15723 56.0376C9.61482 13.523 43.7392 16.1377 50.0566 6.17777C51.7166 3.55877 54.8388 1.19351 56.9374 0.724753C63.3107 -0.18265 64.9836 3.09002 69.2884 5.48969C71.9203 6.95616 83.4972 10.2804 82.8091 16.3613C81.9275 24.1409 75.2403 20.5371 67.8993 29.6283C54.6796 45.9917 54.5162 57.2848 30.8506 62.355C17.1837 65.2837 6.16153 56.0376 6.16153 56.0376H6.15723Z" fill="black"/>
</mask>
<g mask="url(#mask0_2030_12592)">
<g style="mix-blend-mode:multiply">
<path d="M8.61661 47.9557C19.7923 14.976 41.6224 18.9451 52.6347 8.48298C56.4546 6.41082 58.5317 4.40843 60.6059 4.32173C62.6801 4.23504 85.9273 12.3264 87.9264 14.1204C83.9877 22.8202 75.5916 38.0093 74.9683 39.2558C74.3451 40.5024 52.2884 58.906 41.338 67.952C29.6951 67.1296 4.08041 61.3421 8.61661 47.9557Z" fill="url(#paint2_linear_2030_12592)" fill-opacity="0.46"/>
</g>
<g style="mix-blend-mode:multiply">
<path d="M8.61678 47.9557C10.8242 30.4264 55.3001 41.6933 52.6348 8.48299C56.3852 6.58455 58.3295 4.35998 60.6061 4.32174C62.8826 4.28351 85.7727 12.2282 87.9266 14.1204C83.9879 22.8202 75.5918 38.0093 74.9685 39.2558C74.3453 40.5024 52.2886 58.906 41.3382 67.952C29.6952 67.1296 6.85086 61.979 8.61678 47.9557Z" fill="url(#paint3_linear_2030_12592)" fill-opacity="0.46"/>
</g>
<g style="mix-blend-mode:screen">
<path d="M85.9894 17.7318C89.275 10.4172 65.9678 7.27176 63.8546 4.22607C64.0911 4.5905 64.8962 6.695 66.2244 12.1976C67.18 16.1566 63.5028 18.9574 59.9236 20.1157C56.3445 21.274 51.3361 20.1561 51.6038 23.7849C51.7211 25.3744 53.5736 27.1122 57.1076 26.8567C61.6416 26.529 68.3969 23.8135 71.9957 22.7917C78.3996 20.9733 83.5386 23.1878 85.9894 17.7318Z" fill="url(#paint4_linear_2030_12592)"/>
</g>
<g style="mix-blend-mode:screen">
<path d="M55.6041 23.8175C60.6041 26.8167 67.0107 17.1577 88.5106 17.6569C90.1773 21.9901 92.6041 31.5169 92.6041 32.3169C92.6041 33.3169 59.1041 69.3169 58.6041 69.3169C58.1041 69.3169 26.604 75.8169 -3.88281 63.375C47.1304 65.433 50.6042 20.8182 55.6041 23.8175Z" fill="url(#paint5_linear_2030_12592)"/>
<path d="M55.6041 23.8175C60.6041 26.8167 67.0107 17.1577 88.5106 17.6569C90.1773 21.9901 92.6041 31.5169 92.6041 32.3169C92.6041 33.3169 59.1041 69.3169 58.6041 69.3169C58.1041 69.3169 26.604 75.8169 -3.88281 63.375C47.1304 65.433 50.6042 20.8182 55.6041 23.8175Z" fill="url(#paint6_linear_2030_12592)"/>
</g>
<g style="mix-blend-mode:screen">
<path d="M9.55664 66.2547C54.1979 62.8059 53.8726 24.5335 75.8827 32.3401C97.8928 40.1466 87.1383 35.4375 88.2501 42.1082C89.6398 50.4466 84.602 57.3953 80.6066 61.0433C76.6111 64.6913 64.6247 70.7714 48.1217 76.1566C34.9192 80.4647 16.9106 71.3504 9.55664 66.2547Z" fill="url(#paint7_linear_2030_12592)"/>
</g>
</g>
<path d="M0.227416 56.1918C1.21223 64.324 19.8978 64.7154 23.1103 68.6503C26.3228 72.5853 30.4555 71.9961 31.3715 70.0265C32.2875 68.0568 25.6003 67.2742 25.4713 65.3045C31.2425 67.0763 34.8097 69.0019 37.4051 68.9771C40.0006 68.9524 41.1352 68.5261 39.2989 66.8876C38.6534 66.3117 37.3668 66.3943 36.0809 66.0171C33.7084 65.3211 30.9841 64.3959 29.7933 64.3095C29.4998 64.2882 37.648 64.6866 37.648 63.499C37.8868 62.0941 29.0184 63.2713 28.1607 62.9897C24.0131 61.6283 20.0765 60.5255 19.2442 60.1482C30.9329 57.8088 31.9865 52.0762 29.7933 47.4919C25.2821 38.0609 -1.38527 42.8474 0.227416 56.1918Z" fill="url(#paint8_linear_2030_12592)"/>
<path d="M0.227416 56.1918C1.21223 64.324 19.8978 64.7154 23.1103 68.6503C26.3228 72.5853 30.4555 71.9961 31.3715 70.0265C32.2875 68.0568 25.6003 67.2742 25.4713 65.3045C31.2425 67.0763 34.8097 69.0019 37.4051 68.9771C40.0006 68.9524 41.1352 68.5261 39.2989 66.8876C38.6534 66.3117 37.3668 66.3943 36.0809 66.0171C33.7084 65.3211 30.9841 64.3959 29.7933 64.3095C29.4998 64.2882 37.648 64.6866 37.648 63.499C37.8868 62.0941 29.0184 63.2713 28.1607 62.9897C24.0131 61.6283 20.0765 60.5255 19.2442 60.1482C30.9329 57.8088 31.9865 52.0762 29.7933 47.4919C25.2821 38.0609 -1.38527 42.8474 0.227416 56.1918Z" fill="url(#paint9_linear_2030_12592)"/>
<mask id="mask1_2030_12592" style="mask-type:alpha" maskUnits="userSpaceOnUse" x="0" y="42" width="41" height="30">
<path d="M0.227416 56.1918C1.21223 64.324 19.8978 64.7154 23.1103 68.6503C26.3228 72.5853 30.4555 71.9961 31.3715 70.0265C32.2876 68.0568 25.6003 67.2742 25.4713 65.3045C31.2425 67.0763 34.1927 69.304 37.4051 68.9771C40.6176 68.6503 41.1423 67.8633 39.3059 66.2248C37.4696 64.5863 35.8312 65.3088 33.9948 65.1755C32.1585 65.0422 20.4397 60.6901 19.2442 60.1482C30.9329 57.8088 31.9865 52.0762 29.7933 47.4919C25.2821 38.0609 -1.38527 42.8474 0.227416 56.1918Z" fill="url(#paint10_linear_2030_12592)"/>
</mask>
<g mask="url(#mask1_2030_12592)">
<g style="mix-blend-mode:multiply">
<path d="M18.7461 62.9292C19.1271 63.0042 19.5243 63.1137 19.9312 63.253C26.6446 65.1262 32.1149 67.3506 35.1153 70.9011L42.4146 68.969C42.4226 68.9654 42.4294 68.9636 42.435 68.9636L42.4146 68.969C41.947 69.178 37.3727 75.3775 26.7542 73.0179C32.3109 72.0344 25.2754 65.0822 19.9312 63.253C19.5403 63.144 19.1452 63.0361 18.7461 62.9292Z" fill="url(#paint11_linear_2030_12592)" fill-opacity="0.47"/>
</g>
<g style="mix-blend-mode:multiply">
<path d="M6.48022 55.891C11.8651 56.9506 26.6531 60.5694 34.0479 49.9351C42.5956 51.8346 34.0275 58.6406 30.2473 61.3967C34.4815 61.8448 37.6126 62.1294 38.0502 62.5669C39.2502 63.7669 49.5311 65.8489 51.0311 69.3489L28.6572 62.5679C28.5877 62.5679 29.2513 62.1229 30.2473 61.3967C22.8682 60.6159 12.1392 59.3387 6.48022 55.891Z" fill="url(#paint12_linear_2030_12592)" fill-opacity="0.47"/>
</g>
<g style="mix-blend-mode:screen">
<path d="M11.1571 58.0691C31.9388 56.7618 14.431 44.0543 -0.353516 53.9941C5.48496 33.3711 28.9571 38.8683 30.1571 40.0683C31.3571 41.2683 34.6571 48.5683 36.1571 52.0683L28.6571 62.5683C28.3238 62.5683 21.9571 60.4691 11.1571 58.0691Z" fill="url(#paint13_linear_2030_12592)" fill-opacity="0.47"/>
</g>
<g style="mix-blend-mode:color-dodge">
<path d="M11.1572 58.0699C31.939 56.7626 25.0806 41.5816 11.9786 43.483C17.5927 39.483 28.9572 38.8691 30.1572 40.0691C31.3572 41.2691 34.6572 48.5691 36.1572 52.0691L28.6572 62.5691C28.3239 62.5691 21.9572 60.4699 11.1572 58.0699Z" fill="url(#paint14_linear_2030_12592)" fill-opacity="0.65"/>
</g>
</g>
<mask id="mask2_2030_12592" style="mask-type:luminance" maskUnits="userSpaceOnUse" x="6" y="0" width="77" height="63">
<path d="M6.15723 56.0376C9.61482 13.523 43.7392 16.1377 50.0566 6.17777C51.7166 3.55877 54.8388 1.19351 56.9374 0.724753C63.3107 -0.18265 64.9836 3.09002 69.2884 5.48969C71.9203 6.95616 83.4972 10.2804 82.8091 16.3613C81.9275 24.1409 75.2403 20.5371 67.8993 29.6283C54.6796 45.9917 54.5162 57.2848 30.8506 62.355C17.1837 65.2837 6.16153 56.0376 6.16153 56.0376H6.15723Z" fill="white"/>
</mask>
<g mask="url(#mask2_2030_12592)">
<path d="M83.3988 17.9975C69.4308 16.8235 59.931 25.6997 54.822 24.0913" stroke="url(#paint15_linear_2030_12592)" stroke-width="1.29015" stroke-miterlimit="10" stroke-linecap="round"/>
</g>
<path d="M74.8152 12.5174C75.6293 12.1507 77.3455 13.2513 77.2112 14.8924C77.2037 14.9834 77.0826 15.0099 77.0226 14.941C76.885 14.7834 76.706 14.64 76.5237 14.5894C74.3896 14.2186 73.9594 12.9029 74.8152 12.5174Z" fill="#0E6A19"/>
<path d="M47.3863 32.8761C52.5856 35.8391 50.8955 42.5651 41.9118 48.8352C41.6796 51.3166 48.04 62.9279 50.616 63.2505C53.8457 63.6547 61.6122 63.2505 61.6122 65.7741C61.5735 66.5009 57.3506 66.0458 57.3506 66.0458C57.3506 66.0458 58.5547 66.665 60.3265 67.1295C62.9197 67.809 66.2901 68.7608 66.0849 70.385C65.5345 71.9274 61.6855 70.9913 59.6212 69.727C57.557 68.4626 55.2863 68.5788 55.2863 68.5788C55.2863 68.5788 55.811 69.0905 56.7055 69.942C57.7806 70.9655 58.2279 72.7081 57.7892 73.4469C57.3506 74.1857 55.4931 72.8314 54.8393 71.5238C54.1855 70.2163 52.1384 69.1636 48.9388 68.497C48.169 68.3379 45.5973 67.6412 44.0449 66.2651C39.1638 61.9259 31.3627 50.3361 33.4442 45.6701C34.7773 42.6769 43.5331 30.6872 47.3777 32.8761H47.3863Z" fill="url(#paint16_linear_2030_12592)"/>
<path d="M47.3863 32.8761C52.5856 35.8391 50.8955 42.5651 41.9118 48.8352C41.6796 51.3166 48.04 62.9279 50.616 63.2505C53.8457 63.6547 61.6122 63.2505 61.6122 65.7741C61.5735 66.5009 57.3506 66.0458 57.3506 66.0458C57.3506 66.0458 58.5547 66.665 60.3265 67.1295C62.9197 67.809 66.2901 68.7608 66.0849 70.385C65.5345 71.9274 61.6855 70.9913 59.6212 69.727C57.557 68.4626 55.2863 68.5788 55.2863 68.5788C55.2863 68.5788 55.811 69.0905 56.7055 69.942C57.7806 70.9655 58.2279 72.7081 57.7892 73.4469C57.3506 74.1857 55.4931 72.8314 54.8393 71.5238C54.1855 70.2163 52.1384 69.1636 48.9388 68.497C48.169 68.3379 45.5973 67.6412 44.0449 66.2651C39.1638 61.9259 31.3627 50.3361 33.4442 45.6701C34.7773 42.6769 43.5331 30.6872 47.3777 32.8761H47.3863Z" fill="url(#paint17_linear_2030_12592)"/>
<mask id="mask3_2030_12592" style="mask-type:alpha" maskUnits="userSpaceOnUse" x="33" y="32" width="34" height="42">
<path d="M47.3863 32.8761C52.5856 35.8391 50.8955 42.5651 41.9118 48.8352C41.6796 51.3166 48.04 62.9279 50.616 63.2505C53.8457 63.6547 61.6122 63.2505 61.6122 65.7741C61.5735 66.5009 57.3506 66.0458 57.3506 66.0458C57.3506 66.0458 58.5547 66.665 60.3265 67.1295C62.9197 67.809 66.2901 68.7608 66.0849 70.385C65.5345 71.9274 61.6855 70.9913 59.6212 69.727C57.557 68.4626 55.2863 68.5788 55.2863 68.5788C55.2863 68.5788 55.811 69.0905 56.7055 69.942C57.7806 70.9655 58.2279 72.7081 57.7892 73.4469C57.3506 74.1857 55.4931 72.8314 54.8393 71.5238C54.1855 70.2163 52.1384 69.1636 48.9388 68.497C48.169 68.3379 45.5973 67.6412 44.0449 66.2651C39.1638 61.9259 31.3627 50.3361 33.4442 45.6701C34.7773 42.6769 43.5331 30.6872 47.3777 32.8761H47.3863Z" fill="url(#paint18_linear_2030_12592)"/>
<path d="M47.3863 32.8761C52.5856 35.8391 50.8955 42.5651 41.9118 48.8352C41.6796 51.3166 48.04 62.9279 50.616 63.2505C53.8457 63.6547 61.6122 63.2505 61.6122 65.7741C61.5735 66.5009 57.3506 66.0458 57.3506 66.0458C57.3506 66.0458 58.5547 66.665 60.3265 67.1295C62.9197 67.809 66.2901 68.7608 66.0849 70.385C65.5345 71.9274 61.6855 70.9913 59.6212 69.727C57.557 68.4626 55.2863 68.5788 55.2863 68.5788C55.2863 68.5788 55.811 69.0905 56.7055 69.942C57.7806 70.9655 58.2279 72.7081 57.7892 73.4469C57.3506 74.1857 55.4931 72.8314 54.8393 71.5238C54.1855 70.2163 52.1384 69.1636 48.9388 68.497C48.169 68.3379 45.5973 67.6412 44.0449 66.2651C39.1638 61.9259 31.3627 50.3361 33.4442 45.6701C34.7773 42.6769 43.5331 30.6872 47.3777 32.8761H47.3863Z" fill="url(#paint19_linear_2030_12592)"/>
</mask>
<g mask="url(#mask3_2030_12592)">
<g style="mix-blend-mode:multiply">
<path d="M50.0039 66.2104C51.4778 66.7238 56.6672 70.7589 57.0516 73.9624C57.8846 74.6672 59.7171 75.654 60.3835 73.9624C61.2164 71.8479 55.8984 68.0678 50.0039 66.2104Z" fill="url(#paint20_linear_2030_12592)" fill-opacity="0.47"/>
</g>
<g style="mix-blend-mode:screen">
<path d="M33.6714 55.1116C33.9271 49.5728 50.5834 45.1263 50.1504 38.8979C50.6901 38.4997 51.8548 37.2599 52.1957 35.4873C52.6218 33.2714 49.7242 31.3129 48.6162 30.5442C47.5083 29.7754 42.0539 29.7771 41.0312 30.5442C40.0085 31.3112 30.8894 41.5383 30.7189 41.9644C30.5826 42.3053 32.7907 51.7872 33.6714 55.1116Z" fill="url(#paint21_linear_2030_12592)" fill-opacity="0.47"/>
</g>
<g style="mix-blend-mode:color-dodge">
<path d="M33.1906 52.3635C33.4463 46.8247 50.5835 45.1263 50.1505 38.8979C50.6902 38.4997 51.8549 37.2599 52.1958 35.4873C52.622 33.2714 49.7243 31.3129 48.6164 30.5442C47.5084 29.7754 42.054 29.7771 41.0313 30.5442C40.0086 31.3112 30.8895 41.5383 30.719 41.9644C30.5827 42.3053 32.3099 49.0392 33.1906 52.3635Z" fill="url(#paint22_linear_2030_12592)" fill-opacity="0.65"/>
</g>
</g>
<path d="M58.9934 9.44507C61.0393 9.44507 62.9017 9.55744 64.261 9.74194C64.9368 9.83368 65.5087 9.94621 65.9221 10.0789C66.1254 10.1441 66.3208 10.2237 66.4749 10.3259C66.6053 10.4126 66.8478 10.61 66.8479 10.9431C66.8479 11.2766 66.6053 11.4747 66.4749 11.5613C66.3208 11.6635 66.1254 11.7431 65.9221 11.8083C65.5087 11.941 64.9367 12.0526 64.261 12.1443C62.9017 12.3288 61.0393 12.4412 58.9934 12.4412C56.9477 12.4412 55.086 12.3288 53.7268 12.1443C53.0509 12.0525 52.4781 11.941 52.0647 11.8083C51.8616 11.7431 51.6669 11.6634 51.5129 11.5613C51.3826 11.4748 51.1399 11.2767 51.1399 10.9431C51.14 10.6098 51.3825 10.4125 51.5129 10.3259C51.6669 10.2238 51.8616 10.1441 52.0647 10.0789C52.4781 9.94618 53.0509 9.8337 53.7268 9.74194C55.086 9.55747 56.9477 9.44508 58.9934 9.44507Z" fill="url(#paint23_linear_2030_12592)" stroke="url(#paint24_linear_2030_12592)"/>
<mask id="mask4_2030_12592" style="mask-type:alpha" maskUnits="userSpaceOnUse" x="51" y="9" width="16" height="3">
<path d="M58.9937 11.9415C63.0551 11.9415 66.3476 11.4946 66.3476 10.9433C66.3476 10.392 63.0551 9.94507 58.9937 9.94507C54.9323 9.94507 51.6399 10.392 51.6399 10.9433C51.6399 11.4946 54.9323 11.9415 58.9937 11.9415Z" fill="url(#paint25_linear_2030_12592)"/>
</mask>
<g mask="url(#mask4_2030_12592)">
<g filter="url(#filter0_i_2030_12592)">
<path d="M58.9933 16.1375C61.8624 16.1375 64.1883 13.8117 64.1883 10.9425C64.1883 8.07343 61.8624 5.74756 58.9933 5.74756C56.1242 5.74756 53.7983 8.07343 53.7983 10.9425C53.7983 13.8117 56.1242 16.1375 58.9933 16.1375Z" fill="url(#paint26_linear_2030_12592)"/>
</g>
<path d="M58.9935 13.7985C60.5705 13.7985 61.849 12.52 61.849 10.9429C61.849 9.36586 60.5705 8.0874 58.9935 8.0874C57.4164 8.0874 56.1379 9.36586 56.1379 10.9429C56.1379 12.52 57.4164 13.7985 58.9935 13.7985Z" fill="#060003"/>
<path d="M61.8714 9.88395C62.3349 9.42043 62.1198 8.45379 61.3909 7.72491C60.662 6.99603 59.6954 6.78092 59.2319 7.24445C58.7683 7.70797 58.9835 8.67461 59.7123 9.40349C60.4412 10.1324 61.4078 10.3475 61.8714 9.88395Z" fill="white"/>
</g>
<defs>
<filter id="filter0_i_2030_12592" x="53.7983" y="3.74756" width="10.3899" height="12.3899" filterUnits="userSpaceOnUse" color-interpolation-filters="sRGB">
<feFlood flood-opacity="0" result="BackgroundImageFix"/>
<feBlend mode="normal" in="SourceGraphic" in2="BackgroundImageFix" result="shape"/>
<feColorMatrix in="SourceAlpha" type="matrix" values="0 0 0 0 0 0 0 0 0 0 0 0 0 0 0 0 0 0 127 0" result="hardAlpha"/>
<feOffset dy="-2"/>
<feGaussianBlur stdDeviation="1.5"/>
<feComposite in2="hardAlpha" operator="arithmetic" k2="-1" k3="1"/>
<feColorMatrix type="matrix" values="0 0 0 0 1 0 0 0 0 1 0 0 0 0 1 0 0 0 1 0"/>
<feBlend mode="normal" in2="shape" result="effect1_innerShadow_2030_12592"/>
</filter>
<linearGradient id="paint0_linear_2030_12592" x1="6.02002" y1="31.7485" x2="82.6977" y2="31.7485" gradientUnits="userSpaceOnUse">
<stop stop-color="#217A3A"/>
<stop offset="1" stop-color="#50E342"/>
</linearGradient>
<linearGradient id="paint1_linear_2030_12592" x1="-15.2293" y1="11.3572" x2="27.7305" y2="25.0156" gradientUnits="userSpaceOnUse">
<stop stop-color="#86FF7B"/>
<stop offset="1" stop-color="#86FF7B" stop-opacity="0"/>
</linearGradient>
<linearGradient id="paint2_linear_2030_12592" x1="30.433" y1="27.9126" x2="58.7595" y2="51.1281" gradientUnits="userSpaceOnUse">
<stop stop-color="#10672B"/>
<stop offset="1" stop-color="#54E37F"/>
</linearGradient>
<linearGradient id="paint3_linear_2030_12592" x1="30.4331" y1="27.9131" x2="58.7596" y2="51.1286" gradientUnits="userSpaceOnUse">
<stop stop-color="#10672B"/>
<stop offset="1" stop-color="#54E37F"/>
</linearGradient>
<linearGradient id="paint4_linear_2030_12592" x1="62.5062" y1="32.0226" x2="57.2996" y2="4.69334" gradientUnits="userSpaceOnUse">
<stop stop-color="#C5F3BB" stop-opacity="0.82"/>
<stop offset="1" stop-color="#54DF66" stop-opacity="0.67"/>
</linearGradient>
<linearGradient id="paint5_linear_2030_12592" x1="71.4328" y1="61.6872" x2="71.2506" y2="19.0473" gradientUnits="userSpaceOnUse">
<stop stop-color="#06FF26" stop-opacity="0.18"/>
<stop offset="1" stop-color="#45FF5D" stop-opacity="0.67"/>
</linearGradient>
<linearGradient id="paint6_linear_2030_12592" x1="59.383" y1="39.2123" x2="81.759" y2="12.1916" gradientUnits="userSpaceOnUse">
<stop stop-color="#06FF26" stop-opacity="0.18"/>
<stop offset="1" stop-color="#DAFFDF" stop-opacity="0.67"/>
</linearGradient>
<linearGradient id="paint7_linear_2030_12592" x1="72.2829" y1="69.2444" x2="72.1204" y2="32.5066" gradientUnits="userSpaceOnUse">
<stop stop-color="#06FF26" stop-opacity="0.18"/>
<stop offset="1" stop-color="#45FF5D" stop-opacity="0.67"/>
</linearGradient>
<linearGradient id="paint8_linear_2030_12592" x1="23.1739" y1="75.2352" x2="36.0933" y2="42.5698" gradientUnits="userSpaceOnUse">
<stop stop-color="#207338"/>
<stop offset="1" stop-color="#218E42"/>
</linearGradient>
<linearGradient id="paint9_linear_2030_12592" x1="26.1613" y1="69.6678" x2="34.0072" y2="59.1918" gradientUnits="userSpaceOnUse">
<stop stop-color="#3AA95A" stop-opacity="0"/>
<stop offset="1" stop-color="#3AA75B"/>
</linearGradient>
<linearGradient id="paint10_linear_2030_12592" x1="0.158608" y1="57.0648" x2="40.3596" y2="57.0648" gradientUnits="userSpaceOnUse">
<stop stop-color="#217A3A"/>
<stop offset="1" stop-color="#50E342"/>
</linearGradient>
<linearGradient id="paint11_linear_2030_12592" x1="38.935" y1="46.0972" x2="38.935" y2="68.9635" gradientUnits="userSpaceOnUse">
<stop stop-color="#5AD55F"/>
<stop offset="1" stop-color="#3EB25B"/>
</linearGradient>
<linearGradient id="paint12_linear_2030_12592" x1="25.1572" y1="39.7026" x2="25.1572" y2="62.569" gradientUnits="userSpaceOnUse">
<stop stop-color="#5AD55F"/>
<stop offset="1" stop-color="#3EB25B"/>
</linearGradient>
<linearGradient id="paint13_linear_2030_12592" x1="25.1571" y1="39.7026" x2="25.1571" y2="62.569" gradientUnits="userSpaceOnUse">
<stop stop-color="#5AD55F"/>
<stop offset="1" stop-color="#3EB25B"/>
</linearGradient>
<linearGradient id="paint14_linear_2030_12592" x1="25.6862" y1="41.6515" x2="25.1572" y2="62.569" gradientUnits="userSpaceOnUse">
<stop stop-color="#5AD55F"/>
<stop offset="1" stop-color="#3EB25B"/>
</linearGradient>
<linearGradient id="paint15_linear_2030_12592" x1="54.6285" y1="21.0896" x2="109.158" y2="17.5718" gradientUnits="userSpaceOnUse">
<stop stop-color="#0E5923"/>
<stop offset="1" stop-color="#1C990F"/>
</linearGradient>
<linearGradient id="paint16_linear_2030_12592" x1="51.9895" y1="78.8557" x2="76.8861" y2="42.3618" gradientUnits="userSpaceOnUse">
<stop stop-color="#207338"/>
<stop offset="1" stop-color="#218E42"/>
</linearGradient>
<linearGradient id="paint17_linear_2030_12592" x1="47.1277" y1="71.9874" x2="62.7403" y2="55.4896" gradientUnits="userSpaceOnUse">
<stop stop-color="#3AA95A" stop-opacity="0"/>
<stop offset="1" stop-color="#3AA75B"/>
</linearGradient>
<linearGradient id="paint18_linear_2030_12592" x1="51.9895" y1="78.8557" x2="76.8861" y2="42.3618" gradientUnits="userSpaceOnUse">
<stop stop-color="#207338"/>
<stop offset="1" stop-color="#218E42"/>
</linearGradient>
<linearGradient id="paint19_linear_2030_12592" x1="54.4414" y1="70.9738" x2="65.6469" y2="62.2998" gradientUnits="userSpaceOnUse">
<stop stop-color="#3AA95A" stop-opacity="0"/>
<stop offset="1" stop-color="#3AA75B"/>
</linearGradient>
<linearGradient id="paint20_linear_2030_12592" x1="58.9236" y1="52.4483" x2="58.9236" y2="71.1442" gradientUnits="userSpaceOnUse">
<stop stop-color="#5AD55F"/>
<stop offset="1" stop-color="#3EB25B"/>
</linearGradient>
<linearGradient id="paint21_linear_2030_12592" x1="45.7525" y1="31.0808" x2="45.7525" y2="52.3642" gradientUnits="userSpaceOnUse">
<stop stop-color="#5AD55F"/>
<stop offset="1" stop-color="#3EB25B"/>
</linearGradient>
<linearGradient id="paint22_linear_2030_12592" x1="55.6258" y1="37.4378" x2="30.6354" y2="49.8608" gradientUnits="userSpaceOnUse">
<stop stop-color="#5AD55F"/>
<stop offset="1" stop-color="#3EB25B" stop-opacity="0.85"/>
</linearGradient>
<linearGradient id="paint23_linear_2030_12592" x1="62.1575" y1="9.45645" x2="62.0343" y2="12.1149" gradientUnits="userSpaceOnUse">
<stop stop-color="#177332"/>
<stop offset="1" stop-color="#001C08"/>
</linearGradient>
<linearGradient id="paint24_linear_2030_12592" x1="61.6588" y1="9.94242" x2="61.5422" y2="12.1299" gradientUnits="userSpaceOnUse">
<stop stop-color="#A7F582"/>
<stop offset="1" stop-color="#54DF66"/>
</linearGradient>
<linearGradient id="paint25_linear_2030_12592" x1="62.1575" y1="9.45645" x2="62.0343" y2="12.1149" gradientUnits="userSpaceOnUse">
<stop stop-color="#177332"/>
<stop offset="1" stop-color="#001C08"/>
</linearGradient>
<linearGradient id="paint26_linear_2030_12592" x1="58.9933" y1="5.74756" x2="56.6584" y2="15.0698" gradientUnits="userSpaceOnUse">
<stop stop-color="#0057C7"/>
<stop offset="1" stop-color="#003E8D"/>
</linearGradient>
</defs>
</svg>
