<svg width="132" height="79" viewBox="0 0 132 79" fill="none" xmlns="http://www.w3.org/2000/svg">
<path d="M117.203 45.2136C119.456 43.8985 123.028 40.9162 123.867 39.5395C124.707 38.1628 128.247 36.4026 128.184 38.8772C128.137 40.7499 118.632 44.7037 118.665 46.8453L117.206 45.2167L117.203 45.2136Z" fill="#1D5F30"/>
<path d="M94.9551 26.6438C99.5671 29.9381 101.099 34.8988 103.732 38.2459C105.292 40.2258 115.08 44.5791 117.683 44.6138C118.553 44.6274 120.678 44.244 123.421 42.9458C126.665 41.4121 130.453 38.8073 131.387 39.7708C132.841 41.2716 130.821 43.086 129.309 43.2874C127.798 43.4888 124.019 45.7014 123.608 46.3458C126.151 45.6831 128.203 46.731 127.281 47.9179C126.359 49.1048 125.36 50.3726 123.679 49.7805C121.997 49.1885 120.804 49.2611 119.415 49.9662C118.026 50.6713 112.829 58.0015 111.454 56.8912C110.078 55.7809 113.001 54.2057 113.891 52.5286C114.781 50.8516 114.332 50.7655 112.115 50.6213C109.897 50.4771 98.122 47.881 93.3549 40.2062C88.5877 32.5313 93.1075 24.7374 93.1075 24.7374L96.4133 26.6839L94.9551 26.6438Z" fill="#26853E"/>
<path d="M71.116 42.8477C78.6362 47.0424 76.6389 55.642 71.045 61.3317C65.4511 67.0213 55.9617 71.393 45.2384 67.8528C41.6478 66.338 40.0628 67.6554 38.9138 69.0013C37.7649 70.3471 33.435 75.1709 32.6825 76.0656C31.93 76.9604 29.613 79.3144 29.2362 78.8985C28.8284 78.4483 29.9076 76.328 31.4349 74.8378C33.5866 72.7384 36.5206 69.4748 36.0662 69.2397C35.6119 69.0045 32.4142 72.4039 30.4405 73.7686C28.4669 75.1333 24.9919 77.2626 24.0876 76.1558C23.1832 75.049 26.5151 74.2638 28.7135 72.5904C30.9119 70.9171 33.7955 68.2559 33.3143 67.9627C32.833 67.6695 24.2782 71.9737 23.571 70.4117C22.8638 68.8498 32.664 65.973 36.146 63.5296C41.2945 59.9169 44.4436 60.0908 50.5493 58.6972C54.8663 57.7118 56.1484 50.4175 58.8638 46.879C61.5792 43.3404 66.3632 40.198 71.116 42.8477Z" fill="#115F1A"/>
<path d="M71.116 42.8477C78.6362 47.0424 76.6389 55.642 71.045 61.3317C65.4511 67.0213 55.9617 71.393 45.2384 67.8528C41.6478 66.338 40.0628 67.6554 38.9138 69.0013C37.7649 70.3471 33.435 75.1709 32.6825 76.0656C31.93 76.9604 29.613 79.3144 29.2362 78.8985C28.8284 78.4483 29.9076 76.328 31.4349 74.8378C33.5866 72.7384 36.5206 69.4748 36.0662 69.2397C35.6119 69.0045 32.4142 72.4039 30.4405 73.7686C28.4669 75.1333 24.9919 77.2626 24.0876 76.1558C23.1832 75.049 26.5151 74.2638 28.7135 72.5904C30.9119 70.9171 33.7955 68.2559 33.3143 67.9627C32.833 67.6695 24.2782 71.9737 23.571 70.4117C22.8638 68.8498 32.664 65.973 36.146 63.5296C41.2945 59.9169 44.4436 60.0908 50.5493 58.6972C54.8663 57.7118 56.1484 50.4175 58.8638 46.879C61.5792 43.3404 66.3632 40.198 71.116 42.8477Z" fill="#115F1A"/>
<mask id="mask0_85_19978" style="mask-type:alpha" maskUnits="userSpaceOnUse" x="23" y="41" width="54" height="38">
<path d="M71.116 42.8497C78.6362 47.0444 76.6389 55.644 71.045 61.3336C65.4511 67.0233 55.9617 71.395 45.2384 67.8547C41.6478 66.34 40.0628 67.6574 38.9138 69.0032C37.7649 70.3491 33.435 75.1728 32.6825 76.0676C31.93 76.9624 29.613 79.3164 29.2362 78.9004C28.8284 78.4503 29.9076 76.3299 31.4349 74.8397C33.5866 72.7403 36.5206 69.4768 36.0662 69.2416C35.6119 69.0065 32.4142 72.4059 30.4405 73.7705C28.4669 75.1352 24.9919 77.2645 24.0876 76.1578C23.1832 75.051 26.5151 74.2657 28.7135 72.5924C30.9119 70.9191 33.7955 68.2579 33.3143 67.9647C32.833 67.6715 24.2782 71.9757 23.571 70.4137C22.8638 68.8517 32.664 65.9749 36.146 63.5316C41.2945 59.9189 44.4436 60.0927 50.5493 58.6991C54.8663 57.7138 56.1484 50.4195 58.8638 46.8809C61.5792 43.3424 66.3632 40.1999 71.116 42.8497Z" fill="#115F1A"/>
</mask>
<g mask="url(#mask0_85_19978)">
<path d="M44.2073 58.8511C62.4891 67.9862 70.5002 66.7683 82.1439 50.4449C81.1644 48.1965 75.1141 42.3906 73.5471 42.3906C71.5883 42.3906 67.1267 44.7853 66.6914 45.1117C66.2561 45.4382 25.9255 49.7159 44.2073 58.8511Z" fill="black" fill-opacity="0.15"/>
</g>
<path d="M32.2736 48.6169C46.6169 8.44578 77.0197 19.8559 85.6997 11.8704C87.9809 9.77032 91.6089 8.29372 93.7573 8.3841C100.148 9.15716 100.917 12.7513 104.454 16.1834C106.617 18.281 116.939 24.4884 114.7 30.184C111.835 37.4703 106.309 32.2585 96.865 39.14C79.8606 51.5243 76.7799 62.3902 52.6084 61.1626C38.6491 60.4542 32.4901 49.1013 32.4901 49.1013L32.2736 48.6169Z" fill="url(#paint0_linear_85_19978)"/>
<path d="M32.2736 48.6169C46.6169 8.44578 77.0197 19.8559 85.6997 11.8704C87.9809 9.77032 91.6089 8.29372 93.7573 8.3841C100.148 9.15716 100.917 12.7513 104.454 16.1834C106.617 18.281 116.939 24.4884 114.7 30.184C111.835 37.4703 106.309 32.2585 96.865 39.14C79.8606 51.5243 76.7799 62.3902 52.6084 61.1626C38.6491 60.4542 32.4901 49.1013 32.4901 49.1013L32.2736 48.6169Z" fill="url(#paint1_linear_85_19978)"/>
<mask id="mask1_85_19978" style="mask-type:alpha" maskUnits="userSpaceOnUse" x="32" y="8" width="84" height="54">
<path d="M32.7201 49.4145C47.0635 9.24339 77.1522 19.8903 85.8322 11.9048C88.1135 9.80471 91.7414 8.32811 93.8899 8.4185C100.281 9.19155 101.05 12.7857 104.587 16.2177C106.749 18.3154 117.071 24.5228 114.833 30.2184C111.968 37.5047 106.441 32.2929 96.9975 39.1744C79.9931 51.5586 76.9124 62.4246 52.7409 61.197C38.7817 60.4886 32.7201 49.4145 32.7201 49.4145Z" fill="black"/>
</mask>
<g mask="url(#mask1_85_19978)">
<g style="mix-blend-mode:multiply">
<path d="M34.9913 41.5341C54.322 12.5707 74.381 22.0546 87.7258 14.7991C95.7384 13.4389 99.9775 20.1243 96.5024 12.8428C95.9191 11.6205 119.04 27.0993 120.356 29.3787C114.3 36.7626 102.259 49.2611 101.334 50.3038C100.409 51.3465 74.3409 63.4144 61.4223 69.318C50.389 65.5102 27.145 53.2903 34.9913 41.5341Z" fill="url(#paint2_linear_85_19978)" fill-opacity="0.46"/>
</g>
<g style="mix-blend-mode:multiply">
<path d="M34.9912 41.5346C41.6603 25.174 81.7046 47.5681 87.7257 14.7997C95.7383 13.4395 99.9774 20.1248 96.5023 12.8433C95.9189 11.621 119.04 27.0998 120.356 29.3792C114.3 36.7631 102.258 49.2616 101.334 50.3043C100.409 51.3471 74.3408 63.415 61.4222 69.3185C50.3888 65.5108 29.656 54.6231 34.9912 41.5346Z" fill="url(#paint3_linear_85_19978)" fill-opacity="0.46"/>
</g>
<g style="mix-blend-mode:screen">
<path d="M117.55 32.3638C122.617 26.1489 100.918 17.0783 99.665 13.5894C99.7992 14.0026 100.032 16.2438 99.8909 21.9027C99.7893 25.9741 95.5125 27.7277 91.7555 27.9202C87.9986 28.1126 83.4502 25.7366 82.7695 29.311C82.4714 30.8767 83.811 33.0348 87.2907 33.7027C91.755 34.5596 98.983 33.6851 102.724 33.6295C109.38 33.5305 113.771 36.9996 117.55 32.3638Z" fill="url(#paint4_linear_85_19978)"/>
</g>
<g style="mix-blend-mode:screen">
<path d="M86.6254 30.3787C90.6788 34.5699 99.367 26.8981 120.005 32.945C120.494 37.5618 120.372 47.3921 120.165 48.1649C119.906 49.1308 78.23 75.2337 77.7471 75.1043C77.2641 74.9749 45.155 73.1006 18.9272 53.192C67.6695 68.3831 82.5721 26.1876 86.6254 30.3787Z" fill="url(#paint5_linear_85_19978)"/>
<path d="M86.6254 30.3787C90.6788 34.5699 99.367 26.8981 120.005 32.945C120.494 37.5618 120.372 47.3921 120.165 48.1649C119.906 49.1308 78.23 75.2337 77.7471 75.1043C77.2641 74.9749 45.155 73.1006 18.9272 53.192C67.6695 68.3831 82.5721 26.1876 86.6254 30.3787Z" fill="url(#paint6_linear_85_19978)"/>
</g>
<g style="mix-blend-mode:screen">
<path d="M31.163 59.4525C75.1758 67.6752 84.7672 30.6228 104.007 43.86C123.246 57.0972 114.077 49.765 113.425 56.4962C112.609 64.9101 105.944 70.3182 101.141 72.8078C96.3373 75.2974 83.1857 78.068 65.8512 78.9984C51.9836 79.7427 36.9476 66.278 31.163 59.4525Z" fill="url(#paint7_linear_85_19978)"/>
</g>
</g>
<path d="M53.3043 35.6422C60.3224 40.6317 58.1023 47.8722 51.9216 52.9182C45.7408 57.9642 32.4766 61.554 22.2031 56.8659C20.0967 55.9047 18.7167 56.235 17.4279 57.4476C16.1391 58.6602 10.1673 63.2315 9.32177 64.0389C8.4762 64.8463 6.3428 66.5143 6.01359 66.0598C5.65729 65.5678 6.53483 63.9972 8.21545 62.6824C10.5832 60.83 13.8554 57.9057 13.4294 57.6224C13.0034 57.3392 9.45426 60.3697 7.34357 61.5111C5.23289 62.6525 1.54654 64.3904 0.76823 63.1916C-0.0100753 61.9929 3.38754 61.5755 5.75526 60.1518C8.12298 58.728 11.2794 56.397 10.833 56.0531C10.3866 55.7092 1.41361 59.0552 0.880865 57.4255C0.348119 55.7957 12.5112 52.6312 16.6547 51.1456C21.2607 49.4942 22.7542 49.4412 28.9753 48.7215C33.3741 48.2126 35.4437 41.1015 38.5286 37.8801C41.6136 34.6586 48.3832 32.1441 53.3043 35.6422Z" fill="url(#paint8_linear_85_19978)"/>
<path d="M53.3043 35.6422C60.3224 40.6317 58.1023 47.8722 51.9216 52.9182C45.7408 57.9642 32.4766 61.554 22.2031 56.8659C20.0967 55.9047 18.7167 56.235 17.4279 57.4476C16.1391 58.6602 10.1673 63.2315 9.32177 64.0389C8.4762 64.8463 6.3428 66.5143 6.01359 66.0598C5.65729 65.5678 6.53483 63.9972 8.21545 62.6824C10.5832 60.83 13.8554 57.9057 13.4294 57.6224C13.0034 57.3392 9.45426 60.3697 7.34357 61.5111C5.23289 62.6525 1.54654 64.3904 0.76823 63.1916C-0.0100753 61.9929 3.38754 61.5755 5.75526 60.1518C8.12298 58.728 11.2794 56.397 10.833 56.0531C10.3866 55.7092 1.41361 59.0552 0.880865 57.4255C0.348119 55.7957 12.5112 52.6312 16.6547 51.1456C21.2607 49.4942 22.7542 49.4412 28.9753 48.7215C33.3741 48.2126 35.4437 41.1015 38.5286 37.8801C41.6136 34.6586 48.3832 32.1441 53.3043 35.6422Z" fill="url(#paint9_linear_85_19978)"/>
<mask id="mask2_85_19978" style="mask-type:alpha" maskUnits="userSpaceOnUse" x="0" y="33" width="58" height="34">
<path d="M53.3044 35.6422C60.3225 40.6317 58.1025 47.8722 51.9217 52.9182C45.741 57.9642 32.4767 61.554 22.2032 56.8659C20.0968 55.9047 18.7168 56.235 17.428 57.4476C16.1393 58.6602 10.1675 63.2315 9.32189 64.0389C8.47632 64.8463 6.34292 66.5143 6.01372 66.0598C5.65741 65.5678 6.53495 63.9972 8.21557 62.6824C10.5833 60.83 13.8555 57.9057 13.4295 57.6224C13.0035 57.3392 9.45438 60.3697 7.34369 61.5111C5.23301 62.6525 1.54666 64.3904 0.768352 63.1916C-0.00995321 61.9929 3.38766 61.5755 5.75539 60.1518C8.12311 58.728 11.2795 56.397 10.8332 56.0531C10.3868 55.7092 1.41373 59.0552 0.880988 57.4255C0.348241 55.7957 12.5113 52.6312 16.6548 51.1456C21.2609 49.4942 22.7543 49.4412 28.9755 48.7215C33.3742 48.2126 35.4438 41.1015 38.5287 37.8801C41.6137 34.6586 48.3833 32.1441 53.3044 35.6422Z" fill="url(#paint10_linear_85_19978)"/>
<path d="M53.3044 35.6422C60.3225 40.6317 58.1025 47.8722 51.9217 52.9182C45.741 57.9642 32.4767 61.554 22.2032 56.8659C20.0968 55.9047 18.7168 56.235 17.428 57.4476C16.1393 58.6602 10.1675 63.2315 9.32189 64.0389C8.47632 64.8463 6.34292 66.5143 6.01372 66.0598C5.65741 65.5678 6.53495 63.9972 8.21557 62.6824C10.5833 60.83 13.8555 57.9057 13.4295 57.6224C13.0035 57.3392 9.45438 60.3697 7.34369 61.5111C5.23301 62.6525 1.54666 64.3904 0.768352 63.1916C-0.00995321 61.9929 3.38766 61.5755 5.75539 60.1518C8.12311 58.728 11.2795 56.397 10.8332 56.0531C10.3868 55.7092 1.41373 59.0552 0.880988 57.4255C0.348241 55.7957 12.5113 52.6312 16.6548 51.1456C21.2609 49.4942 22.7543 49.4412 28.9755 48.7215C33.3742 48.2126 35.4438 41.1015 38.5287 37.8801C41.6137 34.6586 48.3833 32.1441 53.3044 35.6422Z" fill="url(#paint11_linear_85_19978)"/>
</mask>
<g mask="url(#mask2_85_19978)">
<g style="mix-blend-mode:screen">
<path d="M30.8204 61.3668C50.6735 50.7111 44.4384 30.4146 20.5118 47.1825C20.3402 44.4577 30.5997 29.5675 36.8199 26.4138C44.595 22.4717 45.2306 23.5303 47.669 24.9579C50.1073 26.3855 56.2629 33.3871 56.5711 34.3274C56.8176 35.0796 58.2663 52.6802 56.5711 57.2348L30.8204 61.3668Z" fill="url(#paint12_linear_85_19978)" fill-opacity="0.47"/>
</g>
<g style="mix-blend-mode:color-dodge">
<path d="M37.2216 59.283C55.6882 54.2497 57.3885 28.5554 39.4394 36.3721C40.4474 33.8349 43.9079 28.5554 50.879 28.359C59.593 28.1135 59.7158 29.3421 61.3114 31.674C62.9069 34.0059 65.4842 42.9654 65.3615 43.9472C65.2633 44.7327 58.284 51.7189 54.8066 55.1138L37.2216 59.283Z" fill="url(#paint13_linear_85_19978)" fill-opacity="0.65"/>
</g>
</g>
<mask id="mask3_85_19978" style="mask-type:luminance" maskUnits="userSpaceOnUse" x="30" y="8" width="86" height="54">
<path d="M30.5242 48.7047C44.8676 8.53365 77.1525 19.8913 85.8325 11.9058C88.1137 9.80569 91.7417 8.32909 93.8901 8.41948C100.281 9.19253 101.05 12.7867 104.587 16.2187C106.75 18.3164 117.072 24.5237 114.833 30.2193C111.968 37.5057 106.442 32.2939 96.9978 39.1753C79.9934 51.5596 76.9127 62.4256 52.7412 61.198C38.7819 60.4896 30.5284 48.7058 30.5284 48.7058L30.5242 48.7047Z" fill="white"/>
</mask>
<g mask="url(#mask3_85_19978)">
<path d="M114.979 31.953C101.791 27.2038 90.3177 33.3189 85.7991 30.443" stroke="url(#paint14_linear_85_19978)" stroke-width="1.29015" stroke-miterlimit="10" stroke-linecap="round"/>
</g>
<path d="M108.107 24.4349C108.988 24.2914 110.361 25.7986 109.807 27.349C109.776 27.435 109.652 27.4292 109.612 27.3472C109.52 27.1593 109.384 26.9745 109.221 26.8784C107.256 25.9679 107.181 24.5857 108.107 24.4349Z" fill="#0E6A19"/>
<path d="M72.4348 35.4041C78.419 35.4366 80.2446 42.127 75.4902 51.9971C76.5047 54.2735 87.7421 61.2734 90.1452 60.2912C93.1581 59.0597 99.7283 54.8986 100.966 57.0979C101.289 57.7503 97.3852 59.4246 97.3852 59.4246C97.3852 59.4246 98.7383 59.3738 100.51 58.9097C103.103 58.2301 106.507 57.4067 107.125 58.9229C107.402 60.537 103.588 61.6088 101.169 61.5193C98.7503 61.4297 96.8284 62.6444 96.8284 62.6444C96.8284 62.6444 97.5366 62.8331 98.7337 63.1365C100.173 63.5013 101.417 64.8006 101.397 65.6596C101.377 66.5185 99.0941 66.2492 97.8831 65.4303C96.6721 64.6114 94.3718 64.6979 91.2565 65.6861C90.5076 65.925 87.9247 66.579 85.8969 66.141C79.5151 64.7531 67.0328 58.4784 66.5585 53.3913C66.2525 50.129 68.0032 35.3861 72.4273 35.4083L72.4348 35.4041Z" fill="url(#paint15_linear_85_19978)"/>
<path d="M72.4348 35.4041C78.419 35.4366 80.2446 42.127 75.4902 51.9971C76.5047 54.2735 87.7421 61.2734 90.1452 60.2912C93.1581 59.0597 99.7283 54.8986 100.966 57.0979C101.289 57.7503 97.3852 59.4246 97.3852 59.4246C97.3852 59.4246 98.7383 59.3738 100.51 58.9097C103.103 58.2301 106.507 57.4067 107.125 58.9229C107.402 60.537 103.588 61.6088 101.169 61.5193C98.7503 61.4297 96.8284 62.6444 96.8284 62.6444C96.8284 62.6444 97.5366 62.8331 98.7337 63.1365C100.173 63.5013 101.417 64.8006 101.397 65.6596C101.377 66.5185 99.0941 66.2492 97.8831 65.4303C96.6721 64.6114 94.3718 64.6979 91.2565 65.6861C90.5076 65.925 87.9247 66.579 85.8969 66.141C79.5151 64.7531 67.0328 58.4784 66.5585 53.3913C66.2525 50.129 68.0032 35.3861 72.4273 35.4083L72.4348 35.4041Z" fill="url(#paint16_linear_85_19978)"/>
<mask id="mask4_85_19978" style="mask-type:alpha" maskUnits="userSpaceOnUse" x="66" y="35" width="42" height="32">
<path d="M72.4348 35.4041C78.419 35.4366 80.2446 42.127 75.4902 51.9971C76.5047 54.2735 87.7421 61.2734 90.1452 60.2912C93.1581 59.0597 99.7283 54.8986 100.966 57.0979C101.289 57.7503 97.3852 59.4246 97.3852 59.4246C97.3852 59.4246 98.7383 59.3738 100.51 58.9097C103.103 58.2301 106.507 57.4067 107.125 58.9229C107.402 60.537 103.588 61.6088 101.169 61.5193C98.7503 61.4297 96.8284 62.6444 96.8284 62.6444C96.8284 62.6444 97.5366 62.8331 98.7337 63.1365C100.173 63.5013 101.417 64.8006 101.397 65.6596C101.377 66.5185 99.0941 66.2492 97.8831 65.4303C96.6721 64.6114 94.3718 64.6979 91.2565 65.6861C90.5076 65.925 87.9247 66.579 85.8969 66.141C79.5151 64.7531 67.0328 58.4784 66.5585 53.3913C66.2525 50.129 68.0032 35.3861 72.4273 35.4083L72.4348 35.4041Z" fill="url(#paint17_linear_85_19978)"/>
<path d="M72.4348 35.4041C78.419 35.4366 80.2446 42.127 75.4902 51.9971C76.5047 54.2735 87.7421 61.2734 90.1452 60.2912C93.1581 59.0597 99.7283 54.8986 100.966 57.0979C101.289 57.7503 97.3852 59.4246 97.3852 59.4246C97.3852 59.4246 98.7383 59.3738 100.51 58.9097C103.103 58.2301 106.507 57.4067 107.125 58.9229C107.402 60.537 103.588 61.6088 101.169 61.5193C98.7503 61.4297 96.8284 62.6444 96.8284 62.6444C96.8284 62.6444 97.5366 62.8331 98.7337 63.1365C100.173 63.5013 101.417 64.8006 101.397 65.6596C101.377 66.5185 99.0941 66.2492 97.8831 65.4303C96.6721 64.6114 94.3718 64.6979 91.2565 65.6861C90.5076 65.925 87.9247 66.579 85.8969 66.141C79.5151 64.7531 67.0328 58.4784 66.5585 53.3913C66.2525 50.129 68.0032 35.3861 72.4273 35.4083L72.4348 35.4041Z" fill="url(#paint18_linear_85_19978)"/>
</mask>
<g mask="url(#mask4_85_19978)">
<g style="mix-blend-mode:multiply">
<path d="M91.0635 63.1719C92.5997 62.8964 99.1011 63.868 101.007 66.4714C102.079 66.6772 104.16 66.6384 103.911 64.8374C103.6 62.5861 97.1113 61.8999 91.0635 63.1719Z" fill="url(#paint19_linear_85_19978)" fill-opacity="0.47"/>
</g>
<g style="mix-blend-mode:screen">
<path d="M71.3867 61.5063C68.8933 56.5539 81.2285 44.5103 77.7967 39.2948C78.0718 38.683 78.4788 37.0314 77.9066 35.3193C77.1913 33.1792 73.7055 32.8935 72.363 32.7669C71.0204 32.6403 66.2678 35.3166 65.7526 36.4867C65.2375 37.6567 62.3057 51.0415 62.3662 51.4965C62.4145 51.8605 68.9889 59.041 71.3867 61.5063Z" fill="url(#paint20_linear_85_19978)" fill-opacity="0.47"/>
</g>
<g style="mix-blend-mode:color-dodge">
<path d="M69.6201 59.3484C67.1267 54.396 81.2287 44.5115 77.7969 39.296C78.0719 38.6842 78.479 37.0326 77.9067 35.3205C77.1914 33.1804 73.7057 32.8946 72.3631 32.7681C71.0206 32.6415 66.2679 35.3178 65.7528 36.4878C65.2377 37.6578 62.3059 51.0427 62.3663 51.4977C62.4147 51.8616 67.2223 56.8831 69.6201 59.3484Z" fill="url(#paint21_linear_85_19978)" fill-opacity="0.65"/>
</g>
</g>
<path d="M95.2639 11.2347C99.4535 12.3573 101.941 16.6639 100.818 20.8535C99.6954 25.0433 95.3881 27.5301 91.1983 26.4075C87.0088 25.2847 84.5227 20.9776 85.6453 16.788C86.768 12.5985 91.0743 10.1123 95.2639 11.2347Z" fill="url(#paint22_linear_85_19978)" stroke="url(#paint23_linear_85_19978)"/>
<g filter="url(#filter0_i_85_19978)">
<path d="M91.887 23.8395C94.6583 24.5821 97.5069 22.9374 98.2495 20.1661C98.9921 17.3947 97.3474 14.5461 94.5761 13.8035C91.8047 13.061 88.9561 14.7056 88.2135 17.477C87.471 20.2483 89.1156 23.0969 91.887 23.8395Z" fill="url(#paint24_linear_85_19978)"/>
</g>
<path d="M92.4926 21.5778C94.0159 21.986 95.5817 21.0819 95.9899 19.5586C96.3981 18.0353 95.4941 16.4695 93.9707 16.0613C92.4474 15.6532 90.8816 16.5572 90.4735 18.0805C90.0653 19.6038 90.9693 21.1696 92.4926 21.5778Z" fill="#060003"/>
<path d="M96.2857 18.5435C96.8534 18.2158 96.8958 17.2264 96.3804 16.3337C95.865 15.441 94.987 14.9831 94.4193 15.3108C93.8516 15.6386 93.8092 16.628 94.3246 17.5207C94.84 18.4133 95.718 18.8713 96.2857 18.5435Z" fill="white"/>
<defs>
<filter id="filter0_i_85_19978" x="88.0353" y="11.625" width="10.3925" height="12.3926" filterUnits="userSpaceOnUse" color-interpolation-filters="sRGB">
<feFlood flood-opacity="0" result="BackgroundImageFix"/>
<feBlend mode="normal" in="SourceGraphic" in2="BackgroundImageFix" result="shape"/>
<feColorMatrix in="SourceAlpha" type="matrix" values="0 0 0 0 0 0 0 0 0 0 0 0 0 0 0 0 0 0 127 0" result="hardAlpha"/>
<feOffset dy="-2"/>
<feGaussianBlur stdDeviation="1.5"/>
<feComposite in2="hardAlpha" operator="arithmetic" k2="-1" k3="1"/>
<feColorMatrix type="matrix" values="0 0 0 0 1 0 0 0 0 1 0 0 0 0 1 0 0 0 1 0"/>
<feBlend mode="normal" in2="shape" result="effect1_innerShadow_85_19978"/>
</filter>
<linearGradient id="paint0_linear_85_19978" x1="36.6774" y1="25.2117" x2="110.742" y2="45.0574" gradientUnits="userSpaceOnUse">
<stop stop-color="#217A3A"/>
<stop offset="1" stop-color="#50E342"/>
</linearGradient>
<linearGradient id="paint1_linear_85_19978" x1="21.4298" y1="0.015521" x2="59.3907" y2="24.3273" gradientUnits="userSpaceOnUse">
<stop stop-color="#86FF7B"/>
<stop offset="1" stop-color="#86FF7B" stop-opacity="0"/>
</linearGradient>
<linearGradient id="paint2_linear_85_19978" x1="61.2516" y1="27.8212" x2="82.6044" y2="57.577" gradientUnits="userSpaceOnUse">
<stop stop-color="#10672B"/>
<stop offset="1" stop-color="#54E37F"/>
</linearGradient>
<linearGradient id="paint3_linear_85_19978" x1="61.2515" y1="27.8217" x2="82.6043" y2="57.5775" gradientUnits="userSpaceOnUse">
<stop stop-color="#10672B"/>
<stop offset="1" stop-color="#54E37F"/>
</linearGradient>
<linearGradient id="paint4_linear_85_19978" x1="91.1684" y1="40.0898" x2="93.2125" y2="12.3442" gradientUnits="userSpaceOnUse">
<stop stop-color="#C5F3BB" stop-opacity="0.82"/>
<stop offset="1" stop-color="#54DF66" stop-opacity="0.67"/>
</linearGradient>
<linearGradient id="paint5_linear_85_19978" x1="92.1134" y1="71.0548" x2="102.973" y2="29.8208" gradientUnits="userSpaceOnUse">
<stop stop-color="#06FF26" stop-opacity="0.18"/>
<stop offset="1" stop-color="#45FF5D" stop-opacity="0.67"/>
</linearGradient>
<linearGradient id="paint6_linear_85_19978" x1="86.291" y1="46.227" x2="114.898" y2="25.9184" gradientUnits="userSpaceOnUse">
<stop stop-color="#06FF26" stop-opacity="0.18"/>
<stop offset="1" stop-color="#DAFFDF" stop-opacity="0.67"/>
</linearGradient>
<linearGradient id="paint7_linear_85_19978" x1="90.9781" y1="78.5751" x2="100.33" y2="43.0471" gradientUnits="userSpaceOnUse">
<stop stop-color="#06FF26" stop-opacity="0.18"/>
<stop offset="1" stop-color="#45FF5D" stop-opacity="0.67"/>
</linearGradient>
<linearGradient id="paint8_linear_85_19978" x1="1.85067" y1="64.5463" x2="19.5147" y2="73.5711" gradientUnits="userSpaceOnUse">
<stop stop-color="#207338"/>
<stop offset="1" stop-color="#218E42"/>
</linearGradient>
<linearGradient id="paint9_linear_85_19978" x1="36.1146" y1="59.5038" x2="59.8611" y2="41.429" gradientUnits="userSpaceOnUse">
<stop stop-color="#3AA95A" stop-opacity="0"/>
<stop offset="1" stop-color="#3AA75B"/>
</linearGradient>
<linearGradient id="paint10_linear_85_19978" x1="24.9298" y1="77.6824" x2="59.433" y2="39.7812" gradientUnits="userSpaceOnUse">
<stop stop-color="#207338"/>
<stop offset="1" stop-color="#218E42"/>
</linearGradient>
<linearGradient id="paint11_linear_85_19978" x1="30.9849" y1="70.8115" x2="56.9709" y2="41.2696" gradientUnits="userSpaceOnUse">
<stop stop-color="#3AA95A" stop-opacity="0"/>
<stop offset="1" stop-color="#3AA75B"/>
</linearGradient>
<linearGradient id="paint12_linear_85_19978" x1="43.0104" y1="25.4578" x2="57.7518" y2="56.6831" gradientUnits="userSpaceOnUse">
<stop stop-color="#5AD55F"/>
<stop offset="1" stop-color="#3EB25B"/>
</linearGradient>
<linearGradient id="paint13_linear_85_19978" x1="53.5778" y1="31.1895" x2="52.7305" y2="59.2753" gradientUnits="userSpaceOnUse">
<stop stop-color="#5AD55F"/>
<stop offset="1" stop-color="#3EB25B"/>
</linearGradient>
<linearGradient id="paint14_linear_85_19978" x1="86.3891" y1="27.4934" x2="139.971" y2="38.2089" gradientUnits="userSpaceOnUse">
<stop stop-color="#0E5923"/>
<stop offset="1" stop-color="#1C990F"/>
</linearGradient>
<linearGradient id="paint15_linear_85_19978" x1="98.9951" y1="73.2175" x2="102.795" y2="29.2038" gradientUnits="userSpaceOnUse">
<stop stop-color="#207338"/>
<stop offset="1" stop-color="#218E42"/>
</linearGradient>
<linearGradient id="paint16_linear_85_19978" x1="91.3898" y1="69.6162" x2="96.9055" y2="47.5819" gradientUnits="userSpaceOnUse">
<stop stop-color="#3AA95A" stop-opacity="0"/>
<stop offset="1" stop-color="#3AA75B"/>
</linearGradient>
<linearGradient id="paint17_linear_85_19978" x1="98.9951" y1="73.2175" x2="102.795" y2="29.2038" gradientUnits="userSpaceOnUse">
<stop stop-color="#207338"/>
<stop offset="1" stop-color="#218E42"/>
</linearGradient>
<linearGradient id="paint18_linear_85_19978" x1="97.2666" y1="65.1461" x2="102.778" y2="52.0914" gradientUnits="userSpaceOnUse">
<stop stop-color="#3AA95A" stop-opacity="0"/>
<stop offset="1" stop-color="#3AA75B"/>
</linearGradient>
<linearGradient id="paint19_linear_85_19978" x1="92.0878" y1="46.804" x2="101.256" y2="63.0973" gradientUnits="userSpaceOnUse">
<stop stop-color="#5AD55F"/>
<stop offset="1" stop-color="#3EB25B"/>
</linearGradient>
<linearGradient id="paint20_linear_85_19978" x1="70.1304" y1="34.639" x2="80.5679" y2="53.1873" gradientUnits="userSpaceOnUse">
<stop stop-color="#5AD55F"/>
<stop offset="1" stop-color="#3EB25B"/>
</linearGradient>
<linearGradient id="paint21_linear_85_19978" x1="81.8525" y1="35.3383" x2="66.1659" y2="58.4204" gradientUnits="userSpaceOnUse">
<stop stop-color="#5AD55F"/>
<stop offset="1" stop-color="#3EB25B" stop-opacity="0.85"/>
</linearGradient>
<linearGradient id="paint22_linear_85_19978" x1="99.1223" y1="9.05965" x2="88.778" y2="24.4881" gradientUnits="userSpaceOnUse">
<stop stop-color="#177332"/>
<stop offset="1" stop-color="#001C08"/>
</linearGradient>
<linearGradient id="paint23_linear_85_19978" x1="97.7141" y1="12.3887" x2="88.778" y2="24.4881" gradientUnits="userSpaceOnUse">
<stop stop-color="#A7F582"/>
<stop offset="1" stop-color="#54DF66"/>
</linearGradient>
<linearGradient id="paint24_linear_85_19978" x1="94.5761" y1="13.8035" x2="89.908" y2="22.2039" gradientUnits="userSpaceOnUse">
<stop stop-color="#0057C7"/>
<stop offset="1" stop-color="#003E8D"/>
</linearGradient>
</defs>
</svg>
