<svg width="83" height="74" viewBox="0 0 83 74" fill="none" xmlns="http://www.w3.org/2000/svg">
<path d="M65.7243 28.7266C66.7435 34.3019 64.3912 38.9302 63.9525 43.1662C63.6945 45.6734 67.6939 55.6118 69.5388 57.4481C70.1538 58.0631 71.9471 59.2672 74.8198 60.2435C78.2172 61.4003 82.7499 62.1658 82.7499 63.5075C82.7499 65.5976 80.0363 65.4943 78.8107 64.5869C77.5851 63.6795 73.3319 62.6388 72.5879 62.8151C74.8757 64.1096 75.6197 66.2899 74.1318 66.5007C72.6438 66.7114 71.044 66.9264 70.2484 65.3309C69.4528 63.7354 68.5454 62.9571 67.0575 62.4969C65.5695 62.0368 56.7363 63.6838 56.5213 61.9292C56.3062 60.1746 59.5015 61.0777 61.3077 60.4929C63.1139 59.908 62.8516 59.5339 61.3593 57.8868C59.867 56.2397 53.2185 46.1809 55.1365 37.352C57.0545 28.5231 65.7243 26.0718 65.7243 26.0718L66.7435 29.7702L65.7243 28.7266Z" fill="#26853E"/>
<path d="M6.02051 56.0376C9.4781 13.523 43.6025 16.1377 49.9199 6.17777C51.5799 3.55877 54.702 1.19351 56.8007 0.724753C63.174 -0.18265 64.8469 3.09002 69.1517 5.48969C71.7836 6.95616 83.3605 10.2804 82.6724 16.3613C81.7908 24.1409 75.1035 20.5371 67.7626 29.6283C54.5429 45.9917 54.3795 57.2848 30.7139 62.355C17.047 65.2837 6.02481 56.0376 6.02481 56.0376H6.02051Z" fill="url(#paint0_linear_2030_12881)"/>
<path d="M6.02051 56.0376C9.4781 13.523 43.6025 16.1377 49.9199 6.17777C51.5799 3.55877 54.702 1.19351 56.8007 0.724753C63.174 -0.18265 64.8469 3.09002 69.1517 5.48969C71.7836 6.95616 83.3605 10.2804 82.6724 16.3613C81.7908 24.1409 75.1035 20.5371 67.7626 29.6283C54.5429 45.9917 54.3795 57.2848 30.7139 62.355C17.047 65.2837 6.02481 56.0376 6.02481 56.0376H6.02051Z" fill="url(#paint1_linear_2030_12881)"/>
<mask id="mask0_2030_12881" style="mask-type:alpha" maskUnits="userSpaceOnUse" x="6" y="0" width="77" height="63">
<path d="M6.15771 56.0376C9.61531 13.523 43.7397 16.1377 50.0571 6.17777C51.7171 3.55877 54.8392 1.19351 56.9379 0.724753C63.3112 -0.18265 64.9841 3.09002 69.2889 5.48969C71.9208 6.95616 83.4977 10.2804 82.8096 16.3613C81.928 24.1409 75.2408 20.5371 67.8998 29.6283C54.6801 45.9917 54.5167 57.2848 30.8511 62.355C17.1842 65.2837 6.16202 56.0376 6.16202 56.0376H6.15771Z" fill="black"/>
</mask>
<g mask="url(#mask0_2030_12881)">
<g style="mix-blend-mode:multiply">
<path d="M8.6171 47.9557C19.7928 14.976 41.6229 18.9451 52.6352 8.48298C56.4551 6.41082 58.5322 4.40843 60.6064 4.32173C62.6806 4.23504 85.9277 12.3264 87.9269 14.1204C83.9882 22.8202 75.5921 38.0093 74.9688 39.2558C74.3456 40.5024 52.2889 58.906 41.3385 67.952C29.6956 67.1296 4.0809 61.3421 8.6171 47.9557Z" fill="url(#paint2_linear_2030_12881)" fill-opacity="0.46"/>
</g>
<g style="mix-blend-mode:multiply">
<path d="M8.61727 47.9557C10.8247 30.4264 55.3006 41.6933 52.6353 8.48299C56.3857 6.58455 58.33 4.35998 60.6065 4.32174C62.8831 4.28351 85.7732 12.2282 87.9271 14.1204C83.9884 22.8202 75.5923 38.0093 74.969 39.2558C74.3457 40.5024 52.2891 58.906 41.3386 67.952C29.6957 67.1296 6.85135 61.979 8.61727 47.9557Z" fill="url(#paint3_linear_2030_12881)" fill-opacity="0.46"/>
</g>
<g style="mix-blend-mode:screen">
<path d="M85.9898 17.7318C89.2755 10.4172 65.9683 7.27176 63.855 4.22607C64.0916 4.5905 64.8966 6.695 66.2249 12.1976C67.1805 16.1566 63.5032 18.9574 59.9241 20.1157C56.345 21.274 51.3366 20.1561 51.6043 23.7849C51.7216 25.3744 53.5741 27.1122 57.1081 26.8567C61.6421 26.529 68.3974 23.8135 71.9962 22.7917C78.4001 20.9733 83.5391 23.1878 85.9898 17.7318Z" fill="url(#paint4_linear_2030_12881)"/>
</g>
<g style="mix-blend-mode:screen">
<path d="M55.6046 23.8175C60.6046 26.8167 67.0112 17.1577 88.5111 17.6569C90.1778 21.9901 92.6046 31.5169 92.6046 32.3169C92.6046 33.3169 59.1046 69.3169 58.6046 69.3169C58.1046 69.3169 26.6045 75.8169 -3.88232 63.375C47.1308 65.433 50.6047 20.8182 55.6046 23.8175Z" fill="url(#paint5_linear_2030_12881)"/>
<path d="M55.6046 23.8175C60.6046 26.8167 67.0112 17.1577 88.5111 17.6569C90.1778 21.9901 92.6046 31.5169 92.6046 32.3169C92.6046 33.3169 59.1046 69.3169 58.6046 69.3169C58.1046 69.3169 26.6045 75.8169 -3.88232 63.375C47.1308 65.433 50.6047 20.8182 55.6046 23.8175Z" fill="url(#paint6_linear_2030_12881)"/>
</g>
<g style="mix-blend-mode:screen">
<path d="M9.55713 66.2547C54.1984 62.8059 53.8731 24.5335 75.8832 32.3401C97.8933 40.1466 87.1388 35.4375 88.2506 42.1082C89.6403 50.4466 84.6025 57.3953 80.6071 61.0433C76.6116 64.6913 64.6252 70.7714 48.1221 76.1566C34.9197 80.4647 16.9111 71.3504 9.55713 66.2547Z" fill="url(#paint7_linear_2030_12881)"/>
</g>
</g>
<path d="M0.227904 56.1918C1.21272 64.324 19.8983 64.7154 23.1108 68.6503C26.3233 72.5853 30.456 71.9961 31.372 70.0265C32.288 68.0568 25.6008 67.2742 25.4718 65.3045C31.243 67.0763 34.8102 69.0019 37.4056 68.9771C40.0011 68.9524 41.1357 68.5261 39.2994 66.8876C38.6539 66.3117 37.3673 66.3943 36.0813 66.0171C33.7089 65.3211 30.9846 64.3959 29.7938 64.3095C29.5003 64.2882 37.6485 64.6866 37.6485 63.499C37.8873 62.0941 29.0189 63.2713 28.1612 62.9897C24.0135 61.6283 20.077 60.5255 19.2447 60.1482C30.9334 57.8088 31.987 52.0762 29.7938 47.4919C25.2825 38.0609 -1.38478 42.8474 0.227904 56.1918Z" fill="url(#paint8_linear_2030_12881)"/>
<path d="M0.227904 56.1918C1.21272 64.324 19.8983 64.7154 23.1108 68.6503C26.3233 72.5853 30.456 71.9961 31.372 70.0265C32.288 68.0568 25.6008 67.2742 25.4718 65.3045C31.243 67.0763 34.8102 69.0019 37.4056 68.9771C40.0011 68.9524 41.1357 68.5261 39.2994 66.8876C38.6539 66.3117 37.3673 66.3943 36.0813 66.0171C33.7089 65.3211 30.9846 64.3959 29.7938 64.3095C29.5003 64.2882 37.6485 64.6866 37.6485 63.499C37.8873 62.0941 29.0189 63.2713 28.1612 62.9897C24.0135 61.6283 20.077 60.5255 19.2447 60.1482C30.9334 57.8088 31.987 52.0762 29.7938 47.4919C25.2825 38.0609 -1.38478 42.8474 0.227904 56.1918Z" fill="url(#paint9_linear_2030_12881)"/>
<mask id="mask1_2030_12881" style="mask-type:alpha" maskUnits="userSpaceOnUse" x="0" y="42" width="41" height="30">
<path d="M0.227904 56.1918C1.21272 64.324 19.8983 64.7154 23.1108 68.6503C26.3233 72.5853 30.456 71.9961 31.372 70.0265C32.288 68.0568 25.6008 67.2742 25.4718 65.3045C31.243 67.0763 34.1932 69.304 37.4056 68.9771C40.6181 68.6503 41.1427 67.8633 39.3064 66.2248C37.4701 64.5863 35.8316 65.3088 33.9953 65.1755C32.159 65.0422 20.4402 60.6901 19.2447 60.1482C30.9334 57.8088 31.987 52.0762 29.7938 47.4919C25.2825 38.0609 -1.38478 42.8474 0.227904 56.1918Z" fill="url(#paint10_linear_2030_12881)"/>
</mask>
<g mask="url(#mask1_2030_12881)">
<g style="mix-blend-mode:multiply">
<path d="M18.7466 62.9292C19.1276 63.0042 19.5248 63.1137 19.9317 63.253C26.6451 65.1262 32.1154 67.3506 35.1158 70.9011L42.4151 68.969C42.4231 68.9654 42.4299 68.9636 42.4355 68.9636L42.4151 68.969C41.9475 69.178 37.3732 75.3775 26.7547 73.0179C32.3113 72.0344 25.2759 65.0822 19.9317 63.253C19.5408 63.144 19.1457 63.0361 18.7466 62.9292Z" fill="url(#paint11_linear_2030_12881)" fill-opacity="0.47"/>
</g>
<g style="mix-blend-mode:multiply">
<path d="M6.48071 55.891C11.8656 56.9506 26.6536 60.5694 34.0484 49.9351C42.5961 51.8346 34.0279 58.6406 30.2478 61.3967C34.4819 61.8448 37.6131 62.1294 38.0506 62.5669C39.2506 63.7669 49.5316 65.8489 51.0316 69.3489L28.6577 62.5679C28.5882 62.5679 29.2518 62.1229 30.2478 61.3967C22.8687 60.6159 12.1397 59.3387 6.48071 55.891Z" fill="url(#paint12_linear_2030_12881)" fill-opacity="0.47"/>
</g>
<g style="mix-blend-mode:screen">
<path d="M11.1576 58.0691C31.9393 56.7618 14.4315 44.0543 -0.353027 53.9941C5.48545 33.3711 28.9576 38.8683 30.1576 40.0683C31.3576 41.2683 34.6576 48.5683 36.1576 52.0683L28.6576 62.5683C28.3242 62.5683 21.9576 60.4691 11.1576 58.0691Z" fill="url(#paint13_linear_2030_12881)" fill-opacity="0.47"/>
</g>
<g style="mix-blend-mode:color-dodge">
<path d="M11.1577 58.0699C31.9395 56.7626 25.081 41.5816 11.9791 43.483C17.5932 39.483 28.9577 38.8691 30.1577 40.0691C31.3577 41.2691 34.6577 48.5691 36.1577 52.0691L28.6577 62.5691C28.3244 62.5691 21.9577 60.4699 11.1577 58.0699Z" fill="url(#paint14_linear_2030_12881)" fill-opacity="0.65"/>
</g>
</g>
<mask id="mask2_2030_12881" style="mask-type:luminance" maskUnits="userSpaceOnUse" x="6" y="0" width="77" height="63">
<path d="M6.15771 56.0376C9.61531 13.523 43.7397 16.1377 50.0571 6.17777C51.7171 3.55877 54.8392 1.19351 56.9379 0.724753C63.3112 -0.18265 64.9841 3.09002 69.2889 5.48969C71.9208 6.95616 83.4977 10.2804 82.8096 16.3613C81.928 24.1409 75.2408 20.5371 67.8998 29.6283C54.6801 45.9917 54.5167 57.2848 30.8511 62.355C17.1842 65.2837 6.16202 56.0376 6.16202 56.0376H6.15771Z" fill="white"/>
</mask>
<g mask="url(#mask2_2030_12881)">
<path d="M83.3993 17.9975C69.4313 16.8235 59.9315 25.6997 54.8225 24.0913" stroke="url(#paint15_linear_2030_12881)" stroke-width="1.29015" stroke-miterlimit="10" stroke-linecap="round"/>
</g>
<path d="M74.8157 12.5174C75.6298 12.1507 77.346 13.2513 77.2116 14.8924C77.2042 14.9834 77.0831 15.0099 77.023 14.941C76.8855 14.7834 76.7065 14.64 76.5242 14.5894C74.3901 14.2186 73.9599 12.9029 74.8157 12.5174Z" fill="#0E6A19"/>
<path d="M47.3868 32.8761C52.5861 35.8391 50.896 42.5651 41.9123 48.8352C41.6801 51.3166 48.0405 62.9279 50.6165 63.2505C53.8462 63.6547 61.6127 63.2505 61.6127 65.7741C61.574 66.5009 57.3511 66.0458 57.3511 66.0458C57.3511 66.0458 58.5552 66.665 60.327 67.1295C62.9202 67.809 66.2906 68.7608 66.0853 70.385C65.5349 71.9274 61.6859 70.9913 59.6217 69.727C57.5575 68.4626 55.2868 68.5788 55.2868 68.5788C55.2868 68.5788 55.8115 69.0905 56.706 69.942C57.7811 70.9655 58.2283 72.7081 57.7897 73.4469C57.3511 74.1857 55.4936 72.8314 54.8398 71.5238C54.186 70.2163 52.1389 69.1636 48.9393 68.497C48.1695 68.3379 45.5978 67.6412 44.0453 66.2651C39.1643 61.9259 31.3632 50.3361 33.4446 45.6701C34.7778 42.6769 43.5336 30.6872 47.3782 32.8761H47.3868Z" fill="url(#paint16_linear_2030_12881)"/>
<path d="M47.3868 32.8761C52.5861 35.8391 50.896 42.5651 41.9123 48.8352C41.6801 51.3166 48.0405 62.9279 50.6165 63.2505C53.8462 63.6547 61.6127 63.2505 61.6127 65.7741C61.574 66.5009 57.3511 66.0458 57.3511 66.0458C57.3511 66.0458 58.5552 66.665 60.327 67.1295C62.9202 67.809 66.2906 68.7608 66.0853 70.385C65.5349 71.9274 61.6859 70.9913 59.6217 69.727C57.5575 68.4626 55.2868 68.5788 55.2868 68.5788C55.2868 68.5788 55.8115 69.0905 56.706 69.942C57.7811 70.9655 58.2283 72.7081 57.7897 73.4469C57.3511 74.1857 55.4936 72.8314 54.8398 71.5238C54.186 70.2163 52.1389 69.1636 48.9393 68.497C48.1695 68.3379 45.5978 67.6412 44.0453 66.2651C39.1643 61.9259 31.3632 50.3361 33.4446 45.6701C34.7778 42.6769 43.5336 30.6872 47.3782 32.8761H47.3868Z" fill="url(#paint17_linear_2030_12881)"/>
<mask id="mask3_2030_12881" style="mask-type:alpha" maskUnits="userSpaceOnUse" x="33" y="32" width="34" height="42">
<path d="M47.3868 32.8761C52.5861 35.8391 50.896 42.5651 41.9123 48.8352C41.6801 51.3166 48.0405 62.9279 50.6165 63.2505C53.8462 63.6547 61.6127 63.2505 61.6127 65.7741C61.574 66.5009 57.3511 66.0458 57.3511 66.0458C57.3511 66.0458 58.5552 66.665 60.327 67.1295C62.9202 67.809 66.2906 68.7608 66.0853 70.385C65.5349 71.9274 61.6859 70.9913 59.6217 69.727C57.5575 68.4626 55.2868 68.5788 55.2868 68.5788C55.2868 68.5788 55.8115 69.0905 56.706 69.942C57.7811 70.9655 58.2283 72.7081 57.7897 73.4469C57.3511 74.1857 55.4936 72.8314 54.8398 71.5238C54.186 70.2163 52.1389 69.1636 48.9393 68.497C48.1695 68.3379 45.5978 67.6412 44.0453 66.2651C39.1643 61.9259 31.3632 50.3361 33.4446 45.6701C34.7778 42.6769 43.5336 30.6872 47.3782 32.8761H47.3868Z" fill="url(#paint18_linear_2030_12881)"/>
<path d="M47.3868 32.8761C52.5861 35.8391 50.896 42.5651 41.9123 48.8352C41.6801 51.3166 48.0405 62.9279 50.6165 63.2505C53.8462 63.6547 61.6127 63.2505 61.6127 65.7741C61.574 66.5009 57.3511 66.0458 57.3511 66.0458C57.3511 66.0458 58.5552 66.665 60.327 67.1295C62.9202 67.809 66.2906 68.7608 66.0853 70.385C65.5349 71.9274 61.6859 70.9913 59.6217 69.727C57.5575 68.4626 55.2868 68.5788 55.2868 68.5788C55.2868 68.5788 55.8115 69.0905 56.706 69.942C57.7811 70.9655 58.2283 72.7081 57.7897 73.4469C57.3511 74.1857 55.4936 72.8314 54.8398 71.5238C54.186 70.2163 52.1389 69.1636 48.9393 68.497C48.1695 68.3379 45.5978 67.6412 44.0453 66.2651C39.1643 61.9259 31.3632 50.3361 33.4446 45.6701C34.7778 42.6769 43.5336 30.6872 47.3782 32.8761H47.3868Z" fill="url(#paint19_linear_2030_12881)"/>
</mask>
<g mask="url(#mask3_2030_12881)">
<g style="mix-blend-mode:multiply">
<path d="M50.0044 66.2104C51.4783 66.7238 56.6677 70.7589 57.0521 73.9624C57.8851 74.6672 59.7176 75.654 60.384 73.9624C61.2169 71.8479 55.8989 68.0678 50.0044 66.2104Z" fill="url(#paint20_linear_2030_12881)" fill-opacity="0.47"/>
</g>
<g style="mix-blend-mode:screen">
<path d="M33.6719 55.1116C33.9276 49.5728 50.5839 45.1263 50.1508 38.8979C50.6906 38.4997 51.8553 37.2599 52.1962 35.4873C52.6223 33.2714 49.7247 31.3129 48.6167 30.5442C47.5088 29.7754 42.0544 29.7771 41.0317 30.5442C40.009 31.3112 30.8899 41.5383 30.7194 41.9644C30.5831 42.3053 32.7912 51.7872 33.6719 55.1116Z" fill="url(#paint21_linear_2030_12881)" fill-opacity="0.47"/>
</g>
<g style="mix-blend-mode:color-dodge">
<path d="M33.1911 52.3635C33.4468 46.8247 50.584 45.1263 50.151 38.8979C50.6907 38.4997 51.8554 37.2599 52.1963 35.4873C52.6224 33.2714 49.7248 31.3129 48.6168 30.5442C47.5089 29.7754 42.0545 29.7771 41.0318 30.5442C40.0091 31.3112 30.89 41.5383 30.7195 41.9644C30.5832 42.3053 32.3104 49.0392 33.1911 52.3635Z" fill="url(#paint22_linear_2030_12881)" fill-opacity="0.65"/>
</g>
</g>
<path d="M64.1941 11.4443C64.8595 11.4443 65.3981 11.4435 65.7703 11.4434H66.365C66.3736 11.443 66.714 11.2845 66.8484 10.9434C66.7139 10.6023 66.3736 10.4437 66.365 10.4434H64.1941C62.8633 10.4432 61.0246 10.4424 58.9939 10.4424C56.9635 10.4424 55.1254 10.4432 53.7947 10.4434H51.6228C51.6116 10.4455 51.353 10.5672 51.199 10.8242L51.1404 10.9434L51.199 11.0625C51.3527 11.3193 51.6108 11.4409 51.6228 11.4434H52.2185C52.5907 11.4435 53.1295 11.4443 53.7947 11.4443H64.1941Z" fill="url(#paint23_linear_2030_12881)" stroke="url(#paint24_linear_2030_12881)"/>
<mask id="mask4_2030_12881" style="mask-type:alpha" maskUnits="userSpaceOnUse" x="51" y="10" width="16" height="1">
<path d="M58.9942 10.9427C63.0556 10.9427 66.3481 10.9431 66.3481 10.9435C66.3481 10.944 63.0556 10.9443 58.9942 10.9443C54.9328 10.9443 51.6404 10.944 51.6404 10.9435C51.6404 10.9431 54.9328 10.9427 58.9942 10.9427Z" fill="url(#paint25_linear_2030_12881)"/>
</mask>
<g mask="url(#mask4_2030_12881)">
<g filter="url(#filter0_i_2030_12881)">
<path d="M58.9938 16.1375C61.8629 16.1375 64.1888 13.8117 64.1888 10.9425C64.1888 8.07343 61.8629 5.74756 58.9938 5.74756C56.1247 5.74756 53.7988 8.07343 53.7988 10.9425C53.7988 13.8117 56.1247 16.1375 58.9938 16.1375Z" fill="url(#paint26_linear_2030_12881)"/>
</g>
<path d="M58.994 13.7985C60.571 13.7985 61.8495 12.52 61.8495 10.9429C61.8495 9.36586 60.571 8.0874 58.994 8.0874C57.4169 8.0874 56.1384 9.36586 56.1384 10.9429C56.1384 12.52 57.4169 13.7985 58.994 13.7985Z" fill="#060003"/>
</g>
<defs>
<filter id="filter0_i_2030_12881" x="53.7988" y="3.74756" width="10.3899" height="12.3899" filterUnits="userSpaceOnUse" color-interpolation-filters="sRGB">
<feFlood flood-opacity="0" result="BackgroundImageFix"/>
<feBlend mode="normal" in="SourceGraphic" in2="BackgroundImageFix" result="shape"/>
<feColorMatrix in="SourceAlpha" type="matrix" values="0 0 0 0 0 0 0 0 0 0 0 0 0 0 0 0 0 0 127 0" result="hardAlpha"/>
<feOffset dy="-2"/>
<feGaussianBlur stdDeviation="1.5"/>
<feComposite in2="hardAlpha" operator="arithmetic" k2="-1" k3="1"/>
<feColorMatrix type="matrix" values="0 0 0 0 1 0 0 0 0 1 0 0 0 0 1 0 0 0 1 0"/>
<feBlend mode="normal" in2="shape" result="effect1_innerShadow_2030_12881"/>
</filter>
<linearGradient id="paint0_linear_2030_12881" x1="6.02051" y1="31.7485" x2="82.6982" y2="31.7485" gradientUnits="userSpaceOnUse">
<stop stop-color="#217A3A"/>
<stop offset="1" stop-color="#50E342"/>
</linearGradient>
<linearGradient id="paint1_linear_2030_12881" x1="-15.2288" y1="11.3572" x2="27.731" y2="25.0156" gradientUnits="userSpaceOnUse">
<stop stop-color="#86FF7B"/>
<stop offset="1" stop-color="#86FF7B" stop-opacity="0"/>
</linearGradient>
<linearGradient id="paint2_linear_2030_12881" x1="30.4334" y1="27.9126" x2="58.76" y2="51.1281" gradientUnits="userSpaceOnUse">
<stop stop-color="#10672B"/>
<stop offset="1" stop-color="#54E37F"/>
</linearGradient>
<linearGradient id="paint3_linear_2030_12881" x1="30.4336" y1="27.9131" x2="58.7601" y2="51.1286" gradientUnits="userSpaceOnUse">
<stop stop-color="#10672B"/>
<stop offset="1" stop-color="#54E37F"/>
</linearGradient>
<linearGradient id="paint4_linear_2030_12881" x1="62.5067" y1="32.0226" x2="57.3" y2="4.69334" gradientUnits="userSpaceOnUse">
<stop stop-color="#C5F3BB" stop-opacity="0.82"/>
<stop offset="1" stop-color="#54DF66" stop-opacity="0.67"/>
</linearGradient>
<linearGradient id="paint5_linear_2030_12881" x1="71.4333" y1="61.6872" x2="71.2511" y2="19.0473" gradientUnits="userSpaceOnUse">
<stop stop-color="#06FF26" stop-opacity="0.18"/>
<stop offset="1" stop-color="#45FF5D" stop-opacity="0.67"/>
</linearGradient>
<linearGradient id="paint6_linear_2030_12881" x1="59.3835" y1="39.2123" x2="81.7594" y2="12.1916" gradientUnits="userSpaceOnUse">
<stop stop-color="#06FF26" stop-opacity="0.18"/>
<stop offset="1" stop-color="#DAFFDF" stop-opacity="0.67"/>
</linearGradient>
<linearGradient id="paint7_linear_2030_12881" x1="72.2834" y1="69.2444" x2="72.1209" y2="32.5066" gradientUnits="userSpaceOnUse">
<stop stop-color="#06FF26" stop-opacity="0.18"/>
<stop offset="1" stop-color="#45FF5D" stop-opacity="0.67"/>
</linearGradient>
<linearGradient id="paint8_linear_2030_12881" x1="23.1744" y1="75.2352" x2="36.0938" y2="42.5698" gradientUnits="userSpaceOnUse">
<stop stop-color="#207338"/>
<stop offset="1" stop-color="#218E42"/>
</linearGradient>
<linearGradient id="paint9_linear_2030_12881" x1="26.1617" y1="69.6678" x2="34.0077" y2="59.1918" gradientUnits="userSpaceOnUse">
<stop stop-color="#3AA95A" stop-opacity="0"/>
<stop offset="1" stop-color="#3AA75B"/>
</linearGradient>
<linearGradient id="paint10_linear_2030_12881" x1="0.159096" y1="57.0648" x2="40.3601" y2="57.0648" gradientUnits="userSpaceOnUse">
<stop stop-color="#217A3A"/>
<stop offset="1" stop-color="#50E342"/>
</linearGradient>
<linearGradient id="paint11_linear_2030_12881" x1="38.9355" y1="46.0972" x2="38.9355" y2="68.9635" gradientUnits="userSpaceOnUse">
<stop stop-color="#5AD55F"/>
<stop offset="1" stop-color="#3EB25B"/>
</linearGradient>
<linearGradient id="paint12_linear_2030_12881" x1="25.1577" y1="39.7026" x2="25.1577" y2="62.569" gradientUnits="userSpaceOnUse">
<stop stop-color="#5AD55F"/>
<stop offset="1" stop-color="#3EB25B"/>
</linearGradient>
<linearGradient id="paint13_linear_2030_12881" x1="25.1576" y1="39.7026" x2="25.1576" y2="62.569" gradientUnits="userSpaceOnUse">
<stop stop-color="#5AD55F"/>
<stop offset="1" stop-color="#3EB25B"/>
</linearGradient>
<linearGradient id="paint14_linear_2030_12881" x1="25.6867" y1="41.6515" x2="25.1577" y2="62.569" gradientUnits="userSpaceOnUse">
<stop stop-color="#5AD55F"/>
<stop offset="1" stop-color="#3EB25B"/>
</linearGradient>
<linearGradient id="paint15_linear_2030_12881" x1="54.629" y1="21.0896" x2="109.159" y2="17.5718" gradientUnits="userSpaceOnUse">
<stop stop-color="#0E5923"/>
<stop offset="1" stop-color="#1C990F"/>
</linearGradient>
<linearGradient id="paint16_linear_2030_12881" x1="51.99" y1="78.8557" x2="76.8866" y2="42.3618" gradientUnits="userSpaceOnUse">
<stop stop-color="#207338"/>
<stop offset="1" stop-color="#218E42"/>
</linearGradient>
<linearGradient id="paint17_linear_2030_12881" x1="47.1282" y1="71.9874" x2="62.7408" y2="55.4896" gradientUnits="userSpaceOnUse">
<stop stop-color="#3AA95A" stop-opacity="0"/>
<stop offset="1" stop-color="#3AA75B"/>
</linearGradient>
<linearGradient id="paint18_linear_2030_12881" x1="51.99" y1="78.8557" x2="76.8866" y2="42.3618" gradientUnits="userSpaceOnUse">
<stop stop-color="#207338"/>
<stop offset="1" stop-color="#218E42"/>
</linearGradient>
<linearGradient id="paint19_linear_2030_12881" x1="54.4418" y1="70.9738" x2="65.6474" y2="62.2998" gradientUnits="userSpaceOnUse">
<stop stop-color="#3AA95A" stop-opacity="0"/>
<stop offset="1" stop-color="#3AA75B"/>
</linearGradient>
<linearGradient id="paint20_linear_2030_12881" x1="58.9241" y1="52.4483" x2="58.9241" y2="71.1442" gradientUnits="userSpaceOnUse">
<stop stop-color="#5AD55F"/>
<stop offset="1" stop-color="#3EB25B"/>
</linearGradient>
<linearGradient id="paint21_linear_2030_12881" x1="45.753" y1="31.0808" x2="45.753" y2="52.3642" gradientUnits="userSpaceOnUse">
<stop stop-color="#5AD55F"/>
<stop offset="1" stop-color="#3EB25B"/>
</linearGradient>
<linearGradient id="paint22_linear_2030_12881" x1="55.6263" y1="37.4378" x2="30.6359" y2="49.8608" gradientUnits="userSpaceOnUse">
<stop stop-color="#5AD55F"/>
<stop offset="1" stop-color="#3EB25B" stop-opacity="0.85"/>
</linearGradient>
<linearGradient id="paint23_linear_2030_12881" x1="62.158" y1="10.9447" x2="62.158" y2="10.9426" gradientUnits="userSpaceOnUse">
<stop stop-color="#177332"/>
<stop offset="1" stop-color="#001C08"/>
</linearGradient>
<linearGradient id="paint24_linear_2030_12881" x1="61.6593" y1="10.9443" x2="61.6593" y2="10.9426" gradientUnits="userSpaceOnUse">
<stop stop-color="#A7F582"/>
<stop offset="1" stop-color="#54DF66"/>
</linearGradient>
<linearGradient id="paint25_linear_2030_12881" x1="62.158" y1="10.9447" x2="62.158" y2="10.9426" gradientUnits="userSpaceOnUse">
<stop stop-color="#177332"/>
<stop offset="1" stop-color="#001C08"/>
</linearGradient>
<linearGradient id="paint26_linear_2030_12881" x1="58.9938" y1="5.74756" x2="56.6589" y2="15.0698" gradientUnits="userSpaceOnUse">
<stop stop-color="#0057C7"/>
<stop offset="1" stop-color="#003E8D"/>
</linearGradient>
</defs>
</svg>
