<svg width="81" height="78" viewBox="0 0 81 78" fill="none" xmlns="http://www.w3.org/2000/svg">
<path d="M6.82189 42.1917C1.65607 34.8214 6.37668 28.4672 14.23 25.6607C22.0834 22.8542 31.0545 21.6826 38.2242 26.8542C44.9603 31.7131 54.829 40.1062 57.8695 39.9327C60.9101 39.7591 69.8027 36.6038 70.9181 36.1045C72.0335 35.6052 74.7184 34.7091 74.8835 35.272C75.0623 35.8812 73.6483 37.121 71.5329 37.8278C68.5527 38.8235 64.3064 40.5583 64.6268 40.9864C64.9473 41.4145 69.5034 39.6719 71.9817 39.2864C74.46 38.901 78.6988 38.4796 79.0458 39.9327C79.3928 41.3857 75.9005 40.6076 73.0702 41.1812C70.24 41.7547 66.3155 42.9457 66.6347 43.4407C66.954 43.9356 77.0937 42.1331 77.048 43.9247C77.0023 45.7162 64.3137 45.8513 58.8687 46.2357C57.0114 46.3668 52.5257 47.095 51.0733 46.2365C47.6234 44.1974 41.2073 38.3966 35.7583 36.1045C33.7792 35.272 28.8293 47.1345 24.6635 49.2275C20.4977 51.3206 10.4443 47.3593 6.82189 42.1917Z" fill="url(#paint0_linear_34_607)"/>
<path d="M6.82189 42.1917C1.65607 34.8214 6.37668 28.4672 14.23 25.6607C22.0834 22.8542 31.0545 21.6826 38.2242 26.8542C44.9603 31.7131 54.829 40.1062 57.8695 39.9327C60.9101 39.7591 69.8027 36.6038 70.9181 36.1045C72.0335 35.6052 74.7184 34.7091 74.8835 35.272C75.0623 35.8812 73.6483 37.121 71.5329 37.8278C68.5527 38.8235 64.3064 40.5583 64.6268 40.9864C64.9473 41.4145 69.5034 39.6719 71.9817 39.2864C74.46 38.901 78.6988 38.4796 79.0458 39.9327C79.3928 41.3857 75.9005 40.6076 73.0702 41.1812C70.24 41.7547 66.3155 42.9457 66.6347 43.4407C66.954 43.9356 77.0937 42.1331 77.048 43.9247C77.0023 45.7162 64.3137 45.8513 58.8687 46.2357C57.0114 46.3668 52.5257 47.095 51.0733 46.2365C47.6234 44.1974 41.2073 38.3966 35.7583 36.1045C33.7792 35.272 28.8293 47.1345 24.6635 49.2275C20.4977 51.3206 10.4443 47.3593 6.82189 42.1917Z" fill="#FF7E0A"/>
<mask id="mask0_34_607" style="mask-type:alpha" maskUnits="userSpaceOnUse" x="4" y="23" width="76" height="27">
<path d="M6.82226 42.1903C1.65644 34.82 6.37705 28.4659 14.2304 25.6594C22.0838 22.8529 31.0548 21.6812 38.2246 26.8529C44.9606 31.7117 54.8293 40.1048 57.8699 39.9313C60.9105 39.7578 69.8031 36.6025 70.9185 36.1032C72.0338 35.6039 74.7188 34.7078 74.8839 35.2707C75.0626 35.8799 73.6487 37.1197 71.5333 37.8264C68.553 38.8221 64.3068 40.5569 64.6272 40.985C64.9477 41.4131 69.5038 39.6705 71.9821 39.2851C74.4603 38.8997 78.6992 38.4783 79.0462 39.9313C79.3932 41.3843 75.9008 40.6063 73.0706 41.1798C70.2404 41.7533 66.3158 42.9444 66.6351 43.4393C66.9544 43.9343 77.094 42.1317 77.0483 43.9233C77.0026 45.7149 64.3141 45.85 58.8691 46.2344C57.0118 46.3655 52.526 47.0936 51.0737 46.2352C47.6238 44.196 41.2077 38.3953 35.7587 36.1032C33.7795 35.2707 28.8297 47.1331 24.6639 49.2262C20.4981 51.3193 10.4446 47.3579 6.82226 42.1903Z" fill="url(#paint1_linear_34_607)"/>
<path d="M6.82226 42.1903C1.65644 34.82 6.37705 28.4659 14.2304 25.6594C22.0838 22.8529 31.0548 21.6812 38.2246 26.8529C44.9606 31.7117 54.8293 40.1048 57.8699 39.9313C60.9105 39.7578 69.8031 36.6025 70.9185 36.1032C72.0338 35.6039 74.7188 34.7078 74.8839 35.2707C75.0626 35.8799 73.6487 37.1197 71.5333 37.8264C68.553 38.8221 64.3068 40.5569 64.6272 40.985C64.9477 41.4131 69.5038 39.6705 71.9821 39.2851C74.4603 38.8997 78.6992 38.4783 79.0462 39.9313C79.3932 41.3843 75.9008 40.6063 73.0706 41.1798C70.2404 41.7533 66.3158 42.9444 66.6351 43.4393C66.9544 43.9343 77.094 42.1317 77.0483 43.9233C77.0026 45.7149 64.3141 45.85 58.8691 46.2344C57.0118 46.3655 52.526 47.0936 51.0737 46.2352C47.6238 44.196 41.2077 38.3953 35.7587 36.1032C33.7795 35.2707 28.8297 47.1331 24.6639 49.2262C20.4981 51.3193 10.4446 47.3579 6.82226 42.1903Z" fill="#FF7E0A"/>
</mask>
<g mask="url(#mask0_34_607)">
<path d="M61.3703 43.9017C61.2552 43.0204 53.8103 42.321 54.246 43.9029C54.6816 45.4848 61.4854 44.783 61.3703 43.9017Z" fill="#FFBB18"/>
<path d="M29.4993 26.0467C28.7324 22.8056 10.6333 26.9396 14.2098 29.8015C17.7863 32.6635 30.2662 29.2877 29.4993 26.0467Z" fill="#FFBB18"/>
<path opacity="0.25" d="M33.7843 31.4082C25.6743 45.1398 10.003 45.5402 2.64542 33.0641C1.7213 33.9883 -0.766714 36.9457 -3.32586 41.3816C-6.52479 46.9264 -4.1789 54.0707 -0.126928 58.2293C3.92505 62.3879 23.865 60.4685 29.1966 59.7221C34.5281 58.9757 41.0353 51.5606 33.7843 31.4082Z" fill="black"/>
<path d="M59.6628 42.0809C60.4581 41.85 66.6846 39.4898 69.6397 38.4641C70.1015 38.4641 66.8559 40.2344 65.7682 40.747C64.6805 41.2597 61.2447 41.8499 59.6628 42.0809Z" fill="#BF5E07"/>
<path d="M62.902 44.4148C63.7794 44.2417 69.0474 41.9839 73.9095 41.7024C74.4189 41.7024 73.8351 42.6096 72.635 42.994C71.4349 43.3785 64.6473 44.2416 62.902 44.4148Z" fill="#BF5E07"/>
<path opacity="0.25" d="M49.0251 23.6484C38.6932 37.2215 35.4434 39.4493 35.4434 39.4493C35.4518 39.4482 33.2154 53.2058 42.5022 51.9056C47.8338 51.1592 47.3134 43.7817 49.0251 23.6484Z" fill="black"/>
</g>
<path d="M13.9248 63.175C15.0533 71.8225 22.584 73.2767 30.0336 70.1458C37.4831 67.0149 44.6621 61.9842 46.4043 53.5975C48.0411 45.7181 49.6053 33.2633 51.8922 31.3984C54.1792 29.5335 62.5997 25.9721 63.7236 25.5994C64.8475 25.2268 67.3529 24.111 67.1027 23.6006C66.832 23.0482 65.0103 23.0869 63.0359 23.9655C60.2542 25.2032 56.0842 26.7407 56.0332 26.2251C55.9822 25.7094 60.3789 23.9748 62.4025 22.6292C64.4262 21.2837 67.7318 18.8122 67.0294 17.5465C66.3269 16.2809 64.3395 19.1215 61.9413 20.5628C59.543 22.0042 55.9586 23.7199 55.863 23.1573C55.7675 22.5946 64.1946 17.2505 62.99 15.9998C61.7854 14.749 52.6271 22.9523 48.4835 26.2393C47.0701 27.3605 43.3873 29.7742 42.9107 31.3378C41.7785 35.0521 40.9865 43.3955 38.5908 48.5982C37.7206 50.4879 26.4229 45.2463 22.076 46.475C17.7291 47.7038 13.1339 57.1116 13.9248 63.175Z" fill="url(#paint2_linear_34_607)"/>
<path d="M13.9248 63.175C15.0533 71.8225 22.584 73.2767 30.0336 70.1458C37.4831 67.0149 44.6621 61.9842 46.4043 53.5975C48.0411 45.7181 49.6053 33.2633 51.8922 31.3984C54.1792 29.5335 62.5997 25.9721 63.7236 25.5994C64.8475 25.2268 67.3529 24.111 67.1027 23.6006C66.832 23.0482 65.0103 23.0869 63.0359 23.9655C60.2542 25.2032 56.0842 26.7407 56.0332 26.2251C55.9822 25.7094 60.3789 23.9748 62.4025 22.6292C64.4262 21.2837 67.7318 18.8122 67.0294 17.5465C66.3269 16.2809 64.3395 19.1215 61.9413 20.5628C59.543 22.0042 55.9586 23.7199 55.863 23.1573C55.7675 22.5946 64.1946 17.2505 62.99 15.9998C61.7854 14.749 52.6271 22.9523 48.4835 26.2393C47.0701 27.3605 43.3873 29.7742 42.9107 31.3378C41.7785 35.0521 40.9865 43.3955 38.5908 48.5982C37.7206 50.4879 26.4229 45.2463 22.076 46.475C17.7291 47.7038 13.1339 57.1116 13.9248 63.175Z" fill="#FF7E0A"/>
<mask id="mask1_34_607" style="mask-type:alpha" maskUnits="userSpaceOnUse" x="13" y="15" width="55" height="57">
<path d="M13.9248 63.175C15.0533 71.8225 22.584 73.2767 30.0336 70.1458C37.4831 67.0149 44.6621 61.9842 46.4043 53.5975C48.0411 45.7181 49.6053 33.2633 51.8922 31.3984C54.1792 29.5335 62.5997 25.9721 63.7236 25.5994C64.8475 25.2268 67.3529 24.111 67.1027 23.6006C66.832 23.0482 65.0103 23.0869 63.0359 23.9655C60.2542 25.2032 56.0842 26.7407 56.0332 26.2251C55.9822 25.7094 60.3789 23.9748 62.4025 22.6292C64.4262 21.2837 67.7318 18.8122 67.0294 17.5465C66.3269 16.2809 64.3395 19.1215 61.9413 20.5628C59.543 22.0042 55.9586 23.7199 55.863 23.1573C55.7675 22.5946 64.1946 17.2505 62.99 15.9998C61.7854 14.749 52.6271 22.9523 48.4835 26.2393C47.0701 27.3605 43.3873 29.7742 42.9107 31.3378C41.7785 35.0521 40.9865 43.3955 38.5908 48.5982C37.7206 50.4879 26.4229 45.2463 22.076 46.475C17.7291 47.7038 13.1339 57.1116 13.9248 63.175Z" fill="url(#paint3_linear_34_607)"/>
<path d="M13.9248 63.175C15.0533 71.8225 22.584 73.2767 30.0336 70.1458C37.4831 67.0149 44.6621 61.9842 46.4043 53.5975C48.0411 45.7181 49.6053 33.2633 51.8922 31.3984C54.1792 29.5335 62.5997 25.9721 63.7236 25.5994C64.8475 25.2268 67.3529 24.111 67.1027 23.6006C66.832 23.0482 65.0103 23.0869 63.0359 23.9655C60.2542 25.2032 56.0842 26.7407 56.0332 26.2251C55.9822 25.7094 60.3789 23.9748 62.4025 22.6292C64.4262 21.2837 67.7318 18.8122 67.0294 17.5465C66.3269 16.2809 64.3395 19.1215 61.9413 20.5628C59.543 22.0042 55.9586 23.7199 55.863 23.1573C55.7675 22.5946 64.1946 17.2505 62.99 15.9998C61.7854 14.749 52.6271 22.9523 48.4835 26.2393C47.0701 27.3605 43.3873 29.7742 42.9107 31.3378C41.7785 35.0521 40.9865 43.3955 38.5908 48.5982C37.7206 50.4879 26.4229 45.2463 22.076 46.475C17.7291 47.7038 13.1339 57.1116 13.9248 63.175Z" fill="#FF7E0A"/>
</mask>
<g mask="url(#mask1_34_607)">
<path d="M53.6636 24.5941C54.0861 24.36 57.3257 22.1834 58.875 21.2091C59.1371 21.1566 57.5158 22.6272 56.9623 23.0699C56.4089 23.5125 54.5326 24.2704 53.6636 24.5941Z" fill="#BF5E07"/>
<path d="M53.5811 27.0437C54.0443 26.9067 57.6783 25.4829 59.4018 24.8672C59.669 24.8726 57.7678 25.9574 57.1317 26.2697C56.4955 26.5821 54.4996 26.9159 53.5811 27.0437Z" fill="#BF5E07"/>
<path d="M33.1899 50.2506C33.3449 47.9232 20.3784 46.958 22.182 49.6111C23.9857 52.2641 33.0349 52.578 33.1899 50.2506Z" fill="#FFBB18"/>
<path opacity="0.25" d="M35.5407 63.9039C27.6293 67.215 14.2316 66.3173 16.854 50.8023C14.1952 51.64 8.44069 53.7743 6.69248 55.6099C4.50722 57.9045 5.92765 66.9733 7.67586 77.4626C9.42408 87.9518 10.4074 82.9257 21.3338 82.4887C32.2601 82.0516 49.6329 72.9828 50.507 71.9994C51.3811 71.016 52.5408 64.6602 47.9518 47.5059C47.9518 51.4393 43.4521 60.5929 35.5407 63.9039Z" fill="black"/>
</g>
<defs>
<linearGradient id="paint0_linear_34_607" x1="74.7624" y1="20.7147" x2="60.5239" y2="5.64415" gradientUnits="userSpaceOnUse">
<stop stop-color="#207338"/>
<stop offset="1" stop-color="#218E42"/>
</linearGradient>
<linearGradient id="paint1_linear_34_607" x1="74.7628" y1="20.7134" x2="60.5243" y2="5.6428" gradientUnits="userSpaceOnUse">
<stop stop-color="#207338"/>
<stop offset="1" stop-color="#218E42"/>
</linearGradient>
<linearGradient id="paint2_linear_34_607" x1="76.5384" y1="34.0857" x2="76.2185" y2="54.1721" gradientUnits="userSpaceOnUse">
<stop stop-color="#207338"/>
<stop offset="1" stop-color="#218E42"/>
</linearGradient>
<linearGradient id="paint3_linear_34_607" x1="76.5384" y1="34.0857" x2="76.2185" y2="54.1721" gradientUnits="userSpaceOnUse">
<stop stop-color="#207338"/>
<stop offset="1" stop-color="#218E42"/>
</linearGradient>
</defs>
</svg>
