<svg width="75" height="39" viewBox="0 0 75 39" fill="none" xmlns="http://www.w3.org/2000/svg">
<rect x="56.0811" y="18.2795" width="13.5137" height="10" fill="black"/>
<rect x="5.4054" y="18.2797" width="13.5137" height="10" fill="black"/>
<path d="M4.60429 33.036C5.07159 30.8552 6.99879 29.2972 9.22903 29.2972H65.771C68.0013 29.2972 69.9285 30.8552 70.3958 33.036C71.0267 35.9803 68.7822 38.7567 65.771 38.7567H9.22903C6.21788 38.7567 3.97337 35.9803 4.60429 33.036Z" fill="#080808"/>
<rect y="0.243286" width="75" height="20.2703" rx="8.78378" fill="#262626"/>
<rect x="5.4054" y="1.5946" width="64.8649" height="9.45946" rx="4.72973" fill="white"/>
<rect x="5.4054" y="1.5946" width="64.8649" height="9.45946" rx="4.72973" fill="#20E42C"/>
<mask id="mask0_62_548" style="mask-type:alpha" maskUnits="userSpaceOnUse" x="5" y="1" width="66" height="11">
<rect x="5.4054" y="1.5946" width="64.8649" height="9.45946" rx="4.72973" fill="#0051E6"/>
</mask>
<g mask="url(#mask0_62_548)">
<rect x="29.0541" y="-22.3761" width="8.36994" height="40.6762" transform="rotate(30 29.0541 -22.3761)" fill="white"/>
<rect x="44.4948" y="-13.4614" width="8.36994" height="40.6762" transform="rotate(30 44.4948 -13.4614)" fill="white"/>
<rect x="59.9354" y="-4.54675" width="8.36994" height="40.6762" transform="rotate(30 59.9354 -4.54675)" fill="white"/>
</g>
<rect x="5.91215" y="2.10136" width="63.8514" height="8.44595" rx="4.22297" stroke="white" stroke-width="1.01351"/>
<path d="M18.9189 33.1792C18.9189 34.5187 18.1332 35.734 16.9117 36.2837C13.8912 37.6429 10.4331 37.6429 7.41263 36.2837C6.19106 35.734 5.4054 34.5187 5.4054 33.1792V22.9127C5.72886 23.1001 6.07493 23.2565 6.44068 23.3759C10.1582 24.5898 14.1661 24.5898 17.8836 23.3759C18.2494 23.2565 18.5954 23.1001 18.9189 22.9127V33.1792Z" fill="#262626"/>
<path d="M69.5946 33.1792C69.5946 34.5187 68.8089 35.734 67.5873 36.2837C64.5669 37.6429 61.1088 37.6429 58.0883 36.2837C56.8667 35.734 56.0811 34.5187 56.0811 33.1792V22.9127C56.4045 23.1001 56.7506 23.2565 57.1163 23.3759C60.8339 24.5898 64.8418 24.5898 68.5593 23.3759C68.925 23.2565 69.2711 23.1001 69.5946 22.9127V33.1792Z" fill="#262626"/>
</svg>
