<svg width="82" height="60" viewBox="0 0 82 60" fill="none" xmlns="http://www.w3.org/2000/svg">
    <!-- Маска для вырезки прямоугольников -->
    <mask id="rectCut" maskUnits="userSpaceOnUse">
      <rect x="0" y="0" width="82" height="60" fill="white"/>
      <!-- черные прямоугольники = прозрачные области -->
      <rect x="28" y="20" width="4" height="20" rx="2" fill="black"/>
      <rect x="39" y="20" width="4" height="20" rx="2" fill="black"/>
      <rect x="50" y="20" width="4" height="20" rx="2" fill="black"/>
    </mask>
  
    <!-- Весь фон и эллипсы оборачиваем в группу с маской -->
    <g mask="url(#rectCut)">
      <path d="M81.4735 34.4258C81.4735 48.2329 63.3529 59.4258 41 59.4258C18.6471 59.4258 0.526489 48.2329 0.526489 34.4258C0.526489 33.4886 0.526489 30.7449 0.526489 30.7449C0.526489 30.7449 20.1643 9.42578 41 9.42578C61.3798 9.42578 81.4735 29.6449 81.4735 29.6449C81.4735 29.6449 81.4735 33.207 81.4735 34.4258Z" fill="#262626"/>
      <ellipse cx="41" cy="30" rx="40" ry="25" fill="#191919" stroke="#262626"/>
      <ellipse cx="41.5" cy="30.5" rx="27.5" ry="17.5" stroke="#030303" stroke-width="4"/>
    </g>
  </svg>