<svg width="319" height="230" viewBox="0 0 319 230" fill="none" xmlns="http://www.w3.org/2000/svg">
<g filter="url(#filter0_d_91_756)">
<ellipse cx="159.023" cy="102" rx="159" ry="102" fill="url(#paint0_linear_91_756)"/>
<path d="M159.023 2.5C202.523 2.5 241.789 13.8162 270.103 31.9795C298.443 50.1603 315.523 74.975 315.523 102C315.523 129.025 298.443 153.84 270.103 172.021C241.789 190.184 202.523 201.5 159.023 201.5C115.522 201.5 76.256 190.184 47.9426 172.021C19.6019 153.84 2.52266 129.025 2.52266 102C2.52266 74.975 19.6019 50.1603 47.9426 31.9795C76.256 13.8162 115.522 2.5 159.023 2.5Z" stroke="url(#paint1_linear_91_756)" stroke-width="5"/>
<path d="M159.023 2.5C202.523 2.5 241.789 13.8162 270.103 31.9795C298.443 50.1603 315.523 74.975 315.523 102C315.523 129.025 298.443 153.84 270.103 172.021C241.789 190.184 202.523 201.5 159.023 201.5C115.522 201.5 76.256 190.184 47.9426 172.021C19.6019 153.84 2.52266 129.025 2.52266 102C2.52266 74.975 19.6019 50.1603 47.9426 31.9795C76.256 13.8162 115.522 2.5 159.023 2.5Z" stroke="url(#paint2_linear_91_756)" stroke-opacity="0.2" stroke-width="5"/>
</g>
<path d="M262.924 66.103V58.489L261.774 58.0059L255.241 59.8692V66.103H262.924Z" fill="#17181B"/>
<path d="M220.624 46.4326V38.573L219.474 38.3355L212.941 40.1987V46.4326H220.624Z" fill="#17181B"/>
<path d="M160.757 29.3294V21.4698L161.907 21.2322L168.44 23.0955V29.3294H160.757Z" fill="#17181B"/>
<path d="M77.3179 47.334V39.4744L78.4681 39.2368L85.001 41.1001V47.334H77.3179Z" fill="#17181B"/>
<path d="M62.0503 106.462V98.6029L63.2004 98.3653L69.7333 100.229V106.462H62.0503Z" fill="#17181B"/>
<path d="M100.748 101.846V93.9862L101.899 93.7487L109.319 92.6599L108.432 101.846H100.748Z" fill="#17181B"/>
<path d="M151.004 103.02V95.1604L149.854 94.9228L142.433 93.8341L143.321 103.02H151.004Z" fill="#17181B"/>
<path d="M218.102 176.933V169.074L216.951 168.836L209.531 167.747L211.437 173.556L218.102 176.933Z" fill="#17181B"/>
<path d="M223.441 101.145V93.2849L222.29 93.0474L214.87 91.9586L216.776 97.7674L223.441 101.145Z" fill="#17181B"/>
<path d="M97.054 139.822V131.962L98.2042 131.725L105.625 130.636L105.255 138.982L97.054 139.822Z" fill="#17181B"/>
<path d="M84.6871 136.213V128.354L83.5369 128.116L77.7867 124.174L78.2772 128.526L84.6871 136.213Z" fill="#17181B"/>
<path d="M157.24 103.619C157.21 102.854 158.484 102.427 159.307 102.927L204.227 130.203C204.437 130.33 204.581 130.503 204.636 130.694L218.056 176.671C218.368 177.739 216.526 178.444 215.426 177.678L159.286 138.615C158.827 138.295 158.56 137.863 158.543 137.408L157.24 103.619Z" fill="#17181B"/>
<path d="M149.504 102.125C150.427 101.998 151.212 102.607 150.944 103.242L138.132 133.658C138.005 133.961 137.657 134.193 137.221 134.266L98.5859 140.71C97.7706 140.846 96.9998 140.39 97.0488 139.8L99.5524 109.694C99.5858 109.292 100.001 108.957 100.561 108.88L149.504 102.125Z" fill="#17181B"/>
<path d="M128.745 69.0407C129.002 68.7428 129.484 68.5798 129.975 68.6249L179.144 73.1459C179.394 73.1689 179.628 73.2443 179.816 73.3625L223.014 100.563C223.304 100.746 223.457 101.014 223.428 101.287L219.663 136.482C219.563 137.416 217.738 137.611 217.251 136.739L206.205 116.961C204.538 113.976 201.339 111.541 197.245 110.141L192.977 108.681L154.876 95.6882C154.635 95.6058 154.361 95.5805 154.097 95.6159L102.221 102.576C101.155 102.719 100.354 101.904 100.918 101.251L128.745 69.0407Z" fill="#17181B"/>
<path d="M178.284 26.812C178.582 26.7831 178.884 26.8304 179.136 26.9455L220.051 45.6392C220.578 45.8801 220.77 46.3592 220.499 46.7589L210.307 61.8234C209.552 62.9398 211.577 63.9517 212.821 63.0801L230.101 50.977C230.523 50.682 231.18 50.6364 231.675 50.8678L262.016 65.06C263.184 65.6064 263.333 66.7752 262.322 67.4596L227.384 91.099C226.261 91.8583 224.478 91.832 223.402 91.0402L189.537 66.1252C185.44 63.3397 181.713 62.3158 173.271 61.1641L134.367 56.2731C128.225 55.501 122.046 57.4866 118.844 61.261L87.8795 97.7662C83.0313 103.719 83.1877 106.696 83.5005 111.878L84.7 136.029C84.7473 136.982 82.9123 137.302 82.3232 136.444L62.3623 107.344C62.0735 106.923 61.9819 106.448 62.1011 105.988L74.1033 59.6671C74.2607 59.0594 75.2329 58.7512 75.9825 59.0713L94.0352 66.7815C95.5094 67.4111 97.1327 66.1428 96.093 65.1737L77.573 47.9099C77.3636 47.7146 77.2785 47.4669 77.3384 47.2258L79.7473 37.5376C79.8405 37.1629 80.264 36.8725 80.798 36.8173L149.401 29.7245C149.928 29.67 150.446 29.857 150.692 30.1902L160.266 43.1632C161.074 44.2573 163.432 43.7338 163.204 42.511L160.765 29.3997C160.676 28.9191 161.153 28.4775 161.834 28.4112L178.284 26.812Z" fill="#17181B"/>
<path d="M157.24 95.8155C157.21 95.0499 158.484 94.6234 159.307 95.1232L204.227 122.399C204.437 122.527 204.581 122.699 204.636 122.89L218.056 168.867C218.368 169.935 216.526 170.64 215.426 169.874L159.286 130.811C158.827 130.492 158.56 130.059 158.543 129.604L157.24 95.8155Z" fill="url(#paint3_linear_91_756)"/>
<path d="M149.504 94.3215C150.427 94.1942 151.212 94.8029 150.944 95.4382L138.132 125.855C138.005 126.157 137.657 126.389 137.221 126.462L98.5859 132.907C97.7706 133.043 96.9998 132.586 97.0488 131.997L99.5524 101.89C99.5858 101.489 100.001 101.154 100.561 101.076L149.504 94.3215Z" fill="url(#paint4_linear_91_756)"/>
<path d="M128.745 61.237C129.002 60.9391 129.484 60.7761 129.975 60.8212L179.144 65.3422C179.394 65.3652 179.628 65.4406 179.816 65.5589L223.014 92.7596C223.304 92.9423 223.457 93.2099 223.428 93.4835L219.663 128.678C219.563 129.613 217.738 129.807 217.251 128.935L206.205 109.158C204.538 106.172 201.339 103.738 197.245 102.337L192.977 100.877L154.876 87.8846C154.635 87.8021 154.361 87.7768 154.097 87.8122L102.221 94.7726C101.155 94.9156 100.354 94.1005 100.918 93.4475L128.745 61.237Z" fill="url(#paint5_linear_91_756)"/>
<path d="M178.284 19.0083C178.582 18.9794 178.884 19.0267 179.136 19.1418L220.051 37.8356C220.578 38.0764 220.77 38.5555 220.499 38.9553L210.307 54.0197C209.552 55.1361 211.577 56.148 212.821 55.2764L230.101 43.1733C230.523 42.8783 231.18 42.8327 231.675 43.0641L262.016 57.2563C263.184 57.8028 263.333 58.9716 262.322 59.6559L227.384 83.2953C226.261 84.0547 224.478 84.0284 223.402 83.2365L189.537 58.3215C185.44 55.536 181.713 54.5122 173.271 53.3604L134.367 48.4695C128.225 47.6974 122.046 49.6829 118.844 53.4573L87.8795 89.9625C83.0313 95.9158 83.1877 98.8925 83.5005 104.074L84.7 128.225C84.7473 129.179 82.9123 129.499 82.3232 128.64L62.3623 99.5406C62.0735 99.1196 61.9819 98.6446 62.1011 98.1845L74.1033 51.8634C74.2607 51.2557 75.2329 50.9475 75.9825 51.2676L94.0352 58.9778C95.5094 59.6075 97.1327 58.3391 96.093 57.37L77.573 40.1062C77.3636 39.911 77.2785 39.6632 77.3384 39.4221L79.7473 29.7339C79.8405 29.3592 80.264 29.0688 80.798 29.0136L149.401 21.9208C149.928 21.8663 150.446 22.0533 150.692 22.3865L160.266 35.3595C161.074 36.4536 163.432 35.9301 163.204 34.7073L160.765 21.5961C160.676 21.1154 161.153 20.6738 161.834 20.6075L178.284 19.0083Z" fill="url(#paint6_linear_91_756)"/>
<defs>
<filter id="filter0_d_91_756" x="0.0226593" y="0" width="318" height="230" filterUnits="userSpaceOnUse" color-interpolation-filters="sRGB">
<feFlood flood-opacity="0" result="BackgroundImageFix"/>
<feColorMatrix in="SourceAlpha" type="matrix" values="0 0 0 0 0 0 0 0 0 0 0 0 0 0 0 0 0 0 127 0" result="hardAlpha"/>
<feOffset dy="26"/>
<feComposite in2="hardAlpha" operator="out"/>
<feColorMatrix type="matrix" values="0 0 0 0 0.10922 0 0 0 0 0.118901 0 0 0 0 0.143104 0 0 0 1 0"/>
<feBlend mode="normal" in2="BackgroundImageFix" result="effect1_dropShadow_91_756"/>
<feBlend mode="normal" in="SourceGraphic" in2="effect1_dropShadow_91_756" result="shape"/>
</filter>
<linearGradient id="paint0_linear_91_756" x1="91.0226" y1="14" x2="269.023" y2="179" gradientUnits="userSpaceOnUse">
<stop stop-color="#313437"/>
<stop offset="1" stop-color="#282A2F"/>
</linearGradient>
<linearGradient id="paint1_linear_91_756" x1="159.023" y1="0" x2="159.023" y2="204" gradientUnits="userSpaceOnUse">
<stop stop-color="#2E3033"/>
<stop offset="1" stop-color="#282B32"/>
</linearGradient>
<linearGradient id="paint2_linear_91_756" x1="159.023" y1="0" x2="159.023" y2="204" gradientUnits="userSpaceOnUse">
<stop stop-color="#303030" stop-opacity="0"/>
<stop offset="1" stop-color="#B3B3BB"/>
</linearGradient>
<linearGradient id="paint3_linear_91_756" x1="87.5733" y1="34.3131" x2="222.046" y2="167.713" gradientUnits="userSpaceOnUse">
<stop stop-color="#57575F"/>
<stop offset="1" stop-color="#47474C"/>
</linearGradient>
<linearGradient id="paint4_linear_91_756" x1="87.5733" y1="34.3131" x2="222.046" y2="167.713" gradientUnits="userSpaceOnUse">
<stop stop-color="#57575F"/>
<stop offset="1" stop-color="#47474C"/>
</linearGradient>
<linearGradient id="paint5_linear_91_756" x1="87.5733" y1="34.3131" x2="222.046" y2="167.713" gradientUnits="userSpaceOnUse">
<stop stop-color="#57575F"/>
<stop offset="1" stop-color="#47474C"/>
</linearGradient>
<linearGradient id="paint6_linear_91_756" x1="87.5733" y1="34.3131" x2="222.046" y2="167.713" gradientUnits="userSpaceOnUse">
<stop stop-color="#57575F"/>
<stop offset="1" stop-color="#47474C"/>
</linearGradient>
</defs>
</svg>
