<svg width="76" height="39" viewBox="0 0 76 39" fill="none" xmlns="http://www.w3.org/2000/svg">
<rect x="56.5457" y="19.0382" width="13.5137" height="10" fill="black"/>
<rect x="5.86987" y="19.0382" width="13.5137" height="10" fill="black"/>
<path d="M5.06889 33.036C5.53619 30.8552 7.46339 29.2972 9.69363 29.2972H66.2356C68.4659 29.2972 70.3931 30.8552 70.8604 33.036C71.4913 35.9803 69.2468 38.7567 66.2356 38.7567H9.69363C6.68248 38.7567 4.43797 35.9803 5.06889 33.036Z" fill="#080808"/>
<rect x="0.4646" y="0.243286" width="75" height="20.2703" rx="8.78378" fill="#262626"/>
<rect x="5.87" y="1.5946" width="64.8649" height="9.45946" rx="4.72973" fill="white"/>
<rect x="5.87" y="1.5946" width="64.8649" height="9.45946" rx="4.72973" fill="#922BE1"/>
<mask id="mask0_62_567" style="mask-type:alpha" maskUnits="userSpaceOnUse" x="5" y="1" width="66" height="11">
<rect x="5.87" y="1.5946" width="64.8649" height="9.45946" rx="4.72973" fill="#0051E6"/>
</mask>
<g mask="url(#mask0_62_567)">
<rect x="29.5187" y="-22.3761" width="8.36994" height="40.6762" transform="rotate(30 29.5187 -22.3761)" fill="white"/>
<rect x="44.9594" y="-13.4614" width="8.36994" height="40.6762" transform="rotate(30 44.9594 -13.4614)" fill="white"/>
<rect x="60.4" y="-4.54675" width="8.36994" height="40.6762" transform="rotate(30 60.4 -4.54675)" fill="white"/>
</g>
<rect x="6.37675" y="2.10136" width="63.8514" height="8.44595" rx="4.22297" stroke="white" stroke-width="1.01351"/>
<path d="M19.3835 33.1792C19.3835 34.5187 18.5978 35.734 17.3763 36.2837C14.3558 37.6429 10.8977 37.6429 7.87723 36.2837C6.65566 35.734 5.87 34.5187 5.87 33.1792V22.9127C6.19346 23.1001 6.53953 23.2565 6.90528 23.3759C10.6228 24.5898 14.6307 24.5898 18.3482 23.3759C18.714 23.2565 19.06 23.1001 19.3835 22.9127V33.1792Z" fill="#262626"/>
<path d="M70.0592 33.1792C70.0592 34.5187 69.2735 35.734 68.0519 36.2837C65.0315 37.6429 61.5734 37.6429 58.5529 36.2837C57.3313 35.734 56.5457 34.5187 56.5457 33.1792V22.9127C56.8691 23.1001 57.2152 23.2565 57.5809 23.3759C61.2985 24.5898 65.3064 24.5898 69.0239 23.3759C69.3896 23.2565 69.7357 23.1001 70.0592 22.9127V33.1792Z" fill="#262626"/>
</svg>
