<svg width="78" height="40" viewBox="0 0 78 40" fill="none" xmlns="http://www.w3.org/2000/svg">
<rect x="5.86987" y="16.9991" width="13.5137" height="10" fill="black"/>
<rect x="56.5455" y="16.9991" width="13.5137" height="10" fill="black"/>
<path d="M5.06889 34.036C5.53619 31.8552 7.46339 30.2972 9.69363 30.2972H66.2356C68.4659 30.2972 70.3931 31.8552 70.8604 34.036C71.4913 36.9803 69.2468 39.7567 66.2356 39.7567H9.69363C6.68248 39.7567 4.43797 36.9803 5.06889 34.036Z" fill="#080808"/>
<path d="M28.1674 10.9828L35.8538 7.89441C36.263 8.68733 38.4222 9.28052 38.4222 9.81703C38.4222 10.171 35.4503 16.4419 35.4503 16.4419C36.1525 18.7654 40.6694 18.6123 40.6694 18.6123C40.6694 18.6123 38.8443 23.7623 39.1623 24.8146L30.7914 26.1645L20.4519 19.8225L28.1674 21.3814L28.1674 10.9828Z" fill="black"/>
<mask id="mask0_62_679" style="mask-type:alpha" maskUnits="userSpaceOnUse" x="-14" y="-7" width="55" height="37">
<path d="M37.9647 22.8647C38.015 22.6883 40.8175 17.2798 40.8175 17.2798C38.6355 14.8817 37.3444 14.4726 35.1624 12.0745L35.8313 10.8804L38.55 9.71096L37.6934 8.1945C37.6934 8.1945 -9.18922 -7.86864 -6.55527 -5.97686C-3.23615 -3.59296 -9.8621 12.2143 -13.59 19.82L22.7379 29.2923C22.7379 29.2923 35.4797 27.8439 36.1045 27.6181C36.7293 27.3922 38.2471 24.9917 38.2471 24.9917C38.2471 24.9917 34.5799 25.4758 31.7076 25.4758C30.4823 25.4758 23.1589 20.8295 23.1589 20.8295L31.2812 23.3477C31.2812 23.3477 37.9376 22.9595 37.9647 22.8647Z" fill="black"/>
</mask>
<g mask="url(#mask0_62_679)">
<path d="M0.983044 7.42783C2.15273 2.71981 6.91756 -0.148582 11.6256 1.02111L67.3636 14.869C72.0716 16.0387 74.94 20.8035 73.7703 25.5115L73.1186 28.1345C71.9489 32.8425 67.1841 35.7109 62.4761 34.5412L6.7381 20.6933C2.03008 19.5236 -0.838307 14.7588 0.331381 10.0508L0.983044 7.42783Z" fill="#262626"/>
<path d="M5.28012 5.45969C5.90995 2.9246 8.47563 1.38009 11.0107 2.00992L64.7815 15.369C67.3166 15.9989 68.8611 18.5645 68.2312 21.0996C67.6014 23.6347 65.0357 25.1792 62.5006 24.5494L8.7299 11.1903C6.19481 10.5605 4.65029 7.99478 5.28012 5.45969Z" fill="white"/>
<path d="M5.28012 5.45969C5.90995 2.9246 8.47563 1.38009 11.0107 2.00992L64.7815 15.369C67.3166 15.9989 68.8611 18.5645 68.2312 21.0996C67.6014 23.6347 65.0357 25.1792 62.5006 24.5494L8.7299 11.1903C6.19481 10.5605 4.65029 7.99478 5.28012 5.45969Z" fill="#922BE1"/>
<mask id="mask1_62_679" style="mask-type:alpha" maskUnits="userSpaceOnUse" x="5" y="1" width="64" height="24">
<path d="M5.28012 5.45969C5.90995 2.9246 8.47563 1.38009 11.0107 2.00992L64.7815 15.369C67.3166 15.9989 68.8611 18.5645 68.2312 21.0996C67.6014 23.6347 65.0357 25.1792 62.5006 24.5494L8.7299 11.1903C6.19481 10.5605 4.65029 7.99478 5.28012 5.45969Z" fill="#0051E6"/>
</mask>
<g mask="url(#mask1_62_679)">
<path d="M35.1512 -16.6919L42.2517 -9.82999L14.0282 19.445L6.92772 12.5831L35.1512 -16.6919Z" fill="white"/>
<path d="M49.0699 -3.27307L55.4908 2.9172L27.2591 32.2007L20.8382 26.0104L49.0699 -3.27307Z" fill="white"/>
<path d="M62.3008 9.48267L66.8482 13.8668L38.6164 43.1502L34.069 38.7662L62.3008 9.48267Z" fill="white"/>
</g>
<path d="M62.745 23.5658L62.5006 24.5494L8.72989 11.1903L8.97427 10.2067L62.745 23.5658ZM67.2476 20.8553C67.7425 18.8634 66.5289 16.8475 64.5371 16.3526L10.7663 2.99353C8.77449 2.49866 6.7586 3.71221 6.26373 5.70407C5.76886 7.69592 6.98241 9.71181 8.97427 10.2067L8.72989 11.1903C6.19481 10.5605 4.65029 7.99478 5.28012 5.45969C5.90995 2.9246 8.47563 1.38009 11.0107 2.00992L64.7815 15.369L65.0163 15.4335C67.4111 16.159 68.8414 18.6438 68.2312 21.0996C67.6211 23.5555 65.1942 25.0819 62.7384 24.6023L62.5006 24.5494L62.745 23.5658C64.7369 24.0607 66.7528 22.8471 67.2476 20.8553Z" fill="white"/>
</g>
<path d="M19.3835 34.179C19.3835 35.5186 18.5978 36.7339 17.3763 37.2836C14.3558 38.6428 10.8977 38.6428 7.87723 37.2836C6.65566 36.7339 5.87 35.5186 5.87 34.179V23.9126C6.19346 24.1 6.53953 24.2564 6.90528 24.3758C10.6228 25.5897 14.6307 25.5897 18.3482 24.3758C18.714 24.2564 19.06 24.1 19.3835 23.9126V34.179Z" fill="#262626"/>
<path d="M70.0592 34.179C70.0592 35.5186 69.2735 36.7339 68.0519 37.2836C65.0315 38.6428 61.5734 38.6428 58.5529 37.2836C57.3313 36.7339 56.5457 35.5186 56.5457 34.179V23.9126C56.8691 24.1 57.2152 24.2564 57.5809 24.3758C61.2985 25.5897 65.3064 25.5897 69.0239 24.3758C69.3896 24.2564 69.7357 24.1 70.0592 23.9126V34.179Z" fill="#262626"/>
<path d="M39.8709 10.9831L44.8046 7.24915C45.2139 8.04206 46.0325 9.76202 46.0325 10.2985C46.0325 10.6525 46.7989 19.7354 46.7989 19.7354L63.8044 18.5857L55.9005 22.3701C55.9005 22.3701 47.229 24.2343 46.7989 24.7173L40.6673 28.1663L38.3943 26.1433L39.3111 21.1059L39.8709 10.9831Z" fill="black"/>
<mask id="mask2_62_679" style="mask-type:alpha" maskUnits="userSpaceOnUse" x="40" y="-7" width="51" height="37">
<path d="M83.8122 -5.97649C80.493 -3.5926 87.119 12.2147 90.8469 19.8204L54.5189 29.2926L40.467 28.2648L41.0657 26.3577L40.467 23.2262L43.5522 23.2262L43.916 22.4371C44.9728 22.2765 53.4449 22.1237 53.4449 22.1237L60.5463 19.4834L53.1163 20.9647L44.3281 20.9647L44.8144 19.1912L40.6559 14.2116L40.6559 13.2308L44.0912 10.0191L44.4943 7.15335C44.4943 7.15335 86.4461 -7.86828 83.8122 -5.97649Z" fill="black"/>
</mask>
<g mask="url(#mask2_62_679)">
<path d="M76.2737 7.4282C75.104 2.72017 70.3392 -0.148216 65.6311 1.02147L9.89316 14.8693C5.18514 16.039 2.31675 20.8038 3.48644 25.5119L4.1381 28.1348C5.30779 32.8429 10.0726 35.7112 14.7806 34.5416L70.5186 20.6937C75.2266 19.524 78.095 14.7592 76.9253 10.0512L76.2737 7.4282Z" fill="#262626"/>
<path d="M71.9766 5.46006C71.3468 2.92497 68.7811 1.38045 66.246 2.01028L12.4752 15.3694C9.94016 15.9992 8.39564 18.5649 9.02547 21.1C9.65531 23.6351 12.221 25.1796 14.7561 24.5498L68.5268 11.1907C71.0619 10.5608 72.6064 7.99515 71.9766 5.46006Z" fill="white"/>
<path d="M71.9766 5.46006C71.3468 2.92497 68.7811 1.38045 66.246 2.01028L12.4752 15.3694C9.94016 15.9992 8.39564 18.5649 9.02547 21.1C9.65531 23.6351 12.221 25.1796 14.7561 24.5498L68.5268 11.1907C71.0619 10.5608 72.6064 7.99515 71.9766 5.46006Z" fill="#922BE1"/>
<mask id="mask3_62_679" style="mask-type:alpha" maskUnits="userSpaceOnUse" x="8" y="1" width="65" height="24">
<path d="M71.9766 5.46006C71.3468 2.92497 68.7811 1.38045 66.246 2.01028L12.4752 15.3694C9.94016 15.9992 8.39564 18.5649 9.02547 21.1C9.65531 23.6351 12.221 25.1796 14.7561 24.5498L68.5268 11.1907C71.0619 10.5608 72.6064 7.99515 71.9766 5.46006Z" fill="#0051E6"/>
</mask>
<g mask="url(#mask3_62_679)">
<path d="M60.2955 -5.88583L68.9105 -3.57744L53.3394 34.3614L44.7244 32.053L60.2955 -5.88583Z" fill="white"/>
<path d="M41.4426 -5.88559L50.0576 -3.5772L34.4865 34.3617L25.8715 32.0533L41.4426 -5.88559Z" fill="white"/>
</g>
<path d="M14.5117 23.5662L14.7561 24.5498L68.5268 11.1907L68.2824 10.207L14.5117 23.5662ZM10.0091 20.8556C9.51422 18.8638 10.7278 16.8479 12.7196 16.353L66.4904 2.9939C68.4822 2.49903 70.4981 3.71258 70.993 5.70443C71.4878 7.69629 70.2743 9.71218 68.2824 10.207L68.5268 11.1907C71.0619 10.5608 72.6064 7.99515 71.9766 5.46006C71.3468 2.92497 68.7811 1.38045 66.246 2.01028L12.4752 15.3694L12.2404 15.4339C9.84566 16.1594 8.41533 18.6441 9.02547 21.1C9.63562 23.5558 12.0625 25.0823 14.5183 24.6027L14.7561 24.5498L14.5117 23.5662C12.5198 24.061 10.504 22.8475 10.0091 20.8556Z" fill="white"/>
</g>
</svg>
