<svg width="105" height="86" viewBox="0 0 105 86" fill="none" xmlns="http://www.w3.org/2000/svg">
<path d="M44.9187 47.8594C44.774 50.1021 43.9777 50.6103 40.5763 51.4061C41.0246 52.1428 40.5763 54.1443 40.5763 54.4379C40.5763 54.7316 38.2194 56.885 29.5079 57.4233C20.7964 57.9617 12.4972 51.753 6.64704 51.1065C2.62399 50.662 0.972717 53.6234 0.972717 51.4061C1.52892 45.1893 10.6153 38.6686 17.7799 38.3791C10.1811 25.3521 1.20728 25.57 2.87179 23.4713C4.53629 21.3726 18.2141 15.8728 32.1091 22.8927C46.0041 29.9126 45.0633 45.6168 44.9187 47.8594Z" fill="#1F1F1F"/>
<path d="M9.45769 78.6744C4.42434 64.2932 25.2767 43.68 43.2533 64.5342C44.1345 65.4685 45.3788 67.1492 43.3062 66.3975C40.7154 65.458 39.8613 67.5648 36.5872 70.5257C33.3132 73.4866 29.2989 75.5649 25.5123 76.0489C22.4376 76.5044 20.6211 75.5729 18.3379 75.7642C16.097 75.952 16.6771 77.1311 13.8652 77.1808C11.0534 77.2306 9.72046 79.4252 9.45769 78.6744Z" fill="#262626"/>
<path d="M16.6185 24.0281C35.6751 30.758 44.8576 42.8957 53.1595 74.4056C52.257 73.4171 50.2891 70.901 49.6375 68.7447C44.2287 50.0655 34.3989 32.6146 16.6185 24.0281Z" fill="#191919"/>
<path d="M94.4482 51.3057C87.0125 45.7806 69.5757 44.33 63.5221 61.3722C65.9938 62.7355 71.6464 65.8051 74.4827 67.1776C78.0281 68.8931 88.0925 67.4063 91.8094 66.1482C95.5264 64.8902 100.902 65.9767 103.018 66.3198C105.133 66.6629 104.447 64.7758 103.018 63.4606C101.588 62.1454 100.528 56.5523 94.4482 51.3057Z" fill="#1F1F1F"/>
<path d="M71.412 13.3519C81.8136 8.47761 90.1788 11.3161 89.6696 12.7705C83.6023 16.21 85.6396 22.2502 83.9666 24.2869C82.2936 26.3236 85.2325 36.2654 77.7404 43.3211C71.7467 48.9656 62.3925 48.7765 58.4646 47.9764C57.5675 48.0491 55.6423 45.8088 55.1186 36.2654C54.464 24.3362 61.0105 18.2262 71.412 13.3519Z" fill="#191919"/>
<path d="M31.9889 4.19934C31.1508 2.3325 31.9889 0.224018 34.3434 0.406032C36.698 0.588046 43.6129 3.67994 47.171 6.14896C59.9108 14.9894 60.5548 30.3089 52.1569 42.7646C52.2602 43.251 52.1517 44.2701 50.8918 44.4553C49.6267 40.3792 41.4888 35.0061 36.3473 31.0689C31.2058 27.1316 31.1949 23.5924 31.1949 18.4033C31.195 15.5831 32.5884 10.0429 31.9889 4.19934Z" fill="#262626"/>
<path d="M52.7358 75.2379C52.5851 63.5614 50.4536 33.4229 39.5795 7.79077C49.906 18.8583 54.4108 48.9804 55.3724 62.658C55.4226 64.2148 54.9656 68.9104 52.7358 75.2379Z" fill="#191919"/>
<path d="M80.6287 28.6634C70.5253 29.8055 63.1929 38.6725 63.3245 50.0562C63.3245 50.451 63.4956 51.1089 64.18 50.5825C85.3677 53.4777 94.5139 41.4362 96.2905 39.0674C98.0672 36.6986 104.713 36.567 104.976 35.1194C105.239 33.6718 103.298 32.5431 100.173 31.1713C96.2905 29.4669 91.1504 27.4739 80.6287 28.6634Z" fill="#262626"/>
<path d="M68.5909 26.7629C68.2728 27.1932 67.9608 27.6246 67.6547 28.057C62.0536 36.4591 58.023 54.3965 56.6559 62.7168L54.8656 69.654C54.7413 70.7978 54.0749 73.608 52.4039 75.6985C52.258 67.6068 54.3222 46.8911 67.6547 28.057C67.9621 27.5959 68.2742 27.1635 68.5909 26.7629Z" fill="#191919"/>
<path d="M91.0362 33.0525C88.9091 33.6097 86.9014 34.222 85.0063 34.883C67.7439 41.6563 58.4379 59.1111 56.1046 67.4496C55.4641 68.9867 54.447 72.2459 52.6025 76.303C53.3244 66.8471 55.779 45.0775 85.0063 34.883C86.9182 34.1329 88.9277 33.5137 91.0362 33.0525Z" fill="#191919"/>
<path d="M78.0736 55.7252C62.9591 55.3253 59.0739 66.1286 54.1331 77.4832C52.4181 77.6749 52.4601 74.3956 53.8122 69.3943C63.6426 47.8373 87.0429 52.6072 96.2399 60.5531C96.6459 60.8343 96.9038 61.0725 96.9965 61.2451C96.7565 61.0122 96.504 60.7813 96.2399 60.5531C93.9284 58.9522 86.8171 55.9565 78.0736 55.7252Z" fill="#191919"/>
<path d="M8.25729 47.1138C30.6687 37.0852 44.6197 51.8768 53.7524 77.4246C54.1581 78.5439 52.3279 78.3582 51.7914 76.9777C46.4687 60.3373 31.5091 38.7663 8.25729 47.1138Z" fill="#191919"/>
<path d="M80.6114 70.9097C79.6104 63.3386 74.468 55.2094 58.3246 61.4052C57.0014 62.3596 54.8487 65.3977 54.8486 68.794C54.8485 73.6944 59.0571 76.9158 65.333 78.8354C71.6089 80.7551 73.3071 86.145 76.3343 85.4805C79.3614 84.816 80.5376 77.4324 80.6114 70.9097Z" fill="#191919"/>
<path d="M14.2517 70.2834C34.8649 53.0259 48.7667 62.8529 52.8414 77.4738C53.0418 78.1929 51.4033 78.912 50.9239 77.7135C44.692 64.291 36.303 55.4228 14.2517 70.2834Z" fill="#191919"/>
</svg>
