<svg width="75" height="39" viewBox="0 0 75 39" fill="none" xmlns="http://www.w3.org/2000/svg">
<path d="M4.60423 32.7928C5.07153 30.6121 6.99873 29.0541 9.22897 29.0541H65.771C68.0012 29.0541 69.9284 30.6121 70.3957 32.7928C71.0266 35.7371 68.7821 38.5135 65.771 38.5135H9.22897C6.21782 38.5135 3.97331 35.7371 4.60423 32.7928Z" fill="#080808"/>
<rect width="75" height="20.2703" rx="8.78378" fill="#262626"/>
<rect x="5.4054" y="1.35132" width="64.8649" height="9.45946" rx="4.72973" fill="white"/>
<rect x="5.4054" y="1.35132" width="64.8649" height="9.45946" rx="4.72973" fill="#0031F5"/>
<mask id="mask0_16_8837" style="mask-type:alpha" maskUnits="userSpaceOnUse" x="5" y="1" width="66" height="10">
<rect x="5.4054" y="1.35132" width="64.8649" height="9.45946" rx="4.72973" fill="#0051E6"/>
</mask>
<g mask="url(#mask0_16_8837)">
<rect x="29.0541" y="-22.6193" width="8.36994" height="40.6762" transform="rotate(30 29.0541 -22.6193)" fill="white"/>
<rect x="44.4948" y="-13.7046" width="8.36994" height="40.6762" transform="rotate(30 44.4948 -13.7046)" fill="white"/>
<rect x="59.9355" y="-4.78992" width="8.36994" height="40.6762" transform="rotate(30 59.9355 -4.78992)" fill="white"/>
</g>
<rect x="5.91215" y="1.85808" width="63.8513" height="8.44595" rx="4.22297" stroke="white" stroke-width="1.01351"/>
<path d="M18.9191 32.936C18.9191 34.2756 18.1328 35.4908 16.9113 36.0405C13.8909 37.3995 10.4326 37.3997 7.41223 36.0405C6.19079 35.4908 5.4054 34.2755 5.4054 32.936V22.6694C5.7288 22.8568 6.07488 23.0129 6.44055 23.1323C10.158 24.3462 14.1655 24.3461 17.8829 23.1323C18.2488 23.0128 18.5955 22.8569 18.9191 22.6694V32.936Z" fill="#262626"/>
<path d="M69.5947 32.936C69.5947 34.2756 68.8085 35.4908 67.5869 36.0405C64.5665 37.3995 61.1082 37.3997 58.0879 36.0405C56.8665 35.4908 56.0811 34.2755 56.0811 32.936V22.6694C56.4045 22.8568 56.7505 23.0129 57.1162 23.1323C60.8336 24.3462 64.8412 24.3461 68.5586 23.1323C68.9245 23.0129 69.2712 22.8569 69.5947 22.6694V32.936Z" fill="#262626"/>
</svg>
