<svg width="100" height="214" viewBox="0 0 100 214" fill="none" xmlns="http://www.w3.org/2000/svg">
<ellipse opacity="0.2" cx="50" cy="193.5" rx="35" ry="20.5" fill="#262626"/>
<path d="M19 176C19 164.402 28.402 155 40 155H60C71.598 155 81 164.402 81 176V187.163C81 201 66.4227 206 50 206C33.5773 206 19 201 19 187.163L19 176Z" fill="#262626"/>
<path d="M62.6637 182.453C62.6637 184.347 57.9468 186.999 50.2148 186.999C42.4828 186.999 37.3362 184.346 37.3362 182.452C37.3362 180.558 42.1495 180.869 49.8815 180.869C57.6135 180.869 62.6637 180.558 62.6637 182.453Z" fill="#191919"/>
<path d="M50 158.299C54.0167 158.299 57.6034 159.137 60.1494 160.444C62.748 161.778 64 163.442 64 165C64 166.558 62.748 168.222 60.1494 169.556C57.6034 170.863 54.0167 171.701 50 171.701C45.9833 171.701 42.3966 170.863 39.8506 169.556C37.252 168.222 36 166.558 36 165C36 163.442 37.252 161.778 39.8506 160.444C42.3966 159.137 45.9833 158.299 50 158.299Z" fill="#0B0A0A" stroke="#0B0A0A" stroke-width="2"/>
<rect width="100" height="53" rx="26.5" fill="#262626"/>
<path d="M39.2212 65.4072C41.023 65.7941 42.8926 65.999 44.8101 65.999H55.8101C57.6644 65.999 59.4743 65.8078 61.2212 65.4453L60.7778 162.938C60.769 164.881 59.629 166.643 57.7554 167.154C55.8983 167.661 53.3011 168.164 50.3101 168.164C47.2209 168.164 44.2645 167.627 42.1167 167.104C40.0759 166.607 38.7694 164.725 38.7788 162.624L39.2212 65.4072Z" fill="#262626"/>
<circle cx="73.5" cy="26.5" r="17.5" fill="#191919" stroke="#030303" stroke-width="4"/>
<path d="M82.6862 34.5708C78.5033 38.8086 74.8355 38.2605 73.4999 36.5008C72.4999 35.1833 75.5431 31.6802 77.5431 29.6802C79.5431 27.6802 82.5 24.0006 84.4999 24.9993C85.9797 25.7383 86.869 30.333 82.6862 34.5708Z" fill="black" fill-opacity="0.35"/>
<path d="M66.5666 21.0072C65.4093 22.3537 63.7307 23.2311 62.9918 22.596C62.2529 21.961 62.5781 19.793 63.7354 18.4465C64.8927 17.1 66.8834 16.7597 67.6223 17.3947C68.3612 18.0298 67.7239 19.6608 66.5666 21.0072Z" fill="#293338"/>
<circle cx="27.5" cy="26.5" r="17.5" fill="#00E800" stroke="#030303" stroke-width="4"/>
<path d="M36.6862 34.5708C32.5033 38.8086 28.8355 38.2605 27.4999 36.5008C26.4999 35.1833 29.5431 31.6802 31.5431 29.6802C33.5431 27.6802 36.5 24.0006 38.4999 24.9993C39.9797 25.7383 40.869 30.333 36.6862 34.5708Z" fill="black" fill-opacity="0.35"/>
<path d="M21.309 20.7965C20.1517 22.143 19.1349 23.0513 18.396 22.4163C17.6572 21.7812 17.5428 19.9385 18.7 18.592C19.8573 17.2455 21.848 16.9052 22.5869 17.5403C23.3258 18.1753 22.4662 19.45 21.309 20.7965Z" fill="white"/>
</svg>
