<svg width="81" height="122" viewBox="0 0 81 122" fill="none" xmlns="http://www.w3.org/2000/svg">
<path d="M68.706 9.28273C57.1291 -3.91385 38.4042 0.0156555 32.5239 3.38589C33.9148 31.8312 14.4241 19.1126 12.7612 38.0441C11.0983 56.9757 0.043335 67.1922 0.043335 84.791C0.0433931 103.73 7.44921 120.859 40.7452 121.353C71.8392 121.353 80.6079 107.655 80.6079 79.4686C80.6079 58.9083 48.505 49.1269 48.9661 35.3623C48.9661 19.9643 52.6199 12.1348 68.706 9.28273Z" fill="#E8123A"/>
<path d="M6.48638 79.3265C3.30739 95.0749 14.1266 112.551 35.771 112.551C64.5992 112.551 76.4583 103.582 76.4583 82.9726C76.4583 62.3634 60.0117 51.7144 49.4193 49.441C38.8595 47.1746 38.9334 45.6116 39.0941 42.2144L39.0956 42.183C39.1786 40.4256 40.5586 35.5252 41.0152 30.1534C41.4469 25.0744 41.6922 19.0496 39.5059 19.05C38.4759 19.0503 36.7966 24.3874 33.6246 28.6376C30.0641 33.4083 25.6774 37.3842 24.0322 41.1956C21.238 47.6689 22.683 49.7404 14.8892 60.0806C12.4483 63.319 9.70497 66.216 14.8892 66.4659C22.8371 66.849 29.3736 61.0433 41.0152 61.0433C52.6567 61.0433 60.5676 66.0171 60.5676 73.8429C60.5676 82.706 30.1354 81.2326 12.6013 76.1502C9.96279 75.3854 7.02995 76.6337 6.48638 79.3265Z" fill="#FFC20D"/>
</svg>
