<svg width="53" height="78" viewBox="0 0 53 78" fill="none" xmlns="http://www.w3.org/2000/svg">
<path d="M16.3649 0.464844C4.21487 0.464844 -17.157 77.3483 29.2519 77.3483C47.5952 77.3483 52.9499 67.4358 52.9499 57.338C52.9499 41.7425 44.8715 34.9713 35.2774 27.755C19.9804 16.2493 25.4962 0.464844 16.3649 0.464844Z" fill="#E8123A"/>
<path d="M28.6932 67.7311C47.8383 67.7311 44.5575 49.6779 37.3869 40.143C36.793 39.3532 35.5904 39.5439 35.0333 40.3601C30.2275 47.4008 19.0385 45.8961 16.9468 28.4826C16.7943 27.2132 15.2077 26.7536 14.5829 27.8689C6.68354 41.9697 6.62644 67.7311 28.6932 67.7311Z" fill="#FFC20D"/>
</svg>
