<svg width="89" height="36" viewBox="0 0 89 36" fill="none" xmlns="http://www.w3.org/2000/svg">
<path d="M79.068 31.5051C71.7066 29.0915 68.6299 34.3968 67.9656 33.9187C67.3013 33.4405 69.215 30.9136 67.5085 26.8432C65.6508 22.4121 62.3682 22.2908 63.1385 21.2475C63.7624 20.4024 71.7678 18.4023 76.7932 21.2475C84.3255 25.5119 89.5183 35.56 87.9982 35.8495C85.464 36.3322 86.4294 33.9187 79.068 31.5051Z" fill="#E8123A"/>
<path d="M9.26817 2.29866C11.2423 6.97585 16.2188 11.6308 22.9557 17.0702C23.8325 17.7781 23.7696 18.8878 22.6441 18.9423C19.0871 19.1143 12.1678 17.437 11.0122 19.1319C9.56032 21.2614 14.8839 27.5529 13.916 28.3273C12.9481 29.1016 4.23328 24.2629 1.33259 12.9373C-0.756295 4.78137 7.14017 -2.74322 9.26817 2.29866Z" fill="#E8123A"/>
</svg>
