<svg width="98" height="167" viewBox="0 0 98 167" fill="none" xmlns="http://www.w3.org/2000/svg">
<path d="M61.3485 50.203C61.3485 45.7748 87.1968 59.1465 88.627 57.8426C90.0572 56.5387 87.0141 49.8475 74.8401 40.2567C66.3221 33.5462 57.5879 39.4782 48.3324 28.5413C45.2172 24.8603 46.6873 16.3473 49.1697 11.6578C51.9322 6.43899 57.0866 1.8036 55.3976 0.277744C54.5438 -0.493656 43.0075 2.18842 34.0936 8.2693C25.3755 14.2166 19.7008 22.5048 19.7008 27.2597C19.7008 32.0145 20.6808 32.9334 23.8247 32.6429C26.9686 32.3523 30.7586 28.2569 32.7961 30.595C35.5724 33.7811 20.332 49.2118 18.2845 57.8426C16.1526 66.8294 29.099 67.0794 21.5483 76.9175C10.8872 90.8083 0.852295 101.776 0.852295 120.419C0.852362 142.306 13.4607 165.779 51.9392 166.351C83.1981 166.351 98.0064 150.52 98.0064 117.947C98.0064 94.1862 60.8156 66.11 61.3485 50.203Z" fill="#E8123A"/>
<path d="M6.34676 117.517C7.30514 95.7943 46.3811 95.5907 54.5596 62.0102C54.7501 61.2282 55.7303 60.9146 56.2901 61.4928C67.414 72.9809 91.4016 98.3097 91.4016 117.517C91.4016 137.521 83.6968 159.56 53.0978 159.56C20.8971 159.56 5.58326 134.822 6.34676 117.517Z" fill="#FFC20D"/>
<path d="M27.8887 61.604C23.3983 55.7213 30.5986 44.958 32.8434 45.5002C35.0882 46.0423 31.9142 53.7865 38.7272 60.7528C43.8947 66.0365 48.0177 62.4274 48.0177 63.7706C48.0177 65.1139 34.9842 82.5439 34.392 77.8609C33.4467 70.3857 32.3791 67.4868 27.8887 61.604Z" fill="#FFC20D"/>
<path d="M47.5653 36.2373C41.0077 31.7351 41.9847 23.4273 40.1041 22.9007C38.2236 22.3742 36.5308 33.5454 40.9361 42.5346C43.4707 46.7488 49.1822 45.4234 56.1909 45.3409C63.6414 45.2533 71.0898 45.3565 71.1783 44.7122C71.5895 41.7161 51.5014 38.9397 47.5653 36.2373Z" fill="#FFC20D"/>
</svg>
