<svg width="101" height="178" viewBox="0 0 101 178" fill="none" xmlns="http://www.w3.org/2000/svg">
<path d="M54.3106 177.353C79.1181 177.353 100.948 156.331 100.948 123.757C100.948 114.82 90.3285 100.255 81.3904 87.6501C79.0376 84.3319 79.994 82.2514 77.996 79.3761C73.3343 72.6678 66.5849 66.5919 64.4945 65.9134C58.1046 63.8393 53.9367 63.7433 50.6782 62.0851C47.3682 60.4006 41.4318 61.3102 40.9998 57.0768C40.3951 53.4483 40.4836 50.5082 33.6584 50.7674C27.516 50.7674 17.5844 39.77 28.1205 34.0701C38.6567 28.3703 44.8747 35.398 49.0201 33.5844C53.1654 31.7708 52.4745 22.1847 51.1791 21.6355C49.2791 21.6671 48.5067 30.5321 42.4049 30.2355C36.3031 29.9389 31.2002 29.4078 27.7612 29.4078C24.3223 29.4078 21.3009 26.1528 18.1397 26.9317C12.643 28.2859 5.17467 34.813 5.60648 42.4129C6.03828 50.0127 8.23333 60.9509 9.88449 60.9509C12.2417 60.9509 17.3785 55.3682 23.7693 56.1475C30.6388 56.9852 31.1557 62.6278 30.8074 69.0839C30.6346 72.2862 21.8719 77.137 14.3212 86.9751C12.9566 88.753 12.9385 90.5155 14.3212 90.9953C15.4102 91.3732 17.023 91.3754 18.1691 91.6208C19.4712 91.8997 19.3965 92.8786 18.5289 94.8863C17.6613 96.8939 0.422607 112.51 0.422607 127.284C0.422607 151.453 15.8321 176.781 54.3106 177.353Z" fill="#E8123A"/>
<path d="M72.8357 87.4315C75.0302 85.143 65.9227 76.6786 62.4775 75.3578C59.0323 74.037 49.0296 74.9303 48.0217 76.5666C47.4072 77.5639 53.8378 80.2772 57.6384 81.9497C60.073 83.0211 71.9788 88.3251 72.8357 87.4315Z" fill="#FFC20D"/>
<path d="M51.8932 39.4002C52.4603 41.1015 54.3081 42.0378 60.4704 42.7802C61.2181 42.8703 61.7811 42.1218 61.4684 41.4366C58.8472 35.6937 56.0064 33.8368 53.6245 34.8056C52.2567 35.3619 51.2782 37.5554 51.8932 39.4002Z" fill="#E8123A"/>
<path d="M40.4769 14.1028C42.9442 13.2357 45.1368 11.0537 47.41 6.08954C47.7629 5.31897 47.0283 4.52347 46.2269 4.79939C38.8859 7.32704 34.0675 10.0903 33.8964 12.643C33.7977 14.1163 37.706 15.0767 40.4769 14.1028Z" fill="#E8123A"/>
<path d="M54.0921 169.304C16.9852 169.304 6.36958 144.464 7.13308 127.16C7.13308 109.233 29.6817 99.8814 30.2523 88.9436C30.2808 88.3962 30.6876 87.9167 31.2344 87.879C65.4316 85.5241 93.5421 107.347 93.5421 127.16C93.5421 139.563 84.0728 169.304 54.0921 169.304Z" fill="#FFC20D"/>
</svg>
