<svg width="99" height="120" viewBox="0 0 99 120" fill="none" xmlns="http://www.w3.org/2000/svg">
<path d="M98.5465 75.5798C98.5465 66.9911 91.5212 68.2997 79.8213 56.0836C70.1142 45.9483 55.3123 34.042 54.4095 7.88784C54.3882 7.26861 54.0592 6.65417 53.5536 6.29604C18.2219 -18.7294 9.49865 46.5532 24.4811 46.5512C33.9571 46.5512 32.7167 42.1554 37.4894 42.1554C40.2373 42.1554 40.94 43.9307 40.94 47.6141C40.94 58.6267 2.95556 83.6185 0.632568 110.797C0.632714 120.09 11.2606 121.662 13.1834 118.521C37.7751 78.3532 98.5465 93.661 98.5465 75.5798Z" fill="#E8123A"/>
<path d="M8.52918 110.204C5.2393 77.125 54.3662 68.5896 46.8522 45.2212C46.615 44.4835 47.1987 43.701 47.9563 43.8642C57.5886 45.9394 74.7794 55.0596 72.7176 62.7543C67.0313 83.9758 36.3 65.9357 8.52918 110.204Z" fill="#FFC20D"/>
<path d="M33.1077 36.421C35.976 33.1176 39.5906 29.4077 43.533 31.2916C43.9431 31.4876 44.4837 31.1454 44.4305 30.694C43.4752 22.5781 47.6096 13.7076 47.6096 10.5529C47.6096 6.42751 35.7572 4.4296 28.7367 12.6834C21.7162 20.9373 21.9572 29.4022 23.6783 35.8254C24.7737 39.9136 29.9771 40.0264 33.1077 36.421Z" fill="#FFC20D"/>
</svg>
