<svg width="86" height="62" viewBox="0 0 86 62" fill="none" xmlns="http://www.w3.org/2000/svg">
<path d="M19.5666 29.7455C24.4973 26.1564 29.9129 36.5472 32.7588 35.3445C35.3054 33.1601 28.9739 27.7251 25.23 21.4164C23.515 18.5265 22.8261 14.1953 24.0952 10.3852C25.5485 6.02187 13.3187 -1.00711 11.7853 0.120827C8.01584 2.89367 6.68016 10.9082 1.12766 21.4164C-3.64997 30.4581 11.041 48.1836 19.5669 47.3905C22.2358 47.1423 14.6359 33.3346 19.5666 29.7455Z" fill="#E8123A"/>
<path d="M9.93167 16.5536C8.59663 21.3204 9.11987 21.1061 8.38162 23.731C7.94621 25.2792 7.86963 28.8817 6.92179 28.7489C6.26253 28.6565 5.29757 26.0581 5.29761 24.2325C5.29764 22.6133 5.3556 19.1797 7.33772 14.6314C9.1319 10.5144 11.9604 7.72768 12.7616 7.50354C13.5627 7.2794 13.0001 11.5982 12.7616 12.367C12.2328 14.0708 10.6999 13.8107 9.93167 16.5536Z" fill="#FFC20D"/>
<path d="M41.4815 43.5773C34.094 45.3559 27.1175 56.8468 31.6319 61.6359C34.4405 62.8396 39.5467 56.5451 48.3215 52.3331C54.5072 49.364 64.6036 48.3606 67.8843 47.6818C75.8188 46.0402 81.2909 54.7956 83.2061 54.522C85.1214 54.2484 88.2678 52.7422 81.2909 39.1993C74.314 25.6564 57.4873 29.3492 55.8456 30.9908C54.204 32.6324 57.6241 31.4015 57.4873 37.284C57.3505 43.1665 48.869 41.7987 41.4815 43.5773Z" fill="#E8123A"/>
<path d="M63.9074 42.003C64.8928 40.8194 64.386 38.5491 63.2907 35.7396C63.0447 35.1086 63.4657 34.4088 64.1429 34.4064C71.5832 34.379 75.8975 39.801 78.0296 42.003C80.2892 44.3367 79.0023 45.5363 76.784 44.2616C73.2544 42.2333 62.7775 43.36 63.9074 42.003Z" fill="#FFC20D"/>
</svg>
