<svg width="82" height="90" viewBox="0 0 82 90" fill="none" xmlns="http://www.w3.org/2000/svg">
<path d="M67.8504 71.5253C79.3742 67.8979 87.3226 58.9211 75.6226 46.705C66.6444 37.3306 54.6304 40.0554 46.8499 37.9797C45.7031 37.6738 44.435 38.2312 44.0175 39.3423C41.2474 46.7139 38.1942 49.7832 33.6167 54.0083C27.1126 60.0119 10.146 64.4212 10.1462 80.8087C10.1464 90.101 11.9041 91.0575 13.827 87.9168C18.4529 77.589 27.9072 71.5253 32.117 71.5253C36.8273 71.1412 42.9152 75.6725 48.0323 76.3978C54.8672 77.3667 63.8456 72.7859 67.8504 71.5253Z" fill="#E8123A"/>
<path d="M3.13006 22.3326C-3.94131 34.5728 7.39987 48.1149 22.6047 46.9763C23.5357 45.8478 19.2208 42.1985 18.0714 38.5452C17.0949 35.441 19.133 32.2099 20.8825 31.835C24.691 31.0189 27.8721 34.3764 31.3105 37.3663C33.396 39.1799 38.5059 34.4742 38.5059 29.865C38.5059 23.0472 30.2611 19.5131 29.1342 16.5104C28.328 14.3622 30.393 12.0942 29.1342 8.83984C27.7861 5.3546 22.0979 0.550781 17.074 0.550781C18.0714 8.43519 10.2014 10.0923 3.13006 22.3326Z" fill="#E8123A"/>
<path d="M7.01463 31.6745C6.06026 24.2698 16.2359 9.46598 21.2821 11.8303C22.0841 12.7133 21.5105 16.4734 19.7576 19.1559C17.2378 23.0118 14.5929 26.5372 17.2808 29.6091C8.89606 34.2057 13.3036 38.8404 11.9502 39.0793C10.5968 39.3181 7.96899 39.0793 7.01463 31.6745Z" fill="#FFC20D"/>
<path d="M68.6979 54.0615C68.5281 62.0371 49.5843 58.5628 49.5843 68.4163C46.7814 68.4163 43.4259 67.8723 42.0239 62.6397C40.6218 57.4071 46.9291 49.3698 53.8318 47.5202C60.7346 45.6706 68.6979 47.3601 68.6979 54.0615Z" fill="#FFC20D"/>
</svg>
