<svg width="105" height="162" viewBox="0 0 105 162" fill="none" xmlns="http://www.w3.org/2000/svg">
<path d="M55.8286 161.352C80.6361 161.352 104.319 140.827 104.319 108.254C104.319 99.3159 92.6566 87.8662 84.5016 73.4627C82.1488 70.1445 82.5188 66.2509 80.5208 63.3757C75.8591 56.6674 69.3715 50.07 67.2811 49.3915C60.8911 47.3173 60.1686 44.3725 56.9102 42.7143C53.6001 41.0298 46.3434 42.378 45.9114 38.1446C44.0531 27.5842 32.4807 28.7457 25.6555 29.0049C19.513 29.0049 23.0821 18.0657 28.3547 14.0878C31.7619 11.5173 33.3981 5.05768 29.709 4.03795C27.667 3.60946 20.2625 3.86862 17.029 5.05768C6.30508 9.00109 -1.65505 21.173 1.36297 34.4218C5.18979 30.7722 7.09946 26.2324 8.75062 26.2324C11.1078 26.2324 14.4476 28.6358 16.406 32.8196C18.3643 37.0033 23.4305 42.4753 23.0821 48.9314C22.9093 52.1337 25.1139 53.5376 17.5632 63.3757C16.1986 65.1537 15.6464 69.6374 17.0291 70.1171C18.1181 70.495 22.1505 68.6562 23.7943 69.0489C25.438 69.4416 25.552 70.5129 24.6844 72.5206C23.8168 74.5282 1.94065 96.5094 1.94065 111.283C1.94065 135.452 17.3502 160.78 55.8286 161.352Z" fill="#E8123A"/>
<path d="M47.6223 7.99409C49.1278 7.46499 49.3682 6.20618 48.2929 2.93376C48.1249 2.42241 47.5701 2.14737 47.0638 2.33C42.8751 3.84089 42.2012 5.45568 42.0981 6.99405C42.0397 7.8651 45.984 8.56985 47.6223 7.99409Z" fill="#E8123A"/>
<path d="M53.4851 152.734C19.486 152.734 8.89442 130.156 9.65793 112.851C9.65793 94.3861 33.8785 83.7952 34.8142 71.4357C34.8142 70.6124 32.6177 69.6303 33.001 68.1427C34.8113 61.1163 42.7923 56.3202 45.6497 48.6242C46.015 47.6401 47.0034 46.9793 48.0285 47.2051C57.3005 49.2477 66.3191 54.5094 72.9888 63.4649C75.0572 66.2423 76.4161 69.9263 77.914 73.4146L80.3294 78.2941C89.5073 93.3943 97.1459 99.7007 97.1459 112.851C97.1459 123.738 92.965 132.459 80.3294 144.013C76.8525 147.192 69.092 141.884 62.5801 144.013C56.0681 146.142 56.1996 152.734 53.4851 152.734Z" fill="#FFC20D"/>
</svg>
