<svg width="111" height="157" viewBox="0 0 111 157" fill="none" xmlns="http://www.w3.org/2000/svg">
<path d="M48.1422 62.0005C54.5943 75.3233 3.7411 90.858 0.858045 124.59C-0.921917 145.415 9.88613 155.637 26.3337 156.107C27.5568 156.142 29.4548 151.068 33.8019 145.737C41.9099 135.796 55.5851 121.643 68.4975 114.712C78.9757 109.088 87.2678 106.334 92.6236 109.668C97.4063 112.644 98.4053 118.901 101.685 118.901C104.964 118.901 110.437 109.206 110.437 96.6066C110.437 83.4476 96.9477 75.1404 89.5184 59.9441C84.5869 49.8569 80.4339 15.8024 53.5845 12.4943C26.7351 9.18612 19.9401 32.9681 21.135 51.9549C30.031 50.4944 44.1051 55.6726 48.1422 62.0005Z" fill="#E8123A"/>
<path d="M25.5031 12.5874C27.819 11.2319 28.5857 6.63577 26.6408 5.12684C24.6958 3.61791 23.1453 7.44442 19.7975 7.61153C16.4498 7.77864 15.1715 8.85546 12.9404 10.7748C6.45946 16.3499 9.8663 21.2942 10.8309 21.928C12.0428 22.7243 13.2758 16.5282 17.5364 15.0696C20.0346 13.5377 23.1872 13.9429 25.5031 12.5874Z" fill="#E8123A"/>
<path d="M47.0662 25.1634C32.162 27.101 29.8638 44.3687 32.8049 45.1567C34.4212 45.261 38.2113 43.6307 42.585 45.1567C50.7143 47.9931 60.6173 56.9386 60.6173 65.8002C60.6173 78.8926 39.0861 85.007 23.8788 100.214C8.67149 115.421 10.1791 140.182 17.7 140.871C43.5594 143.241 57.915 91.5014 83.1336 93.8717C96.6981 93.8717 99.8318 106.977 101.471 106.53C103.111 106.082 105.091 101.928 103.526 93.8717C97.7034 63.9028 66.889 70.3222 66.889 33.8068C67.038 32.3164 61.9705 23.2258 47.0662 25.1634Z" fill="#FFC20D"/>
</svg>
