<svg width="104" height="168" viewBox="0 0 104 168" fill="none" xmlns="http://www.w3.org/2000/svg">
<path d="M26.897 28.6719C28.2177 29.1338 24.5154 36.7146 26.897 39.7253C29.2786 42.7359 42.7756 40.9043 55.2894 41.7329C64.8255 42.3644 77.6975 49.9052 84.1049 59.1257C87.8802 64.5586 85.8349 81.7986 88.7368 91.4842C92.3528 103.553 103.269 105.015 103.808 114.531C105.239 139.827 83.0774 158.023 79.3587 158.023C75.64 158.023 78.9674 146.563 71.4945 142.054C65.8819 138.667 54.3807 142.054 50.6887 147.382C46.9967 152.71 47.7388 167.733 43.0994 167.344C9.56941 165.616 -0.266068 148.807 0.633498 123.72C1.19801 107.976 32.6745 83.5342 32.6745 75.1232C32.6745 68.0564 22.4788 66.3987 20.3864 63.8705C18.1421 61.3309 19.7222 51.5246 19.5609 45.0727C19.4841 42.0007 17.7947 39.5139 17.1198 38.5919C15.7249 35.4458 24.4559 28.6719 26.897 28.6719Z" fill="#E8123A"/>
<path d="M10.7009 118.546C2.00091 144.022 22.4713 161.198 37.5872 161.001C38.7466 160.986 39.5199 159.884 39.3847 158.733C37.6682 144.117 48.4001 129.332 64.8482 126.982C72.0374 125.955 77.9108 129.262 80.4765 133.722C84.0647 139.96 82.9595 146.91 85.1992 147.233C87.439 147.556 97.0711 134.076 96.4552 119.419C96.0884 110.689 93.1783 104.848 89.4784 101.744C86.966 99.6366 83.9899 101.949 83.9899 98.8604C83.9899 66.713 68.7202 49.5144 55.9799 47.29C45.3543 45.4348 35.0176 45.6681 31.4457 54.1668C27.8738 62.6655 42.8007 66.6286 42.8007 72.9103C43.2934 88.3065 19.8184 91.8484 10.7009 118.546Z" fill="#FFC20D"/>
<path d="M31.6411 19.9826C32.8632 18.9893 34.1328 13.9407 33.2178 9.86023C33.0776 9.23511 32.3576 8.98886 31.8568 9.38837C29.1455 11.5512 27.5876 14.4924 23.2748 14.7077C18.4527 14.9484 16.7593 9.18933 13.5456 11.9539C4.21047 19.9843 7.81765 29.5742 9.20707 30.4872C10.9526 31.6343 14.5976 23.6505 20.7346 21.5496C24.3329 19.3429 30.2957 21.076 31.6411 19.9826Z" fill="#E8123A"/>
</svg>
