<svg width="101" height="177" viewBox="0 0 101 177" fill="none" xmlns="http://www.w3.org/2000/svg">
<path d="M52.0476 176.349C76.8551 176.349 100.216 152.785 100.216 120.212C100.216 103.432 69.2798 85.7541 55.9749 68.789C50.4396 61.7311 50.0433 54.1921 53.5057 52.2388C55.0247 51.3818 59.7959 51.6535 65.4786 54.8769C72.7489 59.0008 80.8384 66.2466 81.9255 65.6593C83.0126 65.072 74.9528 48.249 67.1147 40.2423C59.2765 32.2356 54.1116 40.5267 44.856 29.5897C41.7409 25.9087 41.8671 21.5564 44.3495 16.8669C47.112 11.6481 54.294 1.88231 52.6051 0.356455C51.7512 -0.414945 41.7079 4.08954 32.0083 8.25564C22.3086 12.4217 18.0593 17.7224 18.0593 19.6891C18.0593 21.6559 19.2024 22.8164 20.5096 23.1786C25.2938 24.5041 36.5805 21.3315 36.5805 27.1971C36.5805 34.6651 25.0843 38.7726 18.0593 47.5778C15.0926 51.2963 13.4685 56.7606 13.9371 60.2011C14.8275 66.7392 30.5185 74.6727 22.9678 84.5108C12.3066 98.4016 0.960693 111.774 0.960693 130.417C0.96076 152.304 13.5691 175.777 52.0476 176.349Z" fill="#E8123A"/>
<path d="M31.4418 65.2751C29.6593 61.9138 27.871 55.5949 29.1653 48.0399C29.327 47.0958 28.223 46.4032 27.5084 47.041C15.9616 57.3469 21.6278 65.4103 30.3535 67.0551C31.2422 67.2226 31.8655 66.074 31.4418 65.2751Z" fill="#FFC20D"/>
<path d="M48.661 42.8995C51.3713 43.1604 55.5706 45.65 63.5121 47.5676C64.3354 47.7664 64.975 46.9058 64.5183 46.1926C59.1677 37.8366 51.8288 38.1247 48.0493 41.7682C47.6839 42.1205 48.1558 42.8509 48.661 42.8995Z" fill="#FFC20D"/>
<path d="M42.168 7.37496C39.606 5.40883 35.0507 12.6555 36.3529 13.3323C37.655 14.0091 44.73 9.34109 42.168 7.37496Z" fill="#FFC20D"/>
<path d="M52.1741 167.827C19.9735 167.827 5.69202 144.821 6.45553 127.516C7.29255 108.544 44.4609 99.4152 51.7739 86.7488C52.5606 85.3862 50.3002 82.1289 47.6123 80.547C43.9966 78.4192 39.1915 78.292 38.779 76.7527C38.0599 74.069 44.4125 70.2488 49.5069 71.2462C54.6014 72.2436 59.5647 80.732 68.6828 88.846C80.9253 99.7405 94.8516 107.899 94.8516 122.649C94.8516 138.82 84.3748 167.827 52.1741 167.827Z" fill="#FFC20D"/>
</svg>
