<svg width="97" height="171" viewBox="0 0 97 171" fill="none" xmlns="http://www.w3.org/2000/svg">
<path d="M55.6258 0.09375C43.299 0.09375 35.6964 17.5917 40.6552 12.5514C43.1888 9.97613 47.8106 7.28297 51.3113 7.25432C54.6621 7.22689 56.9083 9.81319 58.7076 9.72397C62.3867 9.54153 63.2547 0.09375 55.6258 0.09375Z" fill="#E8123A"/>
<path d="M75.3558 69.4755C75.3558 65.1488 95.1995 74.9838 96.5968 73.7098C97.9942 72.4358 89.9527 57.937 78.0578 48.5661C69.7351 42.0094 55.6952 41.8428 47.1422 31.7359C43.1565 27.0263 49.3715 14.4425 47.0937 15.748C43.9597 16.0064 34.8063 22.454 33.046 30.0913C30.7169 40.1967 35.4459 54.1717 33.046 59.9611C29.5901 68.2976 21.6103 65.376 14.2327 74.9886C6.85515 84.6011 11.5446 91.5042 8.36577 101.641C5.56865 110.561 0.82312 116.311 0.82312 125.612C0.823186 146.997 12.2519 169.793 49.8481 170.352C82.7134 170.352 94.8592 148.559 94.8592 123.057C94.8592 99.8415 74.8351 85.0178 75.3558 69.4755Z" fill="#E8123A"/>
<path d="M11.1948 126.683C6.43063 145.465 20.8871 162.011 46.2834 162.011C78.8348 162.011 91.051 144.657 91.051 121.386C91.051 98.1151 67.9431 87.1197 67.3596 70.9862C66.7761 54.8528 81.225 63.557 81.4075 59.6964C81.5013 57.712 77.0076 54.1455 69.3644 53.4038C38.2026 50.3798 42.9704 32.7464 40.2465 32.4093C37.5226 32.0722 35.657 35.5402 36.0506 40.9206C36.6493 49.1018 42.2643 52.0291 39.001 61.2684C35.7376 70.5077 25.7835 69.7776 21.903 75.0743C14.0447 85.8004 22.8451 96.2141 14.0447 107.89C11.2886 111.546 6.42166 117.157 12.2755 117.439C21.2498 117.872 39.001 92.4556 59.3975 92.4556C67.3596 92.4556 79.4286 98.5208 80.3898 106.301C81.383 114.34 69.5717 124.102 63.8521 124.102C43.296 124.102 41.6704 121.265 15.8857 122.986C13.6939 123.132 11.7348 124.554 11.1948 126.683Z" fill="#FFC20D"/>
</svg>
