<svg width="101" height="177" viewBox="0 0 101 177" fill="none" xmlns="http://www.w3.org/2000/svg">
<path d="M51.15 176.349C75.9576 176.349 100.147 159.869 100.147 127.296C100.147 110.516 72.5904 81.9621 57.1262 65.6592C55.3912 63.4469 51.6667 59.5837 48.4083 57.9255C45.0983 56.241 42.2632 56.774 41.7149 56.1391C40.2876 53.6433 41.7149 47.5777 45.1324 46.8891C48.5498 46.2004 54.1834 45.9476 59.8661 49.171C63.4319 51.1936 66.14 53.4014 67.1684 51.3523C68.1968 49.3032 64.5353 42.2699 56.6972 34.2632C48.859 26.2565 45.6292 27.6232 42.8925 22.9145C40.4693 18.7453 40.088 13.0942 40.9197 9.08542C41.7515 5.07667 41.8285 1.65515 40.5246 0.905013C39.2208 0.154876 36.035 -0.000430584 29.4367 5.87866C22.8383 11.7577 22.0962 23.0923 23.3392 23.5881C24.5823 24.084 25.4855 19.3443 29.4367 19.2955C33.3878 19.2468 36.2025 21.7577 36.2025 27.6232C36.2025 31.2378 34.3404 37.6878 30.639 40.5385C26.693 43.5776 20.7866 43.0343 17.1618 47.5777C14.1951 51.2962 14.2933 62.2187 14.7619 65.6592C15.6523 72.1974 34.3352 71.0744 26.7845 80.9125C23.1239 85.682 16.4719 87.8682 12.407 93.3069C8.48715 98.5515 11.5478 102.17 9.4323 108.676C7.35227 115.072 0.0617676 120.579 0.0617676 126.648C0.0617676 150.817 12.6716 175.777 51.15 176.349Z" fill="#E8123A"/>
<path d="M24.469 58.1004C24.7879 56.2649 25.3862 53.9261 25.1261 49.7795C25.0734 48.9396 24.0782 48.6088 23.5816 49.2882C21.3549 52.3344 20.3617 56.1905 22.8997 58.7722C23.4423 59.3242 24.3364 58.863 24.469 58.1004Z" fill="#FFC20D"/>
<path d="M44.7702 72.6429C47.4339 70.9231 48.2043 67.9799 46.5916 65.6821C44.979 63.3844 35.0541 62.1032 33.6954 63.4624C32.8673 64.2908 35.1936 68.2497 38.5052 70.7548C40.6265 72.3595 43.7301 73.3144 44.7702 72.6429Z" fill="#FFC20D"/>
<path d="M45.4854 38.4014C46.0526 40.1027 47.9004 41.039 54.0627 41.7815C54.8104 41.8716 55.3734 41.123 55.0607 40.4378C52.4395 34.6949 49.5987 32.8381 47.2168 33.8068C45.849 34.3631 44.8705 36.5566 45.4854 38.4014Z" fill="#FFC20D"/>
<path d="M49.8252 167.827C24.4093 167.827 7.81035 157.948 8.57386 140.643C8.57386 122.178 22.5994 111.809 44.6003 111.809C66.6012 111.809 88.3273 130.331 88.3273 150.334C88.3273 155.311 73.2565 167.827 49.8252 167.827Z" fill="#FFC20D"/>
<path d="M50.6054 102.507C31.0617 102.507 21.7641 107.55 18.7142 109.675C18.3191 109.951 17.7213 109.594 17.8419 109.128C21.2612 95.9159 42.1109 78.1533 48.9771 78.1533C54.8168 78.1533 85.6181 103.522 89.0097 125.514C89.0912 126.043 88.3802 126.293 88.0887 125.844C84.2648 119.959 71.19 102.507 50.6054 102.507Z" fill="#FFC20D"/>
</svg>
